SplineFontDB: 3.0
FontName: Umpush-Oblique
FullName: Umpush Oblique
FamilyName: Umpush
Weight: Book
Copyright: Copyright (c) 2003 NECTEC. All rights reserved.\nCopyright (c) 2007 Widhaya Trisarnwadhana. All rights reserved.\nModified under GNU General Public License by TLWG.
Version: 0.9.17: 2014-02-26
ItalicAngle: -10
UnderlinePosition: -170
UnderlineWidth: 20
Ascent: 1638
Descent: 410
LayerCount: 2
Layer: 0 0 "Back"  1
Layer: 1 0 "Fore"  0
FSType: 0
OS2Version: 0
OS2_WeightWidthSlopeOnly: 0
OS2_UseTypoMetrics: 0
CreationTime: 1153662374
ModificationTime: 1393417831
PfmFamily: 33
TTFWeight: 400
TTFWidth: 5
LineGap: 0
VLineGap: 0
Panose: 2 11 5 4 2 2 2 2 2 4
OS2TypoAscent: 0
OS2TypoAOffset: 1
OS2TypoDescent: 0
OS2TypoDOffset: 1
OS2TypoLinegap: 0
OS2WinAscent: 0
OS2WinAOffset: 1
OS2WinDescent: 0
OS2WinDOffset: 1
HheadAscent: 0
HheadAOffset: 1
HheadDescent: 0
HheadDOffset: 1
OS2Vendor: 'PfEd'
Lookup: 4 0 1 "'liga' Standard Ligatures lookup 0"  {"'liga' Standard Ligatures lookup 0"  } ['liga' ('latn' <'dflt' > ) ]
Lookup: 6 0 0 "'ccmp' Thai Conditional Descender Removal"  {"'ccmp' Thai Conditional Descender Removal"  } ['ccmp' ('DFLT' <'dflt' > 'thai' <'KUY ' 'THA ' 'dflt' > ) ]
Lookup: 1 0 0 "'ccmp' Pali-Sanskrit Descender Removal"  {"'ccmp' Pali-Sanskrit Descender Removal" ("descless" ) } ['ccmp' ('thai' <'PAL ' 'SAN ' > ) ]
Lookup: 6 0 0 "'ccmp' Thai General Composition"  {"'ccmp' Thai Below Vowel Tone Reordering"  "'ccmp' Thai General Composition"  } ['ccmp' ('DFLT' <'dflt' > 'thai' <'KUY ' 'PAL ' 'SAN ' 'THA ' 'dflt' > ) ]
Lookup: 1 0 0 "Thai Descender Removal Single Substitution"  {"Thai Descender Removal Single Substitution" ("descless" ) } []
Lookup: 2 0 0 "Thai Sara Am Decomposition"  {"Thai Sara Am Decomposition"  } []
Lookup: 2 0 0 "Thai Tone Nikhahit Attachment"  {"Thai Tone Nikhahit Attachment"  } []
Lookup: 1 0 0 "Thai Sara Am Lakkhang"  {"Thai Sara Am Lakkhang"  } []
Lookup: 1 0 0 "Thai Tone Low Variant"  {"Thai Tone Low Variant" ("low" ) } []

StartChar: .notdef
Encoding: 65536 -1 0
Width: 1536
Flags: W
HStem: 0 32<294 1254> 1248 32<508 1468>
DStem2: 256 0 288.358 0 0.173648 0.984808<38.1125 1272.8> 1248.36 0 1280 0 0.173648 0.984808<32.4937 1267.18>
LayerCount: 2
Fore
SplineSet
256 0 m 1
 482 1280 l 1
 1506 1280 l 1
 1280 0 l 1
 256 0 l 1
294 32 m 1
 1254 32 l 1
 1468 1248 l 1
 508 1248 l 1
 294 32 l 1
EndSplineSet
EndChar

StartChar: uni0E4D.high
Encoding: 63262 63262 2
Width: 0
VWidth: 2558
Flags: W
HStem: 2056 72<65.0049 195.178> 2284 74<78.6836 213.277>
VStem: -13 70<2136 2261.8> 219 71<2153.12 2275.9>
AnchorPoint: "AboveMark" 202 2560 basemark 0
AnchorPoint: "AboveMark" 115 2070 mark 0
LayerCount: 2
Fore
SplineSet
-13 2178 m 0
 -13 2264 65 2358 167 2358 c 0
 238 2358 290 2306 290 2233 c 0
 290 2131 196 2056 114 2056 c 0
 47 2056 -13 2104 -13 2178 c 0
153 2284 m 0
 95 2284 57 2235 57 2192 c 0
 57 2153 90 2128 124 2128 c 0
 166 2128 219 2169 219 2220 c 0
 219 2263 185 2284 153 2284 c 0
EndSplineSet
EndChar

StartChar: exclam
Encoding: 33 33 5
Width: 569
Flags: W
HStem: 0 194<232 378> 1430 20G<450.452 634>
VStem: 306 92<365 423.263>
DStem2: 198 0 378 0 0.173648 0.984808<31.2567 196.957 655.611 1472.43>
LayerCount: 2
Fore
SplineSet
374 999 m 1
 454 1450 l 1
 634 1450 l 1
 554 999 l 1
 398 365 l 1
 306 365 l 1
 374 999 l 1
232 194 m 1
 412 194 l 1
 378 0 l 1
 198 0 l 1
 232 194 l 1
EndSplineSet
EndChar

StartChar: quotedbl
Encoding: 34 34 6
Width: 727
Flags: W
HStem: 947 503<362 408 695 739>
VStem: 323 552
LayerCount: 2
Fore
SplineSet
323 947 m 1
 321 1217 l 1
 362 1450 l 1
 542 1450 l 1
 501 1217 l 1
 408 947 l 1
 323 947 l 1
654 947 m 1
 654 1217 l 1
 695 1450 l 1
 875 1450 l 1
 834 1217 l 1
 739 947 l 1
 654 947 l 1
EndSplineSet
EndChar

StartChar: numbersign
Encoding: 35 35 7
Width: 1139
Flags: W
HStem: -10 21G<85 272.7 544 731.7> 390 170<120 239 485 698 944 1182> 900 170<210 435 681 894 1140 1272> 1450 20G<646.35 834 1105.35 1293>
DStem2: 85 -10 265 -10 0.358852 0.933394<64.5934 428.621 675.576 974.987 1221.94 1585.61> 544 -10 724 -10 0.358852 0.933394<64.5934 428.621 675.576 974.987 1221.94 1585.61>
LayerCount: 2
Fore
SplineSet
265 -10 m 1
 85 -10 l 1
 239 390 l 1
 90 390 l 1
 120 560 l 1
 305 560 l 1
 435 900 l 1
 180 900 l 1
 210 1070 l 1
 501 1070 l 1
 654 1470 l 1
 834 1470 l 1
 681 1070 l 1
 960 1070 l 1
 1113 1470 l 1
 1293 1470 l 1
 1140 1070 l 1
 1302 1070 l 1
 1272 900 l 1
 1074 900 l 1
 944 560 l 1
 1212 560 l 1
 1182 390 l 1
 878 390 l 1
 724 -10 l 1
 544 -10 l 1
 698 390 l 1
 419 390 l 1
 265 -10 l 1
894 900 m 1
 615 900 l 1
 485 560 l 1
 764 560 l 1
 894 900 l 1
EndSplineSet
EndChar

StartChar: dollar
Encoding: 36 36 8
Width: 1139
Flags: W
HStem: 1062 21G<1015 1196>
VStem: 144 188<260.464 429> 284 184<896.791 1144.92> 936 185<304.573 559.07> 1015 183<1062 1184.33>
DStem2: 454 -106 634 -106 0.173648 0.984808<31.2567 102.591 311.572 777.665 956.515 1375.92 1582.93 1630.74>
LayerCount: 2
Fore
SplineSet
737 1500 m 1xa0
 917 1500 l 1
 904 1422 l 1
 1071 1395 1198 1291 1198 1114 c 3
 1198 1097 1197 1080 1195 1062 c 1
 1015 1062 l 1xa8
 1015 1157 960 1220 873 1246 c 1
 794 799 l 1
 958 761 1121 687 1121 486 c 3
 1121 204 893 31 652 -4 c 1
 634 -106 l 1
 454 -106 l 1
 472 -5 l 1
 277 21 144 140 144 340 c 3
 144 368 147 398 152 429 c 1
 332 429 l 1xd0
 332 290 392 200 503 170 c 1
 590 665 l 1
 445 701 284 779 284 973 c 3
 284 1247 509 1392 724 1423 c 1
 737 1500 l 1xa0
693 1249 m 1
 576 1223 468 1151 468 1011 c 3
 468 911 537 862 620 836 c 1
 693 1249 l 1
683 170 m 1
 813 201 936 290 936 445 c 3x90
 936 554 858 603 764 629 c 1
 683 170 l 1
EndSplineSet
EndChar

StartChar: percent
Encoding: 37 37 9
Width: 1821
Flags: W
HStem: -50 170<1329.8 1492.56> -10 21G<456 649.644> 554 170<1386.93 1555.92> 717 170<516.81 679.324> 1321 170<573.788 743.193>
VStem: 305 183<907.448 1217.32> 767 182<992.759 1301.16> 1117 184<143.97 455.906> 1579 182<225.56 534.809>
DStem2: 456 -10 636 -10 0.563559 0.826076<101.441 1817.02>
LayerCount: 2
Fore
SplineSet
1508 724 m 3xaf80
 1679 724 1761 604 1761 438 c 3
 1761 168 1599 -50 1371 -50 c 3
 1200 -50 1117 69 1117 235 c 3
 1117 505 1281 724 1508 724 c 3xaf80
1401 120 m 3
 1508 120 1579 274 1579 412 c 3
 1579 490 1553 554 1478 554 c 3
 1372 554 1301 408 1301 275 c 3
 1301 191 1333 120 1401 120 c 3
695 1491 m 3
 866 1491 949 1372 949 1205 c 3
 949 935 785 717 558 717 c 3x1f80
 387 717 305 836 305 1002 c 3
 305 1272 467 1491 695 1491 c 3
588 887 m 3
 694 887 767 1042 767 1179 c 3
 767 1257 740 1321 665 1321 c 3
 559 1321 488 1174 488 1041 c 3
 488 957 520 887 588 887 c 3
1480 1491 m 1
 1660 1491 l 1
 636 -10 l 1
 456 -10 l 1x4f80
 1480 1491 l 1
EndSplineSet
EndChar

StartChar: ampersand
Encoding: 38 38 10
Width: 1366
Flags: W
HStem: -11 170<433.017 754.01> 1312 170<728.264 963.049>
VStem: 154 186<250.818 523.652> 472 184<1042.12 1239.09> 1002 186<1058.31 1271.81>
DStem2: 845 821 658 725 0.539283 -0.842124<-376.448 -158.438 0 387.612>
LayerCount: 2
Fore
SplineSet
1005 179 m 1
 866 55 718 -11 551 -11 c 3
 310 -11 154 141 154 340 c 3
 154 576 317 726 584 842 c 1
 532 928 472 1009 472 1112 c 3
 472 1331 695 1482 898 1482 c 3
 1074 1482 1188 1367 1188 1223 c 3
 1188 1045 1057 925 845 821 c 1
 1050 492 l 1
 1090 549 1124 611 1154 690 c 1
 1335 649 l 1
 1280 522 1219 424 1150 341 c 1
 1203 261 1266 186 1341 123 c 1
 1194 -21 l 1
 1130 27 1068 96 1005 179 c 1
771 938 m 1
 904 1012 1002 1051 1002 1177 c 3
 1002 1251 939 1312 858 1312 c 3
 764 1312 656 1235 656 1150 c 3
 656 1087 733 994 771 938 c 1
658 725 m 1
 476 630 340 545 340 387 c 3
 340 283 413 159 583 159 c 3
 716 159 841 246 917 322 c 1
 658 725 l 1
EndSplineSet
EndChar

StartChar: quotesingle
Encoding: 39 39 11
Width: 391
Flags: W
HStem: 947 519<348 414>
VStem: 303 250
LayerCount: 2
Fore
SplineSet
303 947 m 1
 305 1221 l 1
 348 1466 l 1
 553 1466 l 1
 510 1221 l 1
 414 947 l 1
 303 947 l 1
EndSplineSet
EndChar

StartChar: parenleft
Encoding: 40 40 12
Width: 682
Flags: W
VStem: 197 177<-49.038 641.405>
LayerCount: 2
Fore
SplineSet
403 -431 m 1
 282 -228 197 19 197 295 c 3
 197 820 468 1205 742 1491 c 1
 871 1491 l 1
 587 1117 374 776 374 268 c 3
 374 35 428 -198 532 -431 c 1
 403 -431 l 1
EndSplineSet
EndChar

StartChar: parenright
Encoding: 41 41 13
Width: 682
Flags: W
VStem: 502 174<451.16 1117.48>
LayerCount: 2
Fore
SplineSet
127 -431 m 1
 -2 -431 l 1
 315 -33 502 360 502 841 c 3
 502 1079 436 1248 337 1491 c 1
 466 1491 l 1
 586 1295 676 1074 676 791 c 3
 676 277 421 -121 127 -431 c 1
EndSplineSet
EndChar

StartChar: asterisk
Encoding: 42 42 14
Width: 797
Flags: W
HStem: 1197 142<785.331 917.12>
VStem: 584 145<1320.82 1491>
LayerCount: 2
Fore
SplineSet
275 1197 m 1
 346 1339 l 1
 445 1302 517 1269 560 1242 c 1
 568 1363 577 1446 584 1491 c 1
 729 1491 l 1
 715 1425 692 1342 662 1243 c 1
 737 1278 821 1310 915 1339 c 1
 936 1197 l 1
 846 1169 760 1150 677 1141 c 1
 712 1106 758 1043 816 952 c 1
 681 867 l 1
 651 920 619 991 582 1082 c 1
 516 988 460 916 414 867 c 1
 311 952 l 1
 405 1047 472 1110 510 1141 c 1
 427 1158 348 1176 275 1197 c 1
EndSplineSet
EndChar

StartChar: plus
Encoding: 43 43 15
Width: 1196
Flags: W
HStem: 638 170<256 620 830 1194>
DStem2: 550 237 730 237 0.173648 0.984808<31.2567 407.063 610.947 983.973>
LayerCount: 2
Fore
SplineSet
550 237 m 1
 620 638 l 1
 226 638 l 1
 256 808 l 1
 650 808 l 1
 721 1206 l 1
 901 1206 l 1
 830 808 l 1
 1224 808 l 1
 1194 638 l 1
 800 638 l 1
 730 237 l 1
 550 237 l 1
EndSplineSet
EndChar

StartChar: comma
Encoding: 44 44 16
Width: 569
Flags: W
HStem: -290 495
VStem: 132 291
LayerCount: 2
Fore
SplineSet
182 0 m 1
 218 205 l 1
 423 205 l 1
 387 0 l 1
 358 -157 290 -241 169 -290 c 1
 132 -213 l 1
 220 -176 259 -117 284 0 c 1
 182 0 l 1
EndSplineSet
EndChar

StartChar: hyphen
Encoding: 45 45 17
Width: 682
Flags: W
HStem: 446 170<174 697>
VStem: 144 583
LayerCount: 2
Fore
SplineSet
144 446 m 1
 174 616 l 1
 727 616 l 1
 697 446 l 1
 144 446 l 1
EndSplineSet
EndChar

StartChar: period
Encoding: 46 46 18
Width: 569
Flags: W
HStem: 0 205<222 391>
VStem: 186 241
LayerCount: 2
Fore
SplineSet
186 0 m 1
 222 205 l 1
 427 205 l 1
 391 0 l 1
 186 0 l 1
EndSplineSet
EndChar

StartChar: slash
Encoding: 47 47 19
Width: 595
Flags: W
HStem: -10 21G<-83 111.446> 1450 20G<753.541 947>
DStem2: -83 -10 100 -10 0.497149 0.867665<90.9782 1705.73>
LayerCount: 2
Fore
SplineSet
-83 -10 m 1
 765 1470 l 1
 947 1470 l 1
 100 -10 l 1
 -83 -10 l 1
EndSplineSet
EndChar

StartChar: zero
Encoding: 48 48 20
Width: 1139
Flags: W
HStem: -10 170<463.172 726.03> 1289 170<652.326 918.619>
VStem: 186 184<266.51 805.568> 1011 184<616.366 1183.34>
LayerCount: 2
Fore
SplineSet
820 1459 m 3
 1070 1459 1195 1308 1195 1005 c 3
 1195 473 978 -10 561 -10 c 3
 289 -10 186 172 186 447 c 3
 186 980 397 1459 820 1459 c 3
370 489 m 3
 370 295 431 160 591 160 c 3
 853 160 1011 549 1011 964 c 3
 1011 1177 936 1289 788 1289 c 3
 492 1289 370 743 370 489 c 3
EndSplineSet
EndChar

StartChar: one
Encoding: 49 49 21
Width: 1139
Flags: W
HStem: 0 21G<583 766.533> 1452 20G<802.5 1023>
VStem: 383 640
DStem2: 583 0 763 0 0.173648 0.984808<31.2567 1152.49 1389.92 1494.79>
LayerCount: 2
Fore
SplineSet
763 0 m 1
 583 0 l 1
 783 1135 l 1
 702 1033 533 937 383 907 c 1
 418 1104 l 1
 585 1175 762 1308 843 1472 c 1
 1023 1472 l 1
 763 0 l 1
EndSplineSet
EndChar

StartChar: two
Encoding: 50 50 22
Width: 1139
Flags: W
HStem: 0 170<339 1031> 1312 170<615.776 964.987>
VStem: 279 180<1039 1156.5> 1043 183<965.563 1236.08>
LayerCount: 2
Fore
SplineSet
1061 170 m 1
 1031 0 l 1
 62 0 l 1
 93 174 290 365 533 542 c 0
 782 723 1043 899 1043 1121 c 3
 1043 1244 939 1312 799 1312 c 3
 626 1312 493 1220 459 1039 c 1
 279 1039 l 1
 326 1304 556 1482 833 1482 c 3
 1065 1482 1226 1357 1226 1151 c 3
 1226 827 917 634 676 455 c 0
 557 366 433 295 339 170 c 1
 1061 170 l 1
EndSplineSet
EndChar

StartChar: three
Encoding: 51 51 23
Width: 1139
Flags: W
HStem: -11 170<424.305 757.519> 707 149<592.656 824.055> 1070 21G<293 498.5> 1312 170<615.932 934.094>
VStem: 155 182<245.218 427> 293 180<1070 1164.12> 949 184<335.037 626.983> 993 181<1003.76 1252.1>
LayerCount: 2
Fore
SplineSet
581 159 m 3xfa
 763 159 949 291 949 499 c 3xfa
 949 633 850 707 701 707 c 3
 658 707 611 701 562 688 c 1
 592 858 l 1
 606 857 620 856 634 856 c 3
 808 856 993 963 993 1144 c 3
 993 1251 906 1312 780 1312 c 3
 627 1312 524 1228 473 1070 c 1
 293 1070 l 1
 340 1301 561 1482 806 1482 c 3
 1014 1482 1174 1357 1174 1166 c 3xf5
 1174 986 1047 850 912 794 c 1
 1055 756 1133 672 1133 531 c 3
 1133 207 845 -11 550 -11 c 3
 316 -11 155 135 155 351 c 3
 155 375 157 401 161 427 c 1
 341 427 l 1
 338 409 337 392 337 376 c 3
 337 242 437 159 581 159 c 3xfa
EndSplineSet
EndChar

StartChar: four
Encoding: 52 52 24
Width: 1139
Flags: W
HStem: 0 21G<662 845.523> 352 170<343 724 934 1102> 1452 20G<905.074 1102>
DStem2: 118 522 343 522 0.646014 0.763325<145.353 932.875> 662 0 842 0 0.173648 0.984808<31.2567 357.418 561.302 1134.24>
LayerCount: 2
Fore
SplineSet
662 0 m 1
 724 352 l 1
 88 352 l 1
 118 522 l 1
 922 1472 l 1
 1102 1472 l 1
 934 522 l 1
 1132 522 l 1
 1102 352 l 1
 904 352 l 1
 842 0 l 1
 662 0 l 1
754 522 m 1
 859 1117 l 1
 343 522 l 1
 754 522 l 1
EndSplineSet
EndChar

StartChar: five
Encoding: 53 53 25
Width: 1139
Flags: W
HStem: -11 170<428.897 756.765> 816 170<543.019 870.832> 1280 170<645 1214>
VStem: 156 191<245.264 414> 971 185<382.168 716.867>
DStem2: 242 707 506 919 0.339302 0.940677<42.076 117.041 288.999 675.747>
LayerCount: 2
Fore
SplineSet
584 159 m 3
 789 159 971 325 971 569 c 3
 971 725 870 816 697 816 c 3
 598 816 508 772 427 685 c 1
 242 707 l 1
 510 1450 l 1
 1244 1450 l 1
 1214 1280 l 1
 645 1280 l 1
 506 919 l 1
 567 963 658 986 765 986 c 3
 1007 986 1156 840 1156 613 c 3
 1156 260 877 -11 554 -11 c 3
 296 -11 156 136 156 365 c 3
 156 381 157 397 158 414 c 1
 347 414 l 1
 347 248 416 159 584 159 c 3
EndSplineSet
EndChar

StartChar: six
Encoding: 54 54 26
Width: 1139
Flags: W
HStem: -11 170<478.015 772.638> 807 170<565.01 867.457> 1312 170<660.512 963.944>
VStem: 177 208<250.092 612.194> 957 184<362.94 716.816> 1033 180<1103 1169.01>
LayerCount: 2
Fore
SplineSet
1213 1103 m 1xf4
 1033 1103 l 1xf4
 1024 1235 967 1312 823 1312 c 3
 614 1312 478 1151 419 842 c 1
 510 934 615 977 766 977 c 3
 993 977 1141 814 1141 588 c 3xf8
 1141 254 881 -11 584 -11 c 3
 288 -11 177 174 177 451 c 3
 177 1046 453 1482 864 1482 c 3
 1064 1482 1219 1358 1219 1170 c 3
 1219 1149 1217 1126 1213 1103 c 1xf4
613 159 m 3
 813 159 957 335 957 560 c 3xf8
 957 706 877 807 720 807 c 3
 530 807 385 635 385 411 c 3
 385 267 462 159 613 159 c 3
EndSplineSet
EndChar

StartChar: seven
Encoding: 55 55 27
Width: 1139
Flags: W
HStem: 0 21G<331 554.5> 1280 170<353 1059>
VStem: 331 180<0 160.697>
LayerCount: 2
Fore
SplineSet
1272 1280 m 1
 966 977 598 491 511 0 c 1
 331 0 l 1
 412 462 783 1002 1059 1280 c 1
 323 1280 l 1
 353 1450 l 1
 1302 1450 l 1
 1272 1280 l 1
EndSplineSet
EndChar

StartChar: eight
Encoding: 56 56 28
Width: 1139
Flags: W
HStem: -11 170<433.456 779.458> 699 181<577.333 863.157> 1312 170<624.298 947.885>
VStem: 152 183<252.875 546.919> 331 183<943.553 1206.7> 950 184<319.18 617.96> 1007 182<999.163 1255.77>
LayerCount: 2
Fore
SplineSet
504 805 m 1xf4
 389 850 331 928 331 1038 c 3
 331 1320 579 1482 824 1482 c 3
 1040 1482 1189 1362 1189 1170 c 3xea
 1189 980 1076 862 915 805 c 1
 1054 752 1134 665 1134 519 c 3
 1134 181 866 -11 564 -11 c 3
 320 -11 152 127 152 352 c 3
 152 609 311 759 504 805 c 1xf4
796 1312 m 3
 651 1312 514 1235 514 1065 c 3
 514 952 595 880 722 880 c 3
 868 880 1007 981 1007 1143 c 3
 1007 1252 923 1312 796 1312 c 3
596 159 m 3
 789 159 950 279 950 490 c 3
 950 631 843 699 685 699 c 3
 502 699 335 593 335 386 c 3xf4
 335 246 444 159 596 159 c 3
EndSplineSet
EndChar

StartChar: nine
Encoding: 57 57 29
Width: 1139
Flags: W
HStem: -11 170<452.637 759.624> 495 170<551.959 857.041> 1312 170<646.578 946.525>
VStem: 203 180<305.984 369> 277 184<755.787 1111.62> 1033 207<865.292 1221.01>
LayerCount: 2
Fore
SplineSet
203 369 m 1xf4
 383 369 l 1xf4
 392 237 450 159 594 159 c 3
 808 159 939 321 998 630 c 1
 907 538 802 495 651 495 c 3
 432 495 277 658 277 886 c 3xec
 277 1222 539 1482 833 1482 c 3
 1122 1482 1240 1297 1240 1013 c 3
 1240 656 1087 -11 553 -11 c 3
 352 -11 197 116 197 305 c 3
 197 326 199 347 203 369 c 1xf4
1033 1065 m 3
 1033 1209 956 1312 806 1312 c 3
 609 1312 461 1143 461 913 c 3xec
 461 766 543 665 699 665 c 3
 896 665 1033 840 1033 1065 c 3
EndSplineSet
EndChar

StartChar: colon
Encoding: 58 58 30
Width: 569
Flags: W
HStem: 0 205<221 390> 857 205<372 541>
VStem: 185 392
DStem2: 185 0 390 0 0.173648 0.984808<35.5979 208.137 905.799 1078.34>
LayerCount: 2
Fore
SplineSet
336 857 m 1
 372 1062 l 1
 577 1062 l 1
 541 857 l 1
 336 857 l 1
185 0 m 1
 221 205 l 1
 426 205 l 1
 390 0 l 1
 185 0 l 1
EndSplineSet
EndChar

StartChar: semicolon
Encoding: 59 59 31
Width: 569
Flags: W
HStem: 857 205<369 538>
VStem: 132 442
DStem2: 130.865 -290 335.865 -290 0.173648 0.984808<315.948 502.611 1200.27 1372.81>
LayerCount: 2
Fore
SplineSet
333 857 m 1
 369 1062 l 1
 574 1062 l 1
 538 857 l 1
 333 857 l 1
182 0 m 1
 218 205 l 1
 423 205 l 1
 387 0 l 1
 362 -150 285 -245 169 -290 c 1
 132 -213 l 1
 218 -178 262 -110 284 0 c 1
 182 0 l 1
EndSplineSet
EndChar

StartChar: less
Encoding: 60 60 32
Width: 1196
Flags: W
DStem2: 441 724 225 641 0.907752 -0.419507<0 781.05> 255 809 441 724 0.930676 0.365846<142.009 1025.42>
LayerCount: 2
Fore
SplineSet
225 641 m 1
 255 809 l 1
 1298 1219 l 1
 1266 1040 l 1
 441 724 l 1
 1154 405 l 1
 1123 226 l 1
 225 641 l 1
EndSplineSet
EndChar

StartChar: equal
Encoding: 61 61 33
Width: 1196
Flags: W
HStem: 416 170<217 1155> 861 170<296 1234>
LayerCount: 2
Fore
SplineSet
1234 861 m 1
 266 861 l 1
 296 1031 l 1
 1264 1031 l 1
 1234 861 l 1
1155 416 m 1
 187 416 l 1
 217 586 l 1
 1185 586 l 1
 1155 416 l 1
EndSplineSet
EndChar

StartChar: greater
Encoding: 62 62 34
Width: 1196
Flags: W
DStem2: 183 405 152 226 0.929273 0.369395<0 885.416> 327 1219 295 1040 0.909846 -0.414946<45.1603 825.913>
LayerCount: 2
Fore
SplineSet
1196 641 m 1
 152 226 l 1
 183 405 l 1
 1009 724 l 1
 295 1040 l 1
 327 1219 l 1
 1226 809 l 1
 1196 641 l 1
EndSplineSet
EndChar

StartChar: question
Encoding: 63 63 35
Width: 1139
Flags: W
HStem: 0 205<497 666> 1334 170<631.295 966.242>
VStem: 274 185<1046 1144.93> 1055 186<990.363 1247.55>
DStem2: 461 0 666 0 0.173648 0.984808<35.5979 208.137 399.796 603>
LayerCount: 2
Fore
SplineSet
274 1046 m 1
 333 1302 545 1504 830 1504 c 3
 1073 1504 1241 1362 1241 1168 c 3
 1241 767 789 773 716 361 c 1
 536 361 l 1
 551 436 l 2
 625 803 1055 843 1055 1124 c 3
 1055 1228 978 1334 803 1334 c 3
 626 1334 516 1222 459 1046 c 1
 274 1046 l 1
461 0 m 1
 497 205 l 1
 702 205 l 1
 666 0 l 1
 461 0 l 1
EndSplineSet
EndChar

StartChar: at
Encoding: 64 64 36
Width: 2079
Flags: W
HStem: -431 148<749.679 1396.29> -11 148<810.665 1053.4 1301.74 1557.05> 947 148<1047.02 1306.36> 1042 20G<1524.97 1713> 1345 148<1046.29 1592.79>
VStem: 176 184<69.2581 594.998> 572 182<198.132 578.877> 1365 26<216 737> 1913 182<611.57 1047.22>
LayerCount: 2
Fore
SplineSet
1352 -11 m 3xdf80
 1206 -11 1182 36 1182 121 c 1
 1096 38 985 -11 852 -11 c 3
 674 -11 572 138 572 342 c 3
 572 750 936 1095 1204 1095 c 3xef80
 1346 1095 1436 1035 1478 938 c 1
 1534 1062 l 1
 1713 1062 l 1
 1447 379 l 2
 1422 313 1391 261 1391 216 c 3
 1391 168 1426 137 1446 137 c 3
 1657 137 1913 548 1913 838 c 3
 1913 1153 1675 1345 1330 1345 c 3
 799 1345 360 902 360 304 c 3
 360 -77 612 -283 1070 -283 c 3
 1505 -283 1735 -87 1827 19 c 1
 2008 19 l 1
 1828 -253 1468 -431 1047 -431 c 3
 520 -431 176 -191 176 275 c 3
 176 988 736 1493 1365 1493 c 3
 1797 1493 2095 1244 2095 858 c 3
 2095 425 1719 -11 1352 -11 c 3xdf80
754 361 m 3
 754 228 812 137 915 137 c 3
 1144 137 1365 464 1365 737 c 3
 1365 899 1267 947 1191 947 c 3
 942 947 754 598 754 361 c 3
EndSplineSet
EndChar

StartChar: A
Encoding: 65 65 37
Width: 1366
Flags: W
HStem: 0 21G<1 217.488 1154.56 1364> 477 170<578 1015> 1430 20G<824.483 1045.46>
DStem2: 1 0 206 0 0.499032 0.866583<102.302 652.397 848.621 1478.47> 1041 1450 892 1193 0.217429 -0.976076<218.455 778.136 952.331 1440.97>
LayerCount: 2
Fore
SplineSet
1364 0 m 1
 1159 0 l 1
 1053 477 l 1
 480 477 l 1
 206 0 l 1
 1 0 l 1
 836 1450 l 1
 1041 1450 l 1
 1364 0 l 1
892 1193 m 1
 578 647 l 1
 1015 647 l 1
 892 1193 l 1
EndSplineSet
EndChar

StartChar: B
Encoding: 66 66 38
Width: 1366
Flags: W
HStem: 0 170<374 994.178> 671 170<492 1056.8> 1280 170<570 1129.05>
VStem: 1156 182<306.333 588.211> 1197 186<963.688 1219.89>
DStem2: 164 0 344.024 0 0.173648 0.984808<203.883 712.553 885.18 1331.06>
LayerCount: 2
Fore
SplineSet
1117 772 m 1xe8
 1281 721 1338 609 1338 490 c 3xf0
 1338 153 1065 0 709 0 c 2
 164 0 l 1
 420 1450 l 1
 965 1450 l 2
 1222 1450 1383 1344 1383 1152 c 3
 1383 1012 1327 868 1117 772 c 1xe8
492 841 m 1
 831 841 l 2
 1049 841 1197 908 1197 1108 c 3xe8
 1197 1254 1058 1280 935 1280 c 2
 570 1280 l 1
 492 841 l 1
374 170 m 1
 739 170 l 2
 1057 170 1156 298 1156 470 c 3xf0
 1156 614 1032 671 801 671 c 2
 462 671 l 1
 374 170 l 1
EndSplineSet
EndChar

StartChar: C
Encoding: 67 67 39
Width: 1479
Flags: W
HStem: -11 170<617.773 1032.85> 1312 170<807.795 1218.57>
VStem: 216 187<392.963 855.293> 1294 188<398.191 479> 1371 188<1055 1173.99>
LayerCount: 2
Fore
SplineSet
816 159 m 3xe8
 1052 159 1245 299 1294 479 c 1
 1482 479 l 1xf0
 1326 116 1052 -11 789 -11 c 3
 438 -11 216 188 216 556 c 3
 216 1112 602 1482 1055 1482 c 3
 1402 1482 1535 1271 1559 1055 c 1
 1371 1055 l 1
 1345 1257 1166 1312 1021 1312 c 3
 674 1312 403 1014 403 620 c 3
 403 407 494 159 816 159 c 3xe8
EndSplineSet
EndChar

StartChar: D
Encoding: 68 68 40
Width: 1479
Flags: W
HStem: 0 170<378 934.698> 1280 170<574 1138.19>
VStem: 1344 187<601.793 1086.31>
DStem2: 168 0 348.024 0 0.173648 0.984808<203.883 1331.06>
LayerCount: 2
Fore
SplineSet
697 0 m 2
 168 0 l 1
 424 1450 l 1
 929 1450 l 2
 1387 1450 1531 1249 1531 955 c 3
 1531 471 1316 0 697 0 c 2
1344 885 m 3
 1344 1195 1128 1280 896 1280 c 2
 574 1280 l 1
 378 170 l 1
 705 170 l 2
 1172 170 1344 552 1344 885 c 3
EndSplineSet
EndChar

StartChar: E
Encoding: 69 69 41
Width: 1322
Flags: W
HStem: 0 170<378 1228> 651 170<493 1142> 1280 170<574 1454>
DStem2: 168 0 348.024 0 0.173648 0.984808<203.883 692.336 864.963 1331.06>
LayerCount: 2
Fore
SplineSet
168 0 m 1
 424 1450 l 1
 1484 1450 l 1
 1454 1280 l 1
 574 1280 l 1
 493 821 l 1
 1172 821 l 1
 1142 651 l 1
 463 651 l 1
 378 170 l 1
 1258 170 l 1
 1228 0 l 1
 168 0 l 1
EndSplineSet
EndChar

StartChar: F
Encoding: 70 70 42
Width: 1251
Flags: W
HStem: 0 21G<168 351.533> 651 170<493 1124> 1280 170<574 1383>
DStem2: 168 0 348 0 0.173648 0.984808<31.2567 692.336 864.963 1331.06>
LayerCount: 2
Fore
SplineSet
168 0 m 1
 424 1450 l 1
 1413 1450 l 1
 1383 1280 l 1
 574 1280 l 1
 493 821 l 1
 1154 821 l 1
 1124 651 l 1
 463 651 l 1
 348 0 l 1
 168 0 l 1
EndSplineSet
EndChar

StartChar: G
Encoding: 71 71 43
Width: 1479
Flags: W
HStem: -11 170<617.758 1019.47> 514 170<1026 1303> 1312 170<806.866 1227.55>
VStem: 216 187<387.586 866.381> 1371 188<1055 1174.61>
LayerCount: 2
Fore
SplineSet
403 618 m 3
 403 405 494 159 816 159 c 3
 1010 159 1265 297 1303 514 c 1
 996 514 l 1
 1026 684 l 1
 1525 684 l 1
 1438 192 1210 -11 789 -11 c 3
 476 -11 216 160 216 556 c 3
 216 1112 597 1482 1055 1482 c 3
 1402 1482 1535 1271 1559 1055 c 1
 1371 1055 l 1
 1355 1189 1262 1312 1021 1312 c 3
 674 1312 403 1016 403 618 c 3
EndSplineSet
EndChar

StartChar: H
Encoding: 72 72 44
Width: 1479
Flags: W
HStem: 0 21G<164 347.536 1134 1317.53> 673 170<493 1253> 1430 20G<416.469 600 1386.47 1570>
DStem2: 164 0 344 0 0.173648 0.984808<31.2567 714.696 887.323 1472.43> 1134 0 1314 0 0.173648 0.984808<31.2567 683.44 856.067 1472.43>
LayerCount: 2
Fore
SplineSet
164 0 m 1
 420 1450 l 1
 600 1450 l 1
 493 843 l 1
 1283 843 l 1
 1390 1450 l 1
 1570 1450 l 1
 1314 0 l 1
 1134 0 l 1
 1253 673 l 1
 463 673 l 1
 344 0 l 1
 164 0 l 1
EndSplineSet
EndChar

StartChar: I
Encoding: 73 73 45
Width: 650
Flags: W
HStem: 0 170<55 265 445 625> 1280 170<281 461 641 851>
DStem2: 235.024 0 415.024 0 0.173648 0.984808<203.879 1299.79>
LayerCount: 2
Fore
SplineSet
655 170 m 1
 625 0 l 1
 25 0 l 1
 55 170 l 1
 265 170 l 1
 461 1280 l 1
 251 1280 l 1
 281 1450 l 1
 881 1450 l 1
 851 1280 l 1
 641 1280 l 1
 445 170 l 1
 655 170 l 1
EndSplineSet
EndChar

StartChar: J
Encoding: 74 74 46
Width: 1024
Flags: W
HStem: -11 170<362.858 643.729> 1280 170<664 911>
VStem: 128 186<209.284 451.845>
DStem2: 683.295 -11 862.832 -11 0.173648 0.984808<253.051 1310.93>
LayerCount: 2
Fore
SplineSet
1121 1450 m 1
 945 455 l 2
 884 107 710 -11 461 -11 c 3
 201 -11 128 124 128 296 c 3
 128 346 134 400 144 454 c 1
 324 454 l 1
 317 416 314 382 314 352 c 3
 314 216 380 159 490 159 c 3
 644 159 730 255 757 407 c 2
 911 1280 l 1
 634 1280 l 1
 664 1450 l 1
 1121 1450 l 1
EndSplineSet
EndChar

StartChar: K
Encoding: 75 75 47
Width: 1366
Flags: W
HStem: 0 21G<150 333.525 1097.6 1346> 1430 20G<402.469 586 1302.14 1572>
DStem2: 150 0 330 0 0.173648 0.984808<31.2567 578.565 828.294 1472.43> 468 785 597 670 0.783062 0.621944<0 29.4915 235.45 1087.03>
LayerCount: 2
Fore
SplineSet
150 0 m 1
 406 1450 l 1
 586 1450 l 1
 468 785 l 1
 1328 1450 l 1
 1572 1450 l 1
 752 806 l 1
 1346 0 l 1
 1113 0 l 1
 597 670 l 1
 425 539 l 1
 330 0 l 1
 150 0 l 1
EndSplineSet
EndChar

StartChar: L
Encoding: 76 76 48
Width: 1139
Flags: W
HStem: 0 170<360 1060> 1430 20G<402.469 586>
DStem2: 150 0 330.024 0 0.173648 0.984808<203.883 1472.43>
LayerCount: 2
Fore
SplineSet
150 0 m 1
 406 1450 l 1
 586 1450 l 1
 360 170 l 1
 1090 170 l 1
 1060 0 l 1
 150 0 l 1
EndSplineSet
EndChar

StartChar: M
Encoding: 77 77 49
Width: 1706
Flags: W
HStem: 0 21G<152 335.527 701.768 1007.29 1370 1553.53> 1430 20G<404.469 592.343 1614.58 1806>
DStem2: 152 0 332 0 0.173648 0.984808<31.2567 1010.13> 588 1450 502 964 0.212214 -0.977223<456.68 1347.7> 874 133 996 0 0.495855 0.868405<0 1051.88> 1370 0 1550 0 0.173648 0.984808<31.2567 978.875>
LayerCount: 2
Fore
SplineSet
152 0 m 1
 408 1450 l 1
 588 1450 l 1
 874 133 l 1
 1626 1450 l 1
 1806 1450 l 1
 1550 0 l 1
 1370 0 l 1
 1540 964 l 1
 996 0 l 1
 706 0 l 1
 502 964 l 1
 332 0 l 1
 152 0 l 1
EndSplineSet
EndChar

StartChar: N
Encoding: 78 78 50
Width: 1479
Flags: W
HStem: 0 21G<156 339.521 1120.52 1314.53> 1430 20G<408.469 602.485 1383.48 1567>
DStem2: 156 0 336 0 0.173648 0.984808<31.2567 1184.73> 592 1450 536 1136 0.463978 -0.885847<252.173 1281.5> 1131.46 0 1311 0 0.173648 0.984808<319.859 1472.35>
LayerCount: 2
Fore
SplineSet
156 0 m 1
 412 1450 l 1
 592 1450 l 1
 1187 315 l 1
 1387 1450 l 1
 1567 1450 l 1
 1311 0 l 1
 1131 0 l 1
 536 1136 l 1
 336 0 l 1
 156 0 l 1
EndSplineSet
EndChar

StartChar: O
Encoding: 79 79 51
Width: 1593
Flags: W
HStem: -11 170<617.067 1046.73> 1312 170<812.881 1242.39>
VStem: 216 182<375.721 853.19> 1458 183<611.282 1089.31>
LayerCount: 2
Fore
SplineSet
798 -11 m 3
 424 -11 216 214 216 562 c 3
 216 1117 612 1482 1062 1482 c 3
 1436 1482 1641 1254 1641 906 c 3
 1641 351 1248 -11 798 -11 c 3
1033 1312 m 3
 668 1312 398 992 398 584 c 3
 398 327 550 159 827 159 c 3
 1192 159 1458 467 1458 875 c 3
 1458 1132 1310 1312 1033 1312 c 3
EndSplineSet
EndChar

StartChar: P
Encoding: 80 80 52
Width: 1366
Flags: W
HStem: 0 21G<158 341.517> 580 170<470 1100.12> 1280 170<564 1187.45>
VStem: 1282 186<908.037 1201.37>
DStem2: 158 0 338 0 0.173648 0.984808<31.2567 620.157 792.784 1331.06>
LayerCount: 2
Fore
SplineSet
158 0 m 1
 414 1450 l 1
 967 1450 l 2
 1364 1450 1468 1313 1468 1134 c 3
 1468 766 1234 580 830 580 c 2
 440 580 l 1
 338 0 l 1
 158 0 l 1
863 750 m 2
 1072 750 1282 820 1282 1080 c 3
 1282 1200 1204 1280 953 1280 c 2
 564 1280 l 1
 470 750 l 1
 863 750 l 2
EndSplineSet
EndChar

StartChar: Q
Encoding: 81 81 53
Width: 1659
Flags: W
HStem: -11 170<774.943 1061.84 1350.95 1555.87> 289 170<832.851 1062.95> 1312 170<797.938 1241.68>
VStem: 215 183<384.481 851.978> 1458 183<615.429 1091.97>
LayerCount: 2
Fore
SplineSet
976 459 m 3
 1156 459 1239 367 1255 346 c 1
 1406 499 1458 682 1458 878 c 3
 1458 1143 1310 1312 1033 1312 c 3
 612 1312 398 953 398 590 c 3
 398 421 469 294 582 222 c 1
 654 386 832 459 976 459 c 3
1349 184 m 1
 1363 165 1386 159 1418 159 c 3
 1457 159 1519 176 1570 212 c 1
 1675 93 l 1
 1589 24 1496 -11 1397 -11 c 3
 1311 -11 1217 15 1171 87 c 1
 1055 21 960 -11 818 -11 c 3
 430 -11 215 212 215 552 c 3
 215 1118 603 1482 1062 1482 c 3
 1432 1482 1641 1254 1641 905 c 3
 1641 542 1437 245 1349 184 c 1
1088 218 m 1
 1056 265 1014 289 959 289 c 3
 821 289 767 166 767 166 c 1
 783 161 804 159 831 159 c 3
 951 159 1048 189 1088 218 c 1
EndSplineSet
EndChar

StartChar: R
Encoding: 82 82 54
Width: 1400
Flags: W
HStem: 0 21G<158 341.517 1096.41 1387> 580 170<470 800> 1280 170<564 1185.45>
VStem: 1283 185<909.749 1198.84>
DStem2: 158 0 338 0 0.173648 0.984808<31.2567 620.157 792.784 1331.06>
LayerCount: 2
Fore
SplineSet
800 580 m 1
 440 580 l 1
 338 0 l 1
 158 0 l 1
 414 1450 l 1
 967 1450 l 2
 1359 1450 1468 1315 1468 1132 c 3
 1468 840 1287 634 1029 596 c 1
 1387 0 l 1
 1107 0 l 1
 800 580 l 1
863 750 m 2
 1069 750 1283 822 1283 1080 c 3
 1283 1190 1214 1280 953 1280 c 2
 564 1280 l 1
 470 750 l 1
 863 750 l 2
EndSplineSet
EndChar

StartChar: S
Encoding: 83 83 55
Width: 1366
Flags: W
HStem: -11 170<516.494 963.602> 1312 170<667.034 1085.99>
VStem: 174 189<302.139 502> 331 185<955.188 1177.93> 1155 187<309.905 552.877> 1211 188<1024 1196.01>
LayerCount: 2
Fore
SplineSet
715 -11 m 3xd8
 275 -11 174 210 174 406 c 3
 174 439 176 472 181 502 c 1
 364 502 l 1
 363 492 363 483 363 474 c 3
 363 262 504 159 736 159 c 3
 928 159 1155 245 1155 449 c 3xe8
 1155 618 914 626 756 666 c 0
 534 722 331 792 331 1004 c 3
 331 1312 622 1482 925 1482 c 3
 1205 1482 1399 1345 1399 1082 c 3
 1399 1063 1398 1044 1396 1024 c 1
 1210 1024 l 1
 1210 1031 1211 1038 1211 1045 c 3xd4
 1211 1205 1102 1312 903 1312 c 3
 613 1312 516 1171 516 1053 c 3
 516 905 722 875 841 846 c 0
 1011 805 1342 783 1342 503 c 3
 1342 176 1025 -11 715 -11 c 3xd8
EndSplineSet
EndChar

StartChar: T
Encoding: 84 84 56
Width: 1251
Flags: W
HStem: 0 21G<538 721.531> 1280 170<304 764 944 1436>
DStem2: 538 0 718 0 0.173648 0.984808<31.2567 1299.8>
LayerCount: 2
Fore
SplineSet
538 0 m 1
 764 1280 l 1
 274 1280 l 1
 304 1450 l 1
 1466 1450 l 1
 1436 1280 l 1
 944 1280 l 1
 718 0 l 1
 538 0 l 1
EndSplineSet
EndChar

StartChar: U
Encoding: 85 85 57
Width: 1479
Flags: W
HStem: -11 170<555.399 995.589> 1430 20G<413.471 597 1386.47 1570>
VStem: 246 183<274.086 732.156>
DStem2: 159.259 -11 339.083 -11 0.173648 0.984808<492.837 1483.56> 1132.08 -11 1312.26 -11 0.173648 0.984808<339.995 1483.59>
LayerCount: 2
Fore
SplineSet
766 159 m 3
 1084 159 1193 336 1234 567 c 2
 1390 1450 l 1
 1570 1450 l 1
 1414 566 l 2
 1346 181 1118 -11 736 -11 c 3
 411 -11 246 128 246 407 c 3
 246 456 251 509 261 566 c 2
 417 1450 l 1
 597 1450 l 1
 441 567 l 2
 433 523 429 480 429 440 c 3
 429 274 509 159 766 159 c 3
EndSplineSet
EndChar

StartChar: V
Encoding: 86 86 58
Width: 1366
Flags: W
HStem: 0 21G<572.697 787.448> 1430 20G<265 479.287 1396.35 1606>
DStem2: 475 1450 265 1450 0.210358 -0.977624<0 1197.6> 726 279 776 0 0.496783 0.867875<0 1355.09>
LayerCount: 2
Fore
SplineSet
577 0 m 1
 265 1450 l 1
 475 1450 l 1
 726 279 l 1
 1408 1450 l 1
 1606 1450 l 1
 776 0 l 1
 577 0 l 1
EndSplineSet
EndChar

StartChar: W
Encoding: 87 87 59
Width: 1933
Flags: W
HStem: 0 21G<412.166 621.487 1307.56 1516.9> 1430 20G<281 481.925 1080.42 1346.53 1945.02 2153>
DStem2: 480 1450 281 1450 0.0913407 -0.99582<0 1064.89> 582 390 612 0 0.428584 0.903502<0 955.453> 1344 1450 1167 1170 0.121319 -0.992613<256.458 1068.43> 1478 390 1508 0 0.406431 0.913682<0 1161.96>
LayerCount: 2
Fore
SplineSet
414 0 m 1
 281 1450 l 1
 480 1450 l 1
 582 390 l 1
 1090 1450 l 1
 1344 1450 l 1
 1478 390 l 1
 1954 1450 l 1
 2153 1450 l 1
 1508 0 l 1
 1310 0 l 1
 1167 1170 l 1
 612 0 l 1
 414 0 l 1
EndSplineSet
EndChar

StartChar: X
Encoding: 88 88 60
Width: 1366
Flags: W
HStem: 0 21G<9 256.945 1112.1 1353> 1430 20G<332 572.146 1320.79 1569>
DStem2: 9 0 239 0 0.675955 0.736943<155.47 978.991 1226.44 1967.59> 562 1450 332 1450 0.478895 -0.877872<0 614.207 843.488 1541.57>
LayerCount: 2
Fore
SplineSet
9 0 m 1
 697 756 l 1
 332 1450 l 1
 562 1450 l 1
 840 902 l 1
 1339 1450 l 1
 1569 1450 l 1
 931 756 l 1
 1353 0 l 1
 1123 0 l 1
 789 613 l 1
 239 0 l 1
 9 0 l 1
EndSplineSet
EndChar

StartChar: Y
Encoding: 89 89 61
Width: 1366
Flags: W
HStem: 0 21G<585 768.51> 1431 20G<262 502.44 1358.64 1606>
DStem2: 492 1451 262 1451 0.461689 -0.887042<0 717.439> 585 0 765 0 0.173648 0.984808<31.2567 630.493> 824 815 874 621 0.661442 0.749996<0 842.114>
LayerCount: 2
Fore
SplineSet
585 0 m 1
 694 621 l 1
 262 1451 l 1
 492 1451 l 1
 824 815 l 1
 1376 1451 l 1
 1606 1451 l 1
 874 621 l 1
 765 0 l 1
 585 0 l 1
EndSplineSet
EndChar

StartChar: Z
Encoding: 90 90 62
Width: 1251
Flags: W
HStem: 0 170<355 1200> 1280 170<301 1171>
LayerCount: 2
Fore
SplineSet
41 0 m 1
 72 177 l 1
 1171 1280 l 1
 271 1280 l 1
 301 1450 l 1
 1469 1450 l 1
 1439 1280 l 1
 355 170 l 1
 1230 170 l 1
 1200 0 l 1
 41 0 l 1
EndSplineSet
EndChar

StartChar: bracketleft
Encoding: 91 91 63
Width: 569
Flags: W
HStem: -407 148<273 464> 1318 148<551 768>
DStem2: 67 -407 246.904 -407 0.173648 0.984808<181.523 1782.84>
LayerCount: 2
Fore
SplineSet
67 -407 m 1
 397 1466 l 1
 794 1466 l 1
 768 1318 l 1
 551 1318 l 1
 273 -259 l 1
 490 -259 l 1
 464 -407 l 1
 67 -407 l 1
EndSplineSet
EndChar

StartChar: backslash
Encoding: 92 92 64
Width: 569
Flags: W
VStem: 263 302
DStem2: 408 1491 263 1491 0.10366 -0.994613<0 1509.18>
LayerCount: 2
Fore
SplineSet
421 -25 m 1
 263 1491 l 1
 408 1491 l 1
 565 -25 l 1
 421 -25 l 1
EndSplineSet
EndChar

StartChar: bracketright
Encoding: 93 93 65
Width: 569
Flags: W
HStem: -407 148<-7 210> 1318 148<297 488>
DStem2: 183.904 -407 364 -407 0.173648 0.984808<150.283 1751.6>
LayerCount: 2
Fore
SplineSet
364 -407 m 1
 -33 -407 l 1
 -7 -259 l 1
 210 -259 l 1
 488 1318 l 1
 271 1318 l 1
 297 1466 l 1
 694 1466 l 1
 364 -407 l 1
EndSplineSet
EndChar

StartChar: asciicircum
Encoding: 94 94 66
Width: 961
Flags: W
DStem2: 176 690 361 690 0.524927 0.851147<97.1115 739.916> 815 1491 697 1238 0.258113 -0.966115<213.97 782.376>
LayerCount: 2
Fore
SplineSet
361 690 m 1
 176 690 l 1
 670 1491 l 1
 815 1491 l 1
 1029 690 l 1
 848 690 l 1
 697 1238 l 1
 361 690 l 1
EndSplineSet
EndChar

StartChar: underscore
Encoding: 95 95 67
Width: 1139
Flags: W
HStem: -407 148<-77 1090>
LayerCount: 2
Fore
SplineSet
-103 -407 m 1
 -77 -259 l 1
 1116 -259 l 1
 1090 -407 l 1
 -103 -407 l 1
EndSplineSet
EndChar

StartChar: grave
Encoding: 96 96 68
Width: 682
Flags: W
HStem: 1194 280<531 590>
VStem: 349 327
LayerCount: 2
Fore
SplineSet
676 1194 m 1
 531 1194 l 1
 349 1474 l 1
 590 1474 l 1
 676 1194 l 1
EndSplineSet
EndChar

StartChar: a
Encoding: 97 97 69
Width: 1139
Flags: W
HStem: 0 137<349.805 696.261> 947 148<532.97 897.399>
VStem: 121 184<181.55 377.919> 852 178<1.57034 129.685> 946 188<683.875 897.503>
DStem2: 813.421 -11 993.303 -11 0.173648 0.984808<289.315 558.415 687.023 799.68>
LayerCount: 2
Fore
SplineSet
1076 458 m 2xe8
 1046 284 1030 188 1030 119 c 3
 1030 72 1037 38 1052 0 c 1
 866 0 l 1
 857 29 852 62 852 98 c 3xf0
 852 109 852 120 853 131 c 1
 745 62 614 -11 435 -11 c 3
 188 -11 121 121 121 237 c 3
 121 403 229 545 437 598 c 0
 561 629 773 634 936 687 c 1
 942 719 946 750 946 779 c 3
 946 876 900 947 725 947 c 3
 556 947 475 892 412 744 c 1
 240 768 l 1
 322 999 514 1095 777 1095 c 3
 1066 1095 1134 994 1134 850 c 3
 1134 802 1127 749 1117 694 c 2
 1076 458 l 2xe8
305 276 m 3
 305 222 343 137 498 137 c 3
 719 137 860 254 897 463 c 1
 910 539 l 1
 672 447 305 493 305 276 c 3
EndSplineSet
EndChar

StartChar: b
Encoding: 98 98 70
Width: 1139
Flags: W
HStem: -11 148<484.102 756.49> 947 148<622.771 886.128> 1446 20G<388.48 572>
VStem: 982 183<416.078 847.097>
DStem2: 132.06 -11 299.06 -11 0.173648 0.984808<40.1689 161.008 1008.15 1499.7>
LayerCount: 2
Fore
SplineSet
594 -11 m 3
 417 -11 344 82 322 119 c 1
 301 0 l 1
 134 0 l 1
 392 1466 l 1
 572 1466 l 1
 482 951 l 1
 575 1046 680 1095 798 1095 c 3
 1037 1095 1165 929 1165 688 c 3
 1165 298 919 -11 594 -11 c 3
605 137 m 3
 831 137 982 383 982 666 c 3
 982 883 857 947 756 947 c 3
 559 947 396 682 396 416 c 3
 396 204 514 137 605 137 c 3
EndSplineSet
EndChar

StartChar: c
Encoding: 99 99 71
Width: 1024
Flags: W
HStem: -11 148<450.243 748.207> 947 148<575.34 866.927>
VStem: 162 182<246.9 668.73> 899 177<286.135 402> 953 180<705 860.056>
LayerCount: 2
Fore
SplineSet
585 137 m 3xe8
 707 137 859 202 899 402 c 1
 1076 402 l 1xf0
 1021 136 827 -11 561 -11 c 3
 340 -11 162 133 162 405 c 3
 162 812 424 1095 757 1095 c 3
 1073 1095 1133 905 1133 776 c 3
 1133 749 1130 724 1127 705 c 1
 952 705 l 1
 952 711 953 717 953 723 c 3
 953 837 874 947 738 947 c 3
 512 947 344 728 344 424 c 3
 344 206 482 137 585 137 c 3xe8
EndSplineSet
EndChar

StartChar: d
Encoding: 100 100 72
Width: 1139
Flags: W
HStem: -11 148<432.013 688.081> 947 148<548.646 825.871> 1446 20G<1060.48 1249>
VStem: 152 182<240.056 675.099>
DStem2: 816.06 -11 989.06 -11 0.173648 0.984808<41.2108 135.137 989.93 1497.62>
LayerCount: 2
Fore
SplineSet
707 1095 m 3
 883 1095 943 1022 976 966 c 1
 1064 1466 l 1
 1249 1466 l 1
 991 0 l 1
 818 0 l 1
 840 122 l 1
 764 34 658 -11 520 -11 c 3
 280 -11 152 157 152 398 c 3
 152 786 389 1095 707 1095 c 3
706 947 m 3
 444 947 334 657 334 418 c 3
 334 199 464 137 563 137 c 3
 711 137 916 362 916 655 c 3
 916 839 831 947 706 947 c 3
EndSplineSet
EndChar

StartChar: e
Encoding: 101 101 73
Width: 1139
Flags: W
HStem: -11 148<447.374 780.841> 490 148<383 976.876> 947 148<580.813 893.792>
VStem: 155 191<235.942 485.518> 977 180<639.294 861.625>
LayerCount: 2
Fore
SplineSet
353 490 m 1
 348 458 346 429 346 402 c 3
 346 200 476 137 606 137 c 3
 756 137 863 214 921 333 c 1
 1107 333 l 1
 1030 124 834 -11 579 -11 c 3
 304 -11 155 134 155 388 c 3
 155 801 416 1095 764 1095 c 3
 1020 1095 1157 952 1157 678 c 3
 1157 621 1151 558 1139 490 c 1
 353 490 l 1
974 638 m 1
 976 656 977 675 977 695 c 3
 977 811 937 947 740 947 c 3
 570 947 423 806 383 638 c 1
 974 638 l 1
EndSplineSet
EndChar

StartChar: f
Encoding: 102 102 74
Width: 569
Flags: W
HStem: 0 21G<177 360.523> 914 148<206 338 544 697> 1367 148<632.503 880.93>
DStem2: 177 0 357 0 0.173648 0.984808<31.2567 928.072 1109.59 1384.34>
LayerCount: 2
Fore
SplineSet
734 1367 m 3
 656 1367 589 1308 562 1160 c 2
 544 1062 l 1
 723 1062 l 1
 697 914 l 1
 518 914 l 1
 357 0 l 1
 177 0 l 1
 338 914 l 1
 180 914 l 1
 206 1062 l 1
 364 1062 l 1
 384 1175 l 2
 432 1447 622 1515 754 1515 c 3
 805 1515 854 1506 902 1488 c 1
 876 1340 l 1
 820 1360 780 1367 734 1367 c 3
EndSplineSet
EndChar

StartChar: g
Encoding: 103 103 75
Width: 1139
Flags: W
HStem: -428 148<320.336 646.432> -11 148<416.629 710.997> 947 148<556.056 833.68> 1042 20G<1005.59 1189>
VStem: 78 182<-221.495 -74> 149 181<231.584 659.111>
DStem2: 746.962 -428 926.081 -428 0.173648 0.984808<294.959 564.577 1423.6 1512.87>
LayerCount: 2
Fore
SplineSet
1025 133 m 2xd4
 949 -296 784 -428 447 -428 c 3
 228 -428 78 -333 78 -145 c 3
 78 -123 80 -99 84 -74 c 1
 264 -74 l 1
 261 -88 260 -101 260 -114 c 3xd8
 260 -231 363 -280 472 -280 c 3
 711 -280 803 -113 845 128 c 1
 750 35 640 -11 523 -11 c 3
 280 -11 149 158 149 401 c 3
 149 789 400 1095 719 1095 c 3xe4
 860 1095 955 1049 994 974 c 1
 1009 1062 l 1
 1189 1062 l 1
 1025 133 l 2xd4
703 947 m 3xe4
 480 947 330 692 330 414 c 3
 330 252 396 137 563 137 c 3
 775 137 929 368 929 664 c 3
 929 883 800 947 703 947 c 3xe4
EndSplineSet
EndChar

StartChar: h
Encoding: 104 104 76
Width: 1139
Flags: W
HStem: 0 21G<135 318.518 820 1003.54> 947 148<598.188 902.623> 1446 20G<389.48 573>
VStem: 949 179<612.43 899.072>
DStem2: 135 0 315 0 0.173648 0.984808<31.2567 871.353 1016.21 1488.53> 820 0 1000 0 0.173648 0.984808<31.2567 778.607>
LayerCount: 2
Fore
SplineSet
763 947 m 3
 573 947 459 821 420 597 c 2
 315 0 l 1
 135 0 l 1
 393 1466 l 1
 573 1466 l 1
 486 970 l 1
 567 1057 688 1095 793 1095 c 3
 1056 1095 1128 934 1128 775 c 3
 1128 740 1125 706 1119 673 c 2
 1000 0 l 1
 820 0 l 1
 941 689 l 2
 946 718 949 745 949 769 c 3
 949 888 887 947 763 947 c 3
EndSplineSet
EndChar

StartChar: i
Encoding: 105 105 77
Width: 455
Flags: W
HStem: 0 21G<136 319.522> 1042 20G<319.478 503> 1259 207<394 538>
VStem: 136 438
DStem2: 136 0 316 0 0.173648 0.984808<31.2567 1078.34 1309.68 1488.53>
LayerCount: 2
Fore
SplineSet
358 1259 m 1
 394 1466 l 1
 574 1466 l 1
 538 1259 l 1
 358 1259 l 1
136 0 m 1
 323 1062 l 1
 503 1062 l 1
 316 0 l 1
 136 0 l 1
EndSplineSet
EndChar

StartChar: j
Encoding: 106 106 78
Width: 455
Flags: W
HStem: -428 148<-144.964 53.007> 1042 20G<317.47 501> 1257 209<392 536>
DStem2: 58.0537 -428 238.759 -428 0.173648 0.984808<181.021 1513.02 1742.4 1923.21>
LayerCount: 2
Fore
SplineSet
356 1257 m 1
 392 1466 l 1
 572 1466 l 1
 536 1257 l 1
 356 1257 l 1
304 -58 m 2
 255 -336 129 -428 -36 -428 c 3
 -76 -428 -120 -423 -167 -412 c 1
 -142 -272 l 1
 -108 -277 -79 -280 -56 -280 c 3
 41 -280 94 -223 124 -54 c 2
 321 1062 l 1
 501 1062 l 1
 304 -58 l 2
EndSplineSet
EndChar

StartChar: k
Encoding: 107 107 79
Width: 1024
Flags: W
HStem: 0 21G<136 319.515 784.608 1016> 1042 20G<905.759 1162> 1446 20G<390.48 574>
DStem2: 136 0 316 0 0.173648 0.984808<31.2567 458.711 670.961 1488.53> 427 630 539 543 0.769364 0.638811<0 30.5922 224.309 662.187> 687 668 539 543 0.441834 -0.897097<46.7457 646.537>
LayerCount: 2
Fore
SplineSet
136 0 m 1
 394 1466 l 1
 574 1466 l 1
 427 630 l 1
 929 1062 l 1
 1162 1062 l 1
 687 668 l 1
 1016 0 l 1
 794 0 l 1
 539 543 l 1
 390 421 l 1
 316 0 l 1
 136 0 l 1
EndSplineSet
EndChar

StartChar: l
Encoding: 108 108 80
Width: 455
Flags: W
HStem: 0 21G<131 314.52> 1446 20G<385.48 569>
VStem: 131 438
DStem2: 131 0 311 0 0.173648 0.984808<31.2567 1488.53>
LayerCount: 2
Fore
SplineSet
131 0 m 1
 389 1466 l 1
 569 1466 l 1
 311 0 l 1
 131 0 l 1
EndSplineSet
EndChar

StartChar: m
Encoding: 109 109 81
Width: 1706
Flags: W
HStem: 0 21G<135 318.521 764 947.533 1393 1576.53> 947 148<627.006 864.986 1251.52 1492.74> 1042 20G<318.478 502>
VStem: 1525 188<660.634 917.133>
DStem2: 135 0 315 0 0.173648 0.984808<31.2567 873.361 984.817 1078.34> 764 0 944 0 0.173648 0.984808<31.2567 802.891> 1393 0 1573 0 0.173648 0.984808<31.2567 802.484>
LayerCount: 2
Fore
SplineSet
889 707 m 2xd0
 895 739 897 768 897 793 c 3
 897 909 838 947 745 947 c 0xd0
 544 947 454 791 415 568 c 2
 315 0 l 1
 135 0 l 1
 322 1062 l 1
 502 1062 l 1xb0
 481 939 l 1
 518 972 618 1095 811 1095 c 3
 986 1095 1057 1013 1076 909 c 1
 1182 1033 1303 1095 1438 1095 c 3
 1606 1095 1713 1021 1713 840 c 3
 1713 809 1710 774 1703 736 c 2
 1573 0 l 1
 1393 0 l 1
 1514 686 l 2
 1521 727 1525 763 1525 793 c 3
 1525 902 1477 947 1372 947 c 3
 1282 947 1105 910 1056 634 c 2
 944 0 l 1
 764 0 l 1
 889 707 l 2xd0
EndSplineSet
EndChar

StartChar: n
Encoding: 110 110 82
Width: 1139
Flags: W
HStem: 0 21G<135 318.518 820 1003.54> 947 148<598.188 902.623> 1044 20G<319.466 503>
VStem: 949 179<612.43 899.072>
DStem2: 135 0 315 0 0.173648 0.984808<31.2567 871.353 1016.21 1080.48> 820 0 1000 0 0.173648 0.984808<31.2567 778.607>
LayerCount: 2
Fore
SplineSet
763 947 m 3xd0
 573 947 459 821 420 597 c 2
 315 0 l 1
 135 0 l 1
 323 1064 l 1
 503 1064 l 1xb0
 486 970 l 1
 567 1057 688 1095 793 1095 c 3
 1056 1095 1128 934 1128 775 c 3
 1128 740 1125 706 1119 673 c 2
 1000 0 l 1
 820 0 l 1
 941 689 l 2
 946 718 949 745 949 769 c 3
 949 888 887 947 763 947 c 3xd0
EndSplineSet
EndChar

StartChar: o
Encoding: 111 111 83
Width: 1139
Flags: W
HStem: -11 148<435.217 760.443> 947 148<571.253 878.498>
VStem: 149 183<247.512 660.667> 990 182<416.54 835.958>
LayerCount: 2
Fore
SplineSet
564 -11 m 3
 292 -11 149 137 149 391 c 3
 149 806 404 1095 759 1095 c 3
 1023 1095 1172 936 1172 683 c 3
 1172 189 836 -11 564 -11 c 3
733 947 m 3
 499 947 332 716 332 418 c 3
 332 189 482 137 590 137 c 3
 824 137 990 359 990 657 c 3
 990 884 842 947 733 947 c 3
EndSplineSet
EndChar

StartChar: p
Encoding: 112 112 84
Width: 1139
Flags: W
HStem: -11 148<479.481 735.318> 947 148<609.936 874.641> 1042 20G<305.474 489>
VStem: 970 181<420.187 842.911>
DStem2: 53 -390 233 -390 0.173648 0.984808<31.2567 562.287 1414.24 1474.39>
LayerCount: 2
Fore
SplineSet
591 -11 m 3xd0
 473 -11 384 38 325 133 c 1
 233 -390 l 1
 53 -390 l 1
 309 1062 l 1
 489 1062 l 1xb0
 473 972 l 1
 507 999 600 1095 777 1095 c 3
 1026 1095 1151 927 1151 682 c 3
 1151 294 909 -11 591 -11 c 3xd0
733 947 m 3xd0
 615 947 388 781 388 435 c 3
 388 271 460 137 598 137 c 3
 734 137 970 302 970 659 c 3
 970 813 906 947 733 947 c 3xd0
EndSplineSet
EndChar

StartChar: q
Encoding: 113 113 85
Width: 1139
Flags: W
HStem: -11 148<447.762 714.101> 947 148<578.227 851.547> 1042 20G<1011.44 1195>
VStem: 168 183<239.9 669.134>
DStem2: 759 -390 939 -390 0.173648 0.984808<31.2567 531.03 1382.98 1474.39>
LayerCount: 2
Fore
SplineSet
739 1095 m 3xd0
 916 1095 975 999 999 972 c 1
 1015 1062 l 1
 1195 1062 l 1xb0
 939 -390 l 1
 759 -390 l 1
 851 133 l 1
 758 38 653 -11 535 -11 c 3
 296 -11 168 155 168 396 c 3
 168 786 414 1095 739 1095 c 3xd0
580 137 m 3
 778 137 936 405 936 671 c 3
 936 881 822 947 731 947 c 3xd0
 486 947 351 680 351 420 c 3
 351 201 479 137 580 137 c 3
EndSplineSet
EndChar

StartChar: r
Encoding: 114 114 86
Width: 682
Flags: W
HStem: 0 21G<133 316.513> 947 148<582.107 832.82> 1042 20G<316.478 500>
DStem2: 133 0 313 0 0.173648 0.984808<31.2567 880.018 1018.18 1078.34>
LayerCount: 2
Fore
SplineSet
685 947 m 3xc0
 562 947 457 821 414 575 c 2
 313 0 l 1
 133 0 l 1
 320 1062 l 1
 500 1062 l 1xa0
 484 972 l 1
 521 1008 609 1095 726 1095 c 3
 791 1095 847 1079 894 1046 c 1
 808 908 l 1
 769 934 728 947 685 947 c 3xc0
EndSplineSet
EndChar

StartChar: s
Encoding: 115 115 87
Width: 1024
Flags: W
HStem: -11 148<375.677 715.153> 947 148<498.379 815.695>
VStem: 123 181<209.556 358> 225 184<691.72 865.762> 821 187<227.177 411.134> 865 180<769 895.072>
LayerCount: 2
Fore
SplineSet
540 137 m 0xe8
 681 137 821 216 821 330 c 3xe8
 821 419 719 446 600 470 c 0
 404 509 225 541 225 724 c 3
 225 976 451 1095 677 1095 c 3
 981 1095 1045 928 1045 816 c 3
 1045 799 1043 783 1041 769 c 1
 865 769 l 1
 865 880 814 947 666 947 c 3
 542 947 409 883 409 763 c 3xd4
 409 688 495 666 630 639 c 0
 816 603 1008 574 1008 385 c 3
 1008 137 774 -11 515 -11 c 3
 266 -11 123 100 123 305 c 3
 123 322 124 340 126 358 c 1
 304 358 l 1
 304 217 373 137 540 137 c 0xe8
EndSplineSet
EndChar

StartChar: t
Encoding: 116 116 88
Width: 569
Flags: W
HStem: -11 148<394.198 552.465> 914 148<205 328 534 658>
VStem: 206 183<144.491 470.867>
DStem2: 164.87 -11 345.044 -11 0.173648 0.984808<262.552 939.274 1120.8 1466.37>
LayerCount: 2
Fore
SplineSet
399 295 m 2
 394 265 389 238 389 215 c 3
 389 167 408 137 473 137 c 3
 490 137 517 140 554 145 c 1
 555 4 l 1
 505 -6 456 -11 409 -11 c 3
 255 -11 206 50 206 168 c 3
 206 209 212 258 222 313 c 2
 328 914 l 1
 179 914 l 1
 205 1062 l 1
 354 1062 l 1
 420 1433 l 1
 600 1433 l 1
 534 1062 l 1
 684 1062 l 1
 658 914 l 1
 508 914 l 1
 399 295 l 2
EndSplineSet
EndChar

StartChar: u
Encoding: 117 117 89
Width: 1139
Flags: W
HStem: -11 148<410.539 732.354> 1042 20G<287.467 471 972.478 1156>
VStem: 167 181<197.625 609.625>
DStem2: 101.59 -11 282.059 -11 0.173648 0.984808<378.594 1089.59> 787.06 -11 967.06 -11 0.173648 0.984808<42.4264 75.1227 228.92 1089.51>
LayerCount: 2
Fore
SplineSet
354 397 m 2
 350 372 348 350 348 329 c 3
 348 177 459 137 558 137 c 0
 728 137 828 222 858 392 c 2
 976 1062 l 1
 1156 1062 l 1
 969 0 l 1
 789 0 l 1
 800 63 l 1
 749 15 660 -11 539 -11 c 3
 291 -11 167 120 167 316 c 3
 167 346 170 378 176 411 c 2
 291 1062 l 1
 471 1062 l 1
 354 397 l 2
EndSplineSet
EndChar

StartChar: v
Encoding: 118 118 90
Width: 1024
Flags: W
HStem: 0 21G<424.932 610.073> 1042 20G<213 407.136 986.155 1187>
DStem2: 403 1062 213 1062 0.199309 -0.979937<0 809.776> 567 269 599 0 0.484383 0.874856<0 902.046>
LayerCount: 2
Fore
SplineSet
429 0 m 1
 213 1062 l 1
 403 1062 l 1
 567 269 l 1
 997 1062 l 1
 1187 1062 l 1
 599 0 l 1
 429 0 l 1
EndSplineSet
EndChar

StartChar: w
Encoding: 119 119 91
Width: 1479
Flags: W
HStem: 0 21G<328.401 527.935 972.962 1172.17> 1042 20G<193 381.157 825.98 1021.28 1466.1 1650>
DStem2: 379 1062 193 1062 0.12886 -0.991663<0 820.536> 467 246 519 0 0.411108 0.911587<0 691.948> 1019 1062 884 817 0.110699 -0.993854<228.55 821.28> 1112 246 1163 0 0.416832 0.908984<0 893.041>
LayerCount: 2
Fore
SplineSet
331 0 m 1
 193 1062 l 1
 379 1062 l 1
 467 246 l 1
 835 1062 l 1
 1019 1062 l 1
 1112 246 l 1
 1475 1062 l 1
 1650 1062 l 1
 1163 0 l 1
 975 0 l 1
 948 265 l 1
 908 623 886 807 884 817 c 1
 519 0 l 1
 331 0 l 1
EndSplineSet
EndChar

StartChar: x
Encoding: 120 120 92
Width: 1024
Flags: W
HStem: 0 21G<15 249.516 778.024 1009> 1042 20G<231 464.967 934.957 1168>
DStem2: 15 0 233 0 0.661995 0.749508<144.315 144.315 921.328 1416.93> 706 562 579 419 0.464474 -0.885587<67.6506 535.787>
LayerCount: 2
Fore
SplineSet
15 0 m 1
 493 552 l 1
 231 1062 l 1
 456 1062 l 1
 621 694 l 1
 953 1062 l 1
 1168 1062 l 1
 706 562 l 1
 1009 0 l 1
 788 0 l 1
 579 419 l 1
 233 0 l 1
 15 0 l 1
EndSplineSet
EndChar

StartChar: y
Encoding: 121 121 93
Width: 1024
Flags: W
HStem: -428 148<60 309.805> 1042 20G<220 417.391 1002.48 1193>
VStem: 220 194<991.382 1062>
DStem2: 560 201 602 -1 0.485922 0.874002<0 972.639>
LayerCount: 2
Fore
SplineSet
54 -415 m 1
 60 -266 l 1
 92 -275 128 -280 165 -280 c 3
 363 -280 412 -111 436 -2 c 1
 220 1062 l 1
 414 1062 l 1
 560 201 l 1
 1013 1062 l 1
 1193 1062 l 1
 602 -1 l 1
 551 -181 457 -428 164 -428 c 3
 122 -428 82 -427 54 -415 c 1
EndSplineSet
EndChar

StartChar: z
Encoding: 122 122 94
Width: 1024
Flags: W
HStem: 0 148<288 980> 914 148<247 877>
DStem2: 66 148 288 148 0.731174 0.682191<162.321 1115.54>
LayerCount: 2
Fore
SplineSet
40 0 m 1
 66 148 l 1
 877 914 l 1
 221 914 l 1
 247 1062 l 1
 1135 1062 l 1
 1109 914 l 1
 288 148 l 1
 1006 148 l 1
 980 0 l 1
 40 0 l 1
EndSplineSet
EndChar

StartChar: braceleft
Encoding: 123 123 95
Width: 684
Flags: W
HStem: -431 148<442.447 560> 456 148<164 252.59> 1343 148<709.624 873>
VStem: 242 183<-270.784 127.6> 302 178<-55.7335 408.932>
CounterMasks: 1 e0
LayerCount: 2
Fore
SplineSet
242 -207 m 3xf0
 242 -88 302 161 302 279 c 3
 302 386 262 439 137 456 c 1
 164 604 l 1
 362 626 398 757 440 998 c 0
 499 1335 543 1491 843 1491 c 2
 899 1491 l 1
 873 1343 l 1
 842 1343 l 2
 698 1343 676 1330 613 975 c 0
 562 685 504 620 328 530 c 1
 436 477 480 407 480 278 c 3xe8
 480 170 425 -93 425 -172 c 3
 425 -268 463 -283 555 -283 c 2
 586 -283 l 1
 560 -431 l 1
 504 -431 l 2
 301 -431 242 -353 242 -207 c 3xf0
EndSplineSet
EndChar

StartChar: bar
Encoding: 124 124 96
Width: 532
Flags: W
VStem: 100 519
DStem2: 100 -431 280 -431 0.173648 0.984808<31.2567 1951.67>
LayerCount: 2
Fore
SplineSet
100 -431 m 1
 439 1491 l 1
 619 1491 l 1
 280 -431 l 1
 100 -431 l 1
EndSplineSet
EndChar

StartChar: braceright
Encoding: 125 125 97
Width: 684
Flags: W
HStem: -431 148<-2 161.513> 456 148<623.254 707> 1343 148<311 436.297>
VStem: 393 178<649.854 1126.5> 449 181<940.441 1331.87>
CounterMasks: 1 e0
LayerCount: 2
Fore
SplineSet
630 1271 m 3xe8
 630 1157 571 914 571 788 c 3
 571 680 609 618 734 604 c 1
 707 456 l 1
 502 430 476 315 429 49 c 0
 374 -262 328 -431 28 -431 c 2
 -28 -431 l 1
 -2 -283 l 1
 29 -283 l 2
 173 -283 196 -248 254 80 c 0
 301 344 362 454 542 530 c 1
 439 594 393 646 393 775 c 3xf0
 393 880 449 1165 449 1238 c 3
 449 1338 409 1343 316 1343 c 2
 285 1343 l 1
 311 1491 l 1
 367 1491 l 2
 569 1491 630 1420 630 1271 c 3xe8
EndSplineSet
EndChar

StartChar: asciitilde
Encoding: 126 126 98
Width: 1196
Flags: W
HStem: 568 170<824.958 1122.5> 702 170<326.64 637.537>
LayerCount: 2
Fore
SplineSet
472 702 m 3x40
 370 702 294 654 187 566 c 1
 220 752 l 1
 305 832 404 872 519 872 c 3x40
 713 872 846 738 982 738 c 3
 1085 738 1199 816 1264 875 c 1
 1230 682 l 1
 1131 603 1044 568 933 568 c 3x80
 735 568 634 702 472 702 c 3x40
EndSplineSet
EndChar

StartChar: exclamdown
Encoding: 161 161 100
Width: 569
Flags: W
HStem: 0 21G<198 381.548> 1065 20G<428.11 525> 1256 194<454 599>
VStem: 433 92<1026.36 1085>
DStem2: 198 0 378 0 0.173648 0.984808<31.2567 458.04 1306.55 1472.43>
LayerCount: 2
Fore
SplineSet
278 451 m 1
 433 1085 l 1
 525 1085 l 1
 458 451 l 1
 378 0 l 1
 198 0 l 1
 278 451 l 1
419 1256 m 1
 454 1450 l 1
 634 1450 l 1
 599 1256 l 1
 419 1256 l 1
EndSplineSet
EndChar

StartChar: cent
Encoding: 162 162 101
Width: 1118
Flags: W
HStem: 3 150<475.626 525 731 876> 1455 20G<780.474 964>
VStem: 199 181<255.472 678.982>
DStem2: 460 -361 640 -361 0.173648 0.984808<31.2567 372.712 553.25 1342.38 1529 1864.37>
LayerCount: 2
Back
SplineSet
784 1475 m 1
 964 1475 l 1
 640 -361 l 1
 460 -361 l 1
 784 1475 l 1
640 148 m 3
 746 148 849 159 1015 281 c 1
 1025 281 l 1
 990 83 l 1
 808 5 720 0 614 0 c 3
 328 0 199 172 199 414 c 3
 199 825 465 1119 811 1119 c 3
 956 1119 1081 1081 1158 1037 c 1
 1123 837 l 1
 1113 837 l 1
 989 958 883 971 785 971 c 3
 639 971 380 834 380 434 c 3
 380 245 478 148 640 148 c 3
EndSplineSet
Fore
SplineSet
784 1475 m 1
 964 1475 l 1
 900 1114 l 1
 1006 1102 1097 1072 1158 1037 c 1
 1123 837 l 1
 1113 837 l 1
 1026 922 947 954 874 965 c 1
 731 153 l 1
 810 163 897 194 1015 281 c 1
 1025 281 l 1
 990 83 l 1
 861 28 779 9 705 3 c 1
 640 -361 l 1
 460 -361 l 1
 525 6 l 1
 301 38 199 198 199 415 c 3
 199 792 425 1067 720 1112 c 1
 784 1475 l 1
693 961 m 1
 562 930 380 755 380 434 c 3
 380 282 444 190 552 159 c 1
 693 961 l 1
EndSplineSet
EndChar

StartChar: sterling
Encoding: 163 163 102
Width: 1118
Flags: W
HStem: 0 206<125 217.493> 0 170<291 1031> 597 170<265 396 606 952> 1264 206<1141.98 1224> 1348 170<807.626 1150.66>
DStem2: 290.733 0 470.668 0 0.173648 0.984808<389.724 606.21 810.093 1299.92>
LayerCount: 2
Fore
SplineSet
568 552 m 2x28
 529 330 360 217 293 181 c 1
 291 170 l 1
 1061 170 l 1
 1031 0 l 1
 89 0 l 1x68
 125 206 l 1
 298 255 361 398 396 597 c 1
 235 597 l 1
 265 767 l 1
 426 767 l 1
 480 1071 l 2
 527 1340 727 1518 976 1518 c 3xa8
 1057 1518 1105 1516 1260 1470 c 1
 1224 1264 l 1
 1214 1264 l 1x30
 1137 1325 1044 1348 965 1348 c 3
 791 1348 688 1232 656 1052 c 2
 606 767 l 1
 982 767 l 1
 952 597 l 1
 576 597 l 1
 568 552 l 2x28
EndSplineSet
EndChar

StartChar: currency
Encoding: 164 164 103
Width: 1118
Flags: W
HStem: 326 170<549.318 762.104> 826 170<593.371 804.345>
VStem: 338 181<526.219 751.336> 836 182<570.578 795.364>
DStem2: 113 273 199 164 0.761417 0.648263<0 341.812 1020.7 1364.18> 376 1157 250 1051 0.636318 -0.771427<1.59515 285.895 864.019 1146.59>
LayerCount: 2
Fore
SplineSet
338 612 m 3
 338 710 380 778 425 835 c 1
 250 1051 l 1
 376 1157 l 1
 552 944 l 1
 618 982 684 996 736 996 c 3
 806 996 864 971 903 945 c 1
 1152 1157 l 1
 1242 1052 l 1
 990 836 l 1
 1008 796 1018 760 1018 717 c 3
 1018 623 990 560 929 486 c 1
 1105 272 l 1
 980 166 l 1
 804 378 l 1
 734 340 688 326 617 326 c 3
 547 326 488 353 452 379 c 1
 199 164 l 1
 113 273 l 1
 363 486 l 1
 345 527 338 573 338 612 c 3
706 826 m 3
 621 826 519 746 519 629 c 3
 519 551 574 496 647 496 c 3
 733 496 836 575 836 692 c 3
 836 771 780 826 706 826 c 3
EndSplineSet
EndChar

StartChar: yen
Encoding: 165 165 104
Width: 1118
Flags: W
HStem: 0 21G<469 652.538> 424 170<230 544 752 1068>
DStem2: 529 1489 319 1489 0.306602 -0.951838<0 616.983> 469 0 649 0 0.173648 0.984808<31.2567 430.582 634.118 667.509> 719 902 767 678 0.564757 0.825257<0 711.458>
LayerCount: 2
Fore
SplineSet
1322 1489 m 1
 767 678 l 1
 752 594 l 1
 1098 594 l 1
 1068 424 l 1
 724 424 l 1
 649 0 l 1
 469 0 l 1
 544 424 l 1
 200 424 l 1
 230 594 l 1
 576 594 l 1
 587 657 l 1
 319 1489 l 1
 529 1489 l 1
 719 902 l 1
 1121 1489 l 1
 1322 1489 l 1
EndSplineSet
EndChar

StartChar: brokenbar
Encoding: 166 166 105
Width: 783
Flags: W
VStem: 233 523
DStem2: 233 -392 413 -392 0.173648 0.984808<31.2567 810.361 1199.04 1977.97>
LayerCount: 2
Fore
SplineSet
616 758 m 1
 436 758 l 1
 576 1556 l 1
 756 1556 l 1
 616 758 l 1
413 -392 m 1
 233 -392 l 1
 374 406 l 1
 554 406 l 1
 413 -392 l 1
EndSplineSet
EndChar

StartChar: section
Encoding: 167 167 106
Width: 1118
Flags: W
HStem: -385 170<245.575 676.96> -327 194<149 263.765> 1268 194<1058.46 1170> 1349 170<637.618 1077.07>
VStem: 207 190<427.23 646.808> 344 187<1038.18 1253.19> 786 187<-120.77 95.4388> 920 190<481.898 703.384>
DStem2: 557 369 494 192 0.95095 -0.309345<-164.785 210.787>
LayerCount: 2
Fore
SplineSet
723 315 m 1x09
 765 338 920 435 920 601 c 3
 920 718 819 744 688 788 c 2
 594 819 l 1
 437 731 397 616 397 533 c 3
 397 433 468 398 557 369 c 2
 723 315 l 1x09
845 1349 m 3x14
 695 1349 531 1296 531 1136 c 3
 531 1029 628 994 823 942 c 0
 997 895 1110 824 1110 669 c 3x15
 1110 539 1061 393 848 277 c 1
 847 270 l 1
 904 237 973 179 973 57 c 3
 973 -150 819 -385 422 -385 c 3x92
 300 -385 199 -360 114 -327 c 1
 149 -133 l 1
 159 -133 l 1x42
 217 -160 332 -215 471 -215 c 3
 588 -215 786 -176 786 -0 c 3
 786 86 719 125 621 154 c 2
 494 192 l 2
 348 236 207 294 207 466 c 3x8a
 207 580 254 740 469 858 c 1
 471 865 l 1
 418 897 344 957 344 1082 c 3
 344 1296 519 1519 896 1519 c 3x94
 1023 1519 1112 1497 1204 1462 c 1
 1170 1268 l 1
 1160 1268 l 1x24
 1003 1348 898 1349 845 1349 c 3x14
EndSplineSet
EndChar

StartChar: dieresis
Encoding: 168 168 107
Width: 1118
Flags: W
HStem: 1304 195<517 684 930 1097>
VStem: 483 648
LayerCount: 2
Fore
SplineSet
1097 1304 m 1
 896 1304 l 1
 930 1499 l 1
 1131 1499 l 1
 1097 1304 l 1
684 1304 m 1
 483 1304 l 1
 517 1499 l 1
 718 1499 l 1
 684 1304 l 1
EndSplineSet
EndChar

StartChar: copyright
Encoding: 169 169 108
Width: 1902
Flags: W
HStem: -210 110<691.965 1186.25> 180 148<896.19 1219.92> 889 181<1360.26 1431> 995 148<1011.4 1319.6> 1409 110<946.204 1440.47>
VStem: 188 117<291.029 779.002> 635 183<405.563 780.822> 1827 117<530.636 1018.61>
LayerCount: 2
Fore
SplineSet
914 -210 m 3xcf
 491 -210 188 102 188 506 c 3
 188 1078 717 1519 1219 1519 c 3
 1643 1519 1944 1207 1944 803 c 3
 1944 231 1415 -210 914 -210 c 3xcf
1827 786 m 3
 1827 1139 1566 1409 1199 1409 c 3
 764 1409 305 1024 305 524 c 3
 305 172 565 -100 933 -100 c 3
 1369 -100 1827 287 1827 786 c 3
1044 328 m 3
 1182 328 1314 427 1335 434 c 1
 1351 434 l 1
 1319 255 l 1
 1170 194 1108 180 1014 180 c 3
 837 180 635 254 635 533 c 3
 635 916 890 1143 1184 1143 c 3xdf
 1301 1143 1397 1106 1463 1070 c 1
 1431 889 l 1
 1415 889 l 1xef
 1367 926 1270 995 1161 995 c 3xdf
 1035 995 818 886 818 560 c 3
 818 363 950 328 1044 328 c 3
EndSplineSet
EndChar

StartChar: ordfeminine
Encoding: 170 170 109
Width: 1010
Flags: W
HStem: 541 148<465.299 692.391> 1031 148<571.368 876> 1371 148<506.825 878.217>
VStem: 256 185<714.66 935.424> 908 185<1179 1340.29>
DStem2: 789.592 541 969.592 541 0.173648 0.984808<56.6423 117.782 223.238 497.56 639.963 708.109>
LayerCount: 2
Fore
SplineSet
751 1519 m 3
 1003 1519 1093 1425 1093 1276 c 3
 1093 1250 1090 1223 1085 1194 c 2
 974 566 l 1
 794 566 l 1
 810 657 l 1
 704 586 632 541 499 541 c 3
 353 541 256 635 256 778 c 3
 256 1109 524 1161 902 1179 c 1
 906 1202 908 1222 908 1240 c 3
 908 1338 848 1371 724 1371 c 3
 667 1371 608 1361 434 1304 c 1
 419 1304 l 1
 449 1474 l 1
 483 1484 633 1519 751 1519 c 3
876 1031 m 1
 664 1015 441 1014 441 812 c 3
 441 748 473 689 582 689 c 3
 616 689 695 702 835 802 c 1
 876 1031 l 1
EndSplineSet
EndChar

StartChar: guillemotleft
Encoding: 171 171 110
Width: 1174
Flags: W
DStem2: 397 652 210 608 0.695743 -0.718291<0 405.29> 226 697 397 652 0.797389 0.603466<109.198 592.016> 841 652 663 610 0.70285 -0.711338<0 383.262> 678 695 841 652 0.801883 0.597481<105.015 560.815>
LayerCount: 2
Fore
SplineSet
1077 191 m 1
 663 610 l 1
 678 695 l 1
 1239 1113 l 1
 1206 925 l 1
 841 652 l 1
 1110 379 l 1
 1077 191 l 1
642 162 m 1
 210 608 l 1
 226 697 l 1
 814 1142 l 1
 780 946 l 1
 397 652 l 1
 676 358 l 1
 642 162 l 1
EndSplineSet
EndChar

StartChar: logicalnot
Encoding: 172 172 111
Width: 1490
Flags: W
HStem: 592 170<291 1247>
DStem2: 1153 57 1333 57 0.173648 0.984808<31.2567 543.195>
LayerCount: 2
Fore
SplineSet
1333 57 m 1
 1153 57 l 1
 1247 592 l 1
 261 592 l 1
 291 762 l 1
 1457 762 l 1
 1333 57 l 1
EndSplineSet
EndChar

StartChar: registered
Encoding: 174 174 113
Width: 1902
Flags: W
HStem: -210 110<692.465 1186.75> 570 148<957 1039> 982 148<1003 1251.97> 1409 110<946.704 1440.97>
VStem: 188 118<291.029 779.002> 1274 188<766.498 954.818> 1828 116<530.636 1018.61>
DStem2: 613.061 -210 793.061 -210 0.173648 0.984808<462.813 823.36 973.626 1241.6> 1210 615 1039 570 0.567925 -0.82308<0 357.06>
LayerCount: 2
Fore
SplineSet
914 -210 m 3
 491 -210 188 102 188 506 c 3
 188 1078 717 1519 1219 1519 c 3
 1643 1519 1944 1207 1944 803 c 3
 1944 231 1415 -210 914 -210 c 3
1828 786 m 3
 1828 1139 1567 1409 1200 1409 c 3
 765 1409 306 1024 306 524 c 3
 306 172 566 -100 934 -100 c 3
 1370 -100 1828 287 1828 786 c 3
1210 615 m 1
 1486 215 l 1
 1259 215 l 1
 1039 570 l 1
 931 570 l 1
 868 215 l 1
 688 215 l 1
 849 1130 l 1
 1128 1130 l 2
 1356 1130 1462 1068 1462 934 c 3
 1462 784 1386 681 1210 615 c 1
1040 718 m 2
 1207 718 1274 768 1274 878 c 3
 1274 963 1189 982 1103 982 c 2
 1003 982 l 1
 957 718 l 1
 1040 718 l 2
EndSplineSet
EndChar

StartChar: macron
Encoding: 175 175 114
Width: 1118
Flags: W
HStem: 1650 148<301 1425>
LayerCount: 2
Fore
SplineSet
1425 1650 m 1
 275 1650 l 1
 301 1798 l 1
 1451 1798 l 1
 1425 1650 l 1
EndSplineSet
EndChar

StartChar: degree
Encoding: 176 176 115
Width: 964
Flags: W
HStem: 755 170<537.005 772.468> 1345 170<592.055 828.17>
VStem: 295 183<982.715 1227.58> 886 184<1043.73 1288.27>
LayerCount: 2
Fore
SplineSet
749 1515 m 3
 938 1515 1070 1389 1070 1207 c 3
 1070 943 842 755 615 755 c 3
 427 755 295 880 295 1063 c 3
 295 1328 521 1515 749 1515 c 3
719 1345 m 3
 604 1345 478 1232 478 1100 c 3
 478 999 558 925 645 925 c 3
 763 925 886 1043 886 1170 c 3
 886 1269 811 1345 719 1345 c 3
EndSplineSet
EndChar

StartChar: plusminus
Encoding: 177 177 116
Width: 1490
Flags: W
HStem: 159 170<220 713 893 1356> 733 170<321 784 994 1457>
DStem2: 683.024 159 863.024 159 0.173648 0.984808<203.879 582.814 786.697 1262.14>
LayerCount: 2
Fore
SplineSet
1356 159 m 1
 190 159 l 1
 220 329 l 1
 713 329 l 1
 784 733 l 1
 291 733 l 1
 321 903 l 1
 814 903 l 1
 902 1402 l 1
 1082 1402 l 1
 994 903 l 1
 1487 903 l 1
 1457 733 l 1
 964 733 l 1
 893 329 l 1
 1386 329 l 1
 1356 159 l 1
EndSplineSet
EndChar

StartChar: uni00B2
Encoding: 178 178 117
Width: 1010
Flags: W
HStem: 566 148<513 919> 1370 148<651.187 847.1>
VStem: 420 180<1210 1315.32> 860 181<1130.36 1356.47>
LayerCount: 2
Fore
SplineSet
758 1370 m 3
 684 1370 622 1334 600 1210 c 1
 420 1210 l 1
 453 1397 595 1518 786 1518 c 3
 935 1518 1041 1438 1041 1292 c 3
 1041 1069 849 966 694 851 c 0
 627 801 566 754 513 714 c 1
 945 714 l 1
 919 566 l 1
 285 566 l 1
 309 702 427 813 587 931 c 0
 750 1051 860 1126 860 1271 c 3
 860 1328 831 1370 758 1370 c 3
EndSplineSet
EndChar

StartChar: uni00B3
Encoding: 179 179 118
Width: 1010
Flags: W
HStem: 559 148<536.88 720.47> 1003 128<604.656 754.25> 1370 148<645.363 802.868>
VStem: 330 183<728.652 863.227> 787 183<774.908 984.864> 813 182<1188.65 1359.61>
LayerCount: 2
Fore
SplineSet
646 1131 m 3xf8
 712 1131 813 1196 813 1285 c 3
 813 1335 774 1370 730 1370 c 3
 672 1370 621 1316 592 1230 c 1
 412 1230 l 1
 441 1395 585 1518 753 1518 c 3
 888 1518 995 1435 995 1308 c 3xf4
 995 1201 930 1125 857 1079 c 1
 930 1049 970 995 970 914 c 3
 970 702 779 559 589 559 c 3
 432 559 330 655 330 802 c 3
 330 822 332 843 336 864 c 1
 516 864 l 1
 514 852 513 840 513 829 c 3
 513 756 557 707 615 707 c 3
 693 707 787 786 787 891 c 3
 787 961 742 1003 682 1003 c 3
 650 1003 610 995 578 986 c 1
 604 1134 l 1
 618 1133 632 1131 646 1131 c 3xf8
EndSplineSet
EndChar

StartChar: acute
Encoding: 180 180 119
Width: 1118
Flags: W
HStem: 1194 374
VStem: 660 487
LayerCount: 2
Fore
SplineSet
1147 1568 m 1
 809 1194 l 1
 660 1194 l 1
 904 1568 l 1
 1147 1568 l 1
EndSplineSet
EndChar

StartChar: mu
Encoding: 181 181 120
Width: 1163
Flags: W
HStem: -17 148<463.109 744.507> 0 21G<847 1030.53>
DStem2: 63 -412 243 -412 0.173648 0.984808<31.2567 566.4 690.742 1552.66> 774.353 -412 954.353 -412 0.173648 0.984808<449.612 536.066 644.252 1552.59>
LayerCount: 2
Fore
SplineSet
601 131 m 3x80
 713 131 812 199 895 275 c 1
 1044 1117 l 1
 1224 1117 l 1
 1027 0 l 1
 847 0 l 1x40
 867 116 l 1
 737 0 658 -17 575 -17 c 3
 473 -17 412 11 336 115 c 1
 243 -412 l 1
 63 -412 l 1
 333 1117 l 1
 513 1117 l 1
 364 275 l 1
 415 199 497 131 601 131 c 3x80
EndSplineSet
EndChar

StartChar: paragraph
Encoding: 182 182 121
Width: 1118
Flags: W
HStem: 1341 148<891 1038>
DStem2: 411 -363 591 -363 0.173648 0.984808<31.2567 970.823> 738 -363 918 -363 0.173648 0.984808<31.2567 1730.21>
LayerCount: 2
Fore
SplineSet
783 1489 m 2
 1245 1489 l 1
 918 -363 l 1
 738 -363 l 1
 1038 1341 l 1
 891 1341 l 1
 591 -363 l 1
 411 -363 l 1
 580 593 l 1
 375 598 233 734 233 952 c 3
 233 1304 493 1489 783 1489 c 2
EndSplineSet
EndChar

StartChar: periodcentered
Encoding: 183 183 122
Width: 724
Flags: W
HStem: 832 285<440 629>
VStem: 390 289
LayerCount: 2
Fore
SplineSet
629 832 m 1
 390 832 l 1
 440 1117 l 1
 679 1117 l 1
 629 832 l 1
EndSplineSet
EndChar

StartChar: cedilla
Encoding: 184 184 123
Width: 1118
Flags: W
HStem: -423 148<246.034 531.126> -399 158<247 389.332>
VStem: 603 178<-189.834 20>
LayerCount: 2
Fore
SplineSet
584 -107 m 0xa0
 593 -56 590 -69 603 20 c 1
 781 20 l 1
 778 -12 772 -61 767 -89 c 0
 720 -355 516 -423 391 -423 c 3xa0
 356 -423 283 -419 219 -399 c 1
 247 -241 l 1
 256 -241 l 1x60
 297 -261 342 -275 392 -275 c 3
 513 -275 563 -227 584 -107 c 0xa0
EndSplineSet
EndChar

StartChar: uni0E01
Encoding: 3585 3585 124
Width: 1376
VWidth: 2045
Flags: W
HStem: 0 21G<241 424.548 998 1181.52> 744 178<553 643> 1101 178<653.339 996.46>
VStem: 1135 182<534.75 963.356>
DStem2: 241 0 421 0 0.173648 0.984808<31.2567 755.445> 998 0 1178 0 0.173648 0.984808<31.2567 817.605>
LayerCount: 2
Fore
SplineSet
232 744 m 1
 372 744 l 1
1129 744 m 2
 1133 766 1135 787 1135 807 c 0
 1135 972 1018 1101 833 1101 c 0
 678 1101 575 1024 491 922 c 9
 675 922 l 1
 643 744 l 1
 553 744 l 1
 421 0 l 1
 241 0 l 1
 372 744 l 1
 232 744 l 1
 288 1058 584 1279 865 1279 c 0
 1133 1279 1317 1087 1317 837 c 0
 1317 807 1315 776 1309 744 c 2
 1178 0 l 1
 998 0 l 1
 1129 744 l 2
EndSplineSet
EndChar

StartChar: uni0E02
Encoding: 3586 3586 125
Width: 1352
VWidth: 2045
Flags: W
HStem: 0 178<413 501 682 1004> 689 133<389.201 541.992> 1091 178<643.593 750.481> 1234 20G<1190.47 1374>
VStem: 249 134<827.788 975.611> 565 139<843.782 993.877> 791 183<800.236 1050.28>
DStem2: 469.614 0 650.614 0 0.173648 0.984808<212.176 674.574> 972.614 0 1153 0 0.173648 0.984808<180.746 1273.39>
LayerCount: 2
Fore
SplineSet
249 876 m 0xee
 249 1088 464 1269 673 1269 c 0xee
 846 1269 974 1149 974 973 c 0
 974 951 972 928 968 904 c 0
 921 637 772 688 737 489 c 2
 682 178 l 1
 1004 178 l 1
 1194 1254 l 1
 1374 1254 l 1xde
 1153 0 l 1
 382 0 l 1
 413 178 l 1
 501 178 l 1
 556 489 l 2
 607 776 791 733 791 937 c 0
 791 1038 720 1091 641 1091 c 1
 657 1075 704 1033 704 952 c 0
 704 809 571 689 434 689 c 0
 350 689 249 735 249 876 c 0xee
459 822 m 0
 523 822 565 880 565 927 c 0
 565 967 536 1000 490 1000 c 0
 434 1000 383 951 383 897 c 0
 383 857 410 822 459 822 c 0
EndSplineSet
EndChar

StartChar: uni0E03
Encoding: 3587 3587 126
Width: 1376
VWidth: 2045
Flags: W
HStem: 0 178<464 555 735 1057> 586 133<328.574 480.665> 897 132<404.518 497.938> 1238 16G<400.5 563.602 783.244 860 1243.47 1427>
VStem: 177 145<726.333 871.764> 505 139<742.082 891.189> 844 185<809.306 1056.69>
DStem2: 523.614 0 703.614 0 0.173648 0.984808<212.003 643.762> 1025.61 0 1206 0 0.173648 0.984808<180.746 1273.39>
LayerCount: 2
Fore
SplineSet
644 854 m 0
 644 717 521 586 374 586 c 0
 278 586 177 652 177 803 c 0
 177 943 268 1213 533 1258 c 1
 660 1175 l 1
 823 1257 l 1
 897 1236 1029 1166 1029 986 c 0
 1029 964 1027 939 1022 913 c 0
 978 665 814 624 783 449 c 2
 735 178 l 1
 1057 178 l 1
 1247 1254 l 1
 1427 1254 l 1
 1206 0 l 1
 433 0 l 1
 464 178 l 1
 555 178 l 1
 602 444 l 2
 650 719 844 763 844 940 c 0
 844 1034 781 1082 747 1100 c 1
 635 1042 l 1
 539 1103 l 1
 478 1099 433 1070 403 1015 c 1
 428 1024 453 1029 471 1029 c 0
 535 1029 644 975 644 854 c 0
398 719 m 0
 455 719 505 772 505 823 c 0
 505 863 476 897 429 897 c 0
 370 897 322 845 322 793 c 0
 322 749 357 719 398 719 c 0
EndSplineSet
EndChar

StartChar: uni0E04
Encoding: 3588 3588 127
Width: 1407
VWidth: 2045
Flags: W
HStem: 0 21G<161 351.758 1040 1223.52> 463 133<721.229 874.735> 774 133<736.808 892.368> 1101 178<702.652 1051.72>
VStem: 898 138<618.283 767.067> 1178 182<667.814 972.623>
DStem2: 161 0 341.459 0 0.173648 0.984808<368.458 974.95> 400 332 341 0 0.473702 0.880685<0 279.197> 1040 0 1220 0 0.173648 0.984808<31.2567 827.443>
LayerCount: 2
Fore
SplineSet
1036 724 m 0
 1036 583 901 463 770 463 c 0
 705 463 658 484 625 528 c 1
 341 0 l 1
 161 0 l 1
 292 744 l 2
 357 1110 675 1279 917 1279 c 0
 1169 1279 1360 1108 1360 846 c 0
 1360 813 1357 779 1351 744 c 2
 1220 0 l 1
 1040 0 l 1
 1171 743 l 2
 1176 769 1178 793 1178 817 c 0
 1178 993 1054 1101 885 1101 c 0
 675 1101 507 942 472 744 c 2
 400 332 l 1
 619 779 l 2
 640 820 728 907 846 907 c 0
 963 907 1036 827 1036 724 c 0
791 596 m 0
 845 596 898 644 898 700 c 0
 898 741 869 774 822 774 c 0
 766 774 715 724 715 669 c 0
 715 625 751 596 791 596 c 0
EndSplineSet
EndChar

StartChar: uni0E05
Encoding: 3589 3589 128
Width: 1426
VWidth: 2045
Flags: W
HStem: 0 21G<166 357.636 1066 1249.52> 429 134<731.836 883.438> 742 134<748.643 901.075> 1234 20G<597.5 721.733 1125.6 1233.5>
VStem: 907 139<584.539 735.824> 1223 177<748.2 1039.88>
DStem2: 166 0 343.633 0 0.173648 0.984808<349.69 1052.15> 399 314 346 0 0.502894 0.864348<0 274.627> 902 1104 870 927 0.864507 0.50262<0 203.673> 1066 0 1246 0 0.173648 0.984808<31.2567 942.775>
LayerCount: 2
Fore
SplineSet
1046 692 m 0
 1046 548 912 429 777 429 c 1
 714 430 667 452 634 495 c 1
 346 0 l 1
 166 0 l 1
 311 825 l 2
 353 1060 501 1218 694 1254 c 1
 902 1104 l 1
 1160 1254 l 1
 1307 1227 1400 1101 1400 925 c 0
 1400 893 1397 860 1391 825 c 2
 1246 0 l 1
 1066 0 l 1
 1211 823 l 2
 1219 867 1223 902 1223 931 c 0
 1223 1010 1193 1041 1129 1075 c 1
 870 927 l 1
 674 1072 l 1
 656 1070 527 1038 489 825 c 2
 399 314 l 1
 629 746 l 2
 657 799 740 876 858 876 c 0
 963 876 1046 801 1046 692 c 0
800 563 m 0
 851 563 907 608 907 668 c 0
 907 711 875 742 832 742 c 0
 778 742 725 693 725 637 c 0
 725 594 759 563 800 563 c 0
EndSplineSet
EndChar

StartChar: uni0E06
Encoding: 3590 3590 129
Width: 1576
VWidth: 2045
Flags: W
HStem: -8 177<487.428 639.775> 347 177<501.696 658.486> 586 133<407.699 557.302> 897 132<480.667 576.697> 1238 16G<480.5 639.602 859.244 931.5 1435.47 1619>
VStem: 246 154<726.738 874.929> 299 181<176.012 324.303> 582 140<742.619 891.267> 921 186<808.989 1058.91>
DStem2: 867 415 836 237 0.849743 -0.527197<67.499 449.548> 1216.2 -8 1396.59 -8 0.173648 0.984808<188.869 1281.52>
LayerCount: 2
Fore
SplineSet
722 854 m 0xfb80
 722 717 598 586 451 586 c 0
 353 586 246 662 246 809 c 0xfd80
 246 946 352 1214 609 1258 c 1
 736 1175 l 1
 899 1257 l 1
 964 1238 1107 1169 1107 989 c 0
 1107 709 917 689 867 415 c 1
 1249 178 l 1
 1439 1254 l 1
 1619 1254 l 1
 1398 0 l 1
 1218 0 l 1
 836 237 l 17
 808 123 688 -8 525 -8 c 0
 393 -8 299 85 299 212 c 0
 299 372 448 524 618 524 c 0
 653 524 684 519 710 508 c 1
 799 799 921 772 921 942 c 0
 921 1034 862 1080 824 1100 c 1
 711 1042 l 1
 615 1103 l 1
 556 1099 510 1070 479 1015 c 1
 507 1024 530 1029 547 1029 c 0
 612 1029 722 975 722 854 c 0xfb80
556 169 m 0
 613 169 663 219 663 276 c 0
 663 317 634 347 587 347 c 0
 523 347 480 293 480 243 c 0xfb80
 480 202 509 169 556 169 c 0
475 719 m 0
 529 719 582 770 582 824 c 0
 582 864 553 897 506 897 c 0
 452 897 400 850 400 794 c 0xfd80
 400 750 434 719 475 719 c 0
EndSplineSet
EndChar

StartChar: uni0E07
Encoding: 3591 3591 130
Width: 1031
VWidth: 2045
Flags: W
HStem: 0 21G<648.292 848.533> 814 134<716.786 806.664> 1127 133<733.4 886.374>
VStem: 575 135<955.73 1103.84> 893 138<970.565 1119.93>
DStem2: 316 681 188 571 0.641109 -0.76745<2.35745 603.312> 665.384 0 845 0 0.173648 0.984808<222.378 831.496>
LayerCount: 2
Fore
SplineSet
575 999 m 0
 575 1134 701 1260 841 1260 c 0
 951 1260 1031 1181 1031 1075 c 0
 1031 1062 1030 1049 1028 1036 c 2
 845 0 l 1
 665 0 l 1
 188 571 l 1
 316 681 l 1
 704 219 l 1
 809 819 l 1
 792 816 777 814 764 814 c 0
 649 814 575 897 575 999 c 0
787 948 m 0
 849 948 893 1004 893 1053 c 0
 893 1094 865 1127 819 1127 c 0
 761 1127 710 1077 710 1021 c 0
 710 979 741 948 787 948 c 0
EndSplineSet
EndChar

StartChar: uni0E08
Encoding: 3592 3592 131
Width: 1288
VWidth: 2045
Flags: W
HStem: 0 21G<757.424 951.738> 431 134<600.719 745.154> 744 133<618.342 771.443> 1098 178<629.265 950.44>
VStem: 251 180<786 896.467> 458 136<572.827 718.82> 745 167<356 451> 777 137<586.806 738.12> 1064 182<669.759 985.437>
DStem2: 912 356 944 0 0.360838 0.932628<0 506.111>
LayerCount: 2
Fore
SplineSet
458 616 m 0xfe80
 458 757 591 877 725 877 c 0
 878 877 915 750 914 706 c 2xfd80
 912 356 l 1
 1036 712 l 2
 1058 778 1064 796 1064 842 c 0
 1064 990 952 1098 800 1098 c 0
 624 1098 461 960 431 786 c 1
 251 786 l 17
 298 1056 555 1276 831 1276 c 0
 1077 1276 1246 1099 1246 870 c 0
 1246 790 1228 734 1204 672 c 2
 944 0 l 1
 758 0 l 1
 745 451 l 1
 713 438 681 431 648 431 c 0
 531 431 458 513 458 616 c 0xfe80
671 565 m 0
 727 565 777 615 777 671 c 0
 777 716 743 744 702 744 c 0
 649 744 594 696 594 640 c 0
 594 599 624 565 671 565 c 0
EndSplineSet
EndChar

StartChar: uni0E09
Encoding: 3593 3593 132
Width: 1466
VWidth: 2045
Flags: W
HStem: -8 134<1070.28 1223.6> 350 134<391.219 482.483> 662 133<406.448 561.377> 1101 178<682.513 1025.19>
VStem: 246 139<490.286 638.696> 567 138<508.377 656.634> 928 136<132.826 172> 1165 182<536.078 962.588> 1247 138<148.446 297.134>
DStem2: 632 178 601 0 0.889068 0.457775<0 260.417> 1026.53 -8 1206.53 -8 0.173648 0.984808<447.868 823.769>
LayerCount: 2
Fore
SplineSet
246 526 m 0xfe80
 246 688 386 795 515 795 c 0
 631 795 705 713 705 610 c 0
 705 598 704 585 702 572 c 2
 632 178 l 1
 1102 420 l 1
 1159 743 l 2
 1163 764 1165 785 1165 805 c 0
 1165 971 1045 1101 862 1101 c 0
 655 1101 518 943 473 851 c 1
 311 904 l 17
 410 1099 630 1279 894 1279 c 0
 1162 1279 1347 1087 1347 836 c 0xff
 1347 806 1345 775 1339 743 c 2
 1282 420 l 1
 1321 404 1385 353 1385 258 c 0
 1385 113 1253 -8 1117 -8 c 0
 985 -8 929 90 928 172 c 1
 601 0 l 1
 421 0 l 1
 483 354 l 1
 470 351 455 350 437 350 c 0
 286 350 246 443 246 526 c 0xfe80
1140 126 m 0
 1202 126 1247 181 1247 230 c 0xfe80
 1247 274 1213 305 1172 305 c 0
 1119 305 1064 258 1064 199 c 0
 1064 158 1095 126 1140 126 c 0
460 484 m 0
 514 484 567 531 567 588 c 0
 567 628 540 662 492 662 c 0
 432 662 385 609 385 558 c 0
 385 513 420 484 460 484 c 0
EndSplineSet
EndChar

StartChar: uni0E0A
Encoding: 3594 3594 133
Width: 1355
VWidth: 2045
Flags: W
HStem: 0 178<403 491 672 994> 689 133<379.021 531.563> 1091 178<633.593 740.481>
VStem: 239 133<830.798 975.571> 555 138<843.615 993.584> 781 183<803.674 1050.28> 1106 182<723.872 845.76> 1313 180<1227.72 1362>
DStem2: 459.614 0 640.614 0 0.173648 0.984808<212.176 674.574> 962.614 0 1143 0 0.173648 0.984808<180.746 823.485>
LayerCount: 2
Fore
SplineSet
239 876 m 0
 239 1088 454 1269 663 1269 c 0
 836 1269 964 1149 964 973 c 0
 964 671 762 692 726 489 c 2
 672 178 l 1
 994 178 l 1
 1105 804 l 2
 1105 807 1106 809 1106 811 c 0
 1106 829 1092 841 1066 846 c 1
 1098 1024 l 1
 1162 1071 1282 1185 1313 1362 c 1
 1493 1362 l 1
 1473 1250 1438 1160 1387 1093 c 0
 1335 1025 1292 975 1257 942 c 1
 1278 911 1288 878 1288 841 c 0
 1288 829 1287 817 1285 804 c 2
 1143 0 l 1
 372 0 l 1
 403 178 l 1
 491 178 l 1
 546 489 l 2
 597 776 781 733 781 937 c 0
 781 1038 710 1091 631 1091 c 1
 651 1069 l 1
 680 1035 693 995 693 951 c 0
 693 808 563 689 424 689 c 0
 340 689 239 735 239 876 c 0
449 822 m 0
 508 822 555 876 555 927 c 0
 555 967 526 1000 480 1000 c 0
 429 1000 372 956 372 896 c 0
 372 855 403 822 449 822 c 0
EndSplineSet
EndChar

StartChar: uni0E0B
Encoding: 3595 3595 134
Width: 1440
VWidth: 2045
Flags: W
HStem: 0 178<508 596 778 1099> 586 133<371.792 523.885> 897 132<445.777 542.861> 1238 20G<443 605.602 825.244 903.5>
VStem: 218 147<727.215 875.251> 548 138<742.338 891.417> 887 184<808.997 1056.97> 1211 182<723.872 845.76> 1418 180<1229.22 1362>
DStem2: 564.614 0 746.614 0 0.173648 0.984808<212.35 645.247> 1067.61 0 1248 0 0.173648 0.984808<180.746 823.485>
LayerCount: 2
Fore
SplineSet
441 719 m 0
 501 719 548 773 548 824 c 0
 548 861 524 897 472 897 c 0
 413 897 365 846 365 794 c 0
 365 754 392 719 441 719 c 0
686 854 m 0
 686 721 567 586 417 586 c 0
 310 586 218 660 218 802 c 0
 218 941 311 1211 575 1258 c 1
 702 1175 l 1
 865 1257 l 1
 942 1236 1071 1165 1071 985 c 0
 1071 705 858 631 826 446 c 1
 778 178 l 1
 1099 178 l 1
 1210 804 l 2
 1210 807 1211 809 1211 811 c 0
 1211 829 1198 841 1172 846 c 1
 1204 1024 l 1
 1298 1095 1391 1207 1418 1362 c 1
 1598 1362 l 1
 1579 1251 1543 1161 1491 1092 c 0
 1439 1024 1396 974 1362 942 c 1
 1383 911 1393 878 1393 841 c 0
 1393 829 1392 817 1390 804 c 2
 1248 0 l 1
 477 0 l 1
 508 178 l 1
 596 178 l 1
 643 444 l 1
 693 720 887 764 887 942 c 0
 887 1034 828 1080 790 1100 c 1
 678 1042 l 1
 582 1103 l 1
 522 1099 476 1070 445 1015 c 1
 472 1024 496 1029 514 1029 c 0
 577 1029 686 975 686 854 c 0
EndSplineSet
EndChar

StartChar: uni0E0C
Encoding: 3596 3596 135
Width: 1924
VWidth: 2045
Flags: W
HStem: -8 134<413.745 567.199 946.914 1100.34> 305 133<493.446 583.423 966.475 1071> 744 178<547 638> 1101 178<651.177 991.219> 1234 20G<1774.47 1958>
VStem: 271 136<133.335 281.575> 590 138<148.455 298.164> 804 137<133.987 280.129> 1131 182<537.703 963.93>
DStem2: 235.855 -8 414.24 -8 0.173648 0.984808<478.779 763.175> 992.358 -8 1172.29 -8 0.173648 0.984808<441.155 826.708> 1240 376 1248 175 0.86809 -0.496408<106.723 400.88> 1555.38 -8 1735.59 -8 0.173648 0.984808<187.854 1281.48>
LayerCount: 2
Fore
SplineSet
804 178 m 0xef80
 804 319 936 438 1071 438 c 9
 1125 744 l 2
 1129 766 1131 787 1131 808 c 0
 1131 974 1010 1101 829 1101 c 0
 641 1101 523 971 485 922 c 1
 670 922 l 1
 638 744 l 1
 547 744 l 1
 492 433 l 1
 505 436 520 438 538 438 c 0
 649 438 728 360 728 255 c 0
 728 114 597 -8 460 -8 c 0
 348 -8 271 74 271 176 c 0
 271 188 273 201 275 214 c 2
 366 744 l 1
 226 744 l 1
 278 1036 559 1279 861 1279 c 0xf780
 1127 1279 1313 1087 1313 837 c 0
 1313 807 1311 776 1305 744 c 2
 1240 376 l 1
 1588 177 l 1
 1778 1254 l 1
 1958 1254 l 1
 1737 0 l 1
 1557 0 l 1
 1248 175 l 1
 1215 83 1115 -8 993 -8 c 0
 879 -8 804 74 804 178 c 0xef80
1016 126 m 0
 1073 126 1123 177 1123 231 c 0
 1123 275 1089 305 1048 305 c 0
 995 305 941 257 941 198 c 0
 941 154 977 126 1016 126 c 0
483 126 m 0
 537 126 590 173 590 230 c 0
 590 274 556 305 515 305 c 0
 459 305 407 254 407 199 c 0
 407 158 438 126 483 126 c 0
EndSplineSet
EndChar

StartChar: uni0E0D
Encoding: 3597 3597 136
Width: 1924
VWidth: 2045
Flags: W
HStem: -577 192<1008.54 1290.94> -577 163<1238 1404.28> -207 134<1022.04 1177.03> -8 134<403.407 557.199> 0 178<1195 1578> 305 133<481.656 573.423> 744 178<536 628> 1101 178<641.186 981.042> 1234 20G<1764.47 1948>
VStem: 260 137<133.652 281.575> 580 138<148.455 298.164> 864 137<-378.566 -229.747> 1121 182<668.869 959.164> 1184 138<-361.461 -214.718>
DStem2: 123.525 -577 302.91 -577 0.173648 0.984808<1056.73 1341.3> 882.259 -577 1061.87 -577 0.173648 0.984808<797.837 1404.45> 1444.87 -577 1625.26 -577 0.173648 0.984808<766.647 1859.29>
LayerCount: 2
Fore
SplineSet
1322 -251 m 0xa674
 1322 -305 1295 -378 1238 -414 c 1
 1252 -414 l 2x6674
 1428 -414 1536 -267 1604 -154 c 1
 1730 -249 l 1
 1649 -374 1561 -460 1465 -507 c 0
 1370 -553 1273 -577 1175 -577 c 0
 1008 -577 946 -525 918 -488 c 0
 882 -442 864 -394 864 -342 c 0
 864 -219 969 -73 1132 -73 c 0
 1241 -73 1322 -154 1322 -251 c 0xa674
1076 -385 m 0xa674
 1125 -385 1184 -341 1184 -281 c 0
 1184 -238 1149 -207 1108 -207 c 0
 1056 -207 1001 -252 1001 -311 c 0
 1001 -352 1030 -385 1076 -385 c 0xa674
718 255 m 0
 718 114 587 -8 450 -8 c 0
 336 -8 260 74 260 177 c 0
 260 189 261 201 263 214 c 2
 356 744 l 1
 216 744 l 1
 268 1036 549 1279 851 1279 c 0x3778
 1116 1279 1303 1086 1303 836 c 0
 1303 806 1301 775 1295 744 c 2
 1195 178 l 1
 1578 178 l 1
 1768 1254 l 1
 1948 1254 l 1x2ef8
 1727 0 l 1
 984 0 l 25
 1115 744 l 2
 1119 766 1121 787 1121 808 c 0
 1121 974 1000 1101 819 1101 c 0x2f78
 632 1101 511 969 477 922 c 1
 660 922 l 1
 628 744 l 1
 536 744 l 1
 481 433 l 1
 493 436 509 438 528 438 c 0
 639 438 718 360 718 255 c 0
473 126 m 0
 527 126 580 173 580 230 c 0
 580 274 546 305 505 305 c 0
 449 305 397 254 397 199 c 0
 397 158 428 126 473 126 c 0
216 744 m 1
 356 744 l 1
EndSplineSet
Substitution2: "'ccmp' Pali-Sanskrit Descender Removal" uni0E0D.descless
Substitution2: "Thai Descender Removal Single Substitution" uni0E0D.descless
EndChar

StartChar: uni0E0E
Encoding: 3598 3598 137
Width: 1473
VWidth: 2045
Flags: W
HStem: -526 133<468.958 623.485> -214 133<486.283 639.055> -8 134<284.585 438.333> 305 133<301.727 454.241> 744 178<689 777> 1101 178<769.462 1112.72>
VStem: 140 138<133.37 279.638> 325 138<-385.47 -235.818> 1250 182<665.899 964.931>
DStem2: 272.736 -595 452.999 -595 0.173648 0.984808<1043.86 1359.68> 1007.93 -595 1188.34 -595 0.173648 0.984808<340.168 1420.83>
AnchorPoint: "BelowBase" 994 -625 basechar 0
LayerCount: 2
Fore
SplineSet
140 177 m 0
 140 319 271 438 409 438 c 0
 427 438 442 436 454 433 c 1
 509 744 l 1
 344 744 l 1
 396 1036 677 1279 979 1279 c 0
 1258 1279 1432 1076 1432 834 c 0
 1432 805 1429 774 1424 744 c 2
 1240 -302 l 1
 892 -595 l 1
 741 -414 l 1
 682 -464 625 -526 513 -526 c 0
 405 -526 325 -447 325 -341 c 0
 325 -202 455 -81 594 -81 c 0
 698 -81 739 -146 780 -193 c 1
 904 -89 l 1
 997 -198 l 1
 871 -304 l 1
 931 -375 l 1
 1067 -260 l 1
 1244 744 l 2
 1248 765 1250 786 1250 806 c 0
 1250 969 1132 1101 948 1101 c 0
 797 1101 668 1014 605 922 c 1
 809 922 l 1
 777 744 l 1
 689 744 l 1
 596 216 l 2
 574 89 453 -8 331 -8 c 0
 218 -8 140 72 140 177 c 0
538 -393 m 0
 592 -393 646 -346 646 -288 c 0
 646 -244 610 -214 569 -214 c 0
 509 -214 463 -269 463 -320 c 0
 463 -363 495 -393 538 -393 c 0
354 126 m 0
 408 126 461 173 461 230 c 0
 461 274 427 305 386 305 c 0
 336 305 278 260 278 199 c 0
 278 154 315 126 354 126 c 0
344 744 m 1
 509 744 l 1
EndSplineSet
EndChar

StartChar: uni0E0F
Encoding: 3599 3599 138
Width: 1486
VWidth: 2045
Flags: W
HStem: -526 133<240.465 396.193> -214 133<255.516 410.92> -8 134<284.585 438.333> 305 133<301.727 454.241> 744 178<689 777> 1101 178<768.064 1112.72>
VStem: 98 136<-385.905 -235.669> 140 138<133.37 279.638> 1250 182<543.969 964.983>
DStem2: 272.736 -595 452.999 -595 0.173648 0.984808<1043.86 1359.68> 1007.93 -595 1188.34 -595 0.173648 0.984808<340.168 1420.83>
AnchorPoint: "BelowBase" 955 -625 basechar 0
LayerCount: 2
Fore
SplineSet
98 -342 m 0xfe80
 98 -212 219 -81 365 -81 c 0
 471 -81 509 -145 551 -193 c 1
 676 -88 l 1
 768 -199 l 1
 642 -305 l 1
 702 -375 l 1
 835 -260 l 1
 931 -375 l 1
 1067 -260 l 1
 1244 744 l 2
 1248 765 1250 786 1250 806 c 0
 1250 969 1132 1101 948 1101 c 0
 761 1101 651 980 605 922 c 9
 809 922 l 1
 777 744 l 1
 689 744 l 1
 596 216 l 2
 574 89 453 -8 331 -8 c 0
 218 -8 140 72 140 177 c 0xfd80
 140 319 271 438 409 438 c 0
 427 438 442 436 454 433 c 1
 509 744 l 1
 344 744 l 1
 396 1036 677 1279 979 1279 c 0
 1258 1279 1432 1076 1432 834 c 0
 1432 805 1429 774 1424 744 c 2
 1240 -302 l 1
 892 -595 l 1
 796 -480 l 1
 663 -595 l 1
 512 -414 l 1
 454 -465 401 -526 286 -526 c 0
 174 -526 98 -447 98 -342 c 0xfe80
310 -393 m 0
 370 -393 417 -344 417 -286 c 0
 417 -242 384 -214 341 -214 c 0
 282 -214 234 -266 234 -319 c 0xfe80
 234 -360 263 -393 310 -393 c 0
354 126 m 0
 408 126 461 173 461 230 c 0
 461 274 427 305 386 305 c 0
 336 305 278 260 278 199 c 0xfd80
 278 154 315 126 354 126 c 0
344 744 m 1
 509 744 l 1
EndSplineSet
EndChar

StartChar: uni0E10
Encoding: 3600 3600 139
Width: 1245
VWidth: 2045
Flags: W
HStem: -807 134<-61.3634 92.9152> -521 133<656.042 747.494> -494 134<-46.6107 107.866> -210 134<673.287 826.371> 0 21G<682.545 910.534> 244 134<532.631 676.687> 557 133<549.653 702.494> 744 178<526 969.35> 1101 178<692.866 1033.75>
VStem: -204 136<-665.089 -515.212> 390 136<384.993 534.613> 512 137<-380.844 -234.098> 708 139<399.445 551.484> 832 137<-366.059 -216.976> 977 185<569.828 738.007>
DStem2: 844 285 903 0 0.352536 0.935798<0 415.067>
LayerCount: 2
Fore
SplineSet
512 -338 m 0xdfd6
 512 -208 631 -76 780 -76 c 0
 895 -76 969 -158 969 -260 c 0
 969 -273 968 -286 966 -299 c 2
 913 -603 l 25
 590 -875 l 1
 494 -760 l 1
 361 -873 l 1
 209 -695 l 1
 155 -741 93 -807 -15 -807 c 0
 -129 -807 -204 -725 -204 -621 c 0
 -204 -493 -86 -360 64 -360 c 0xbfd6
 174 -360 211 -428 248 -474 c 1
 374 -369 l 1
 466 -477 l 1
 341 -583 l 1
 400 -654 l 1
 533 -541 l 1
 628 -656 l 1
 740 -562 l 1
 748 -518 l 1
 732 -520 716 -521 701 -521 c 0
 590 -521 512 -443 512 -338 c 0xdfd6
726 -388 m 0xdfd6
 785 -388 832 -334 832 -282 c 0
 832 -242 803 -210 757 -210 c 0
 695 -210 649 -266 649 -312 c 0
 649 -353 679 -388 726 -388 c 0xdfd6
7 -673 m 0
 65 -673 115 -620 115 -567 c 0
 115 -526 84 -494 39 -494 c 0xbfc2
 -23 -494 -68 -549 -68 -598 c 0
 -68 -642 -34 -673 7 -673 c 0
390 428 m 0x9fea
 390 570 520 690 657 690 c 0
 807 690 847 565 847 519 c 2
 844 285 l 1
 972 655 l 2
 974 659 977 667 977 679 c 0
 977 716 946 744 898 744 c 2
 267 744 l 1
 320 1043 606 1279 901 1279 c 0
 1118 1279 1259 1162 1321 1013 c 1
 1149 924 l 1
 1131 969 1056 1101 869 1101 c 0
 682 1101 562 968 526 922 c 1
 925 922 l 2
 1044 922 1162 834 1162 722 c 0
 1162 708 1160 678 1149 653 c 1
 903 0 l 1
 683 0 l 25
 677 264 l 1
 644 251 611 244 578 244 c 0
 466 244 390 323 390 428 c 0x9fea
603 378 m 0
 658 378 708 427 708 483 c 0
 708 526 678 557 634 557 c 0
 570 557 526 499 526 452 c 0
 526 407 562 378 603 378 c 0
EndSplineSet
Substitution2: "'ccmp' Pali-Sanskrit Descender Removal" uni0E10.descless
Substitution2: "Thai Descender Removal Single Substitution" uni0E10.descless
EndChar

StartChar: uni0E11
Encoding: 3601 3601 140
Width: 1689
VWidth: 2045
Flags: W
HStem: 0 21G<566 847.019 1334 1517.53> 586 133<372.002 526.854> 897 132<446.669 543.254> 1087 177<1365.2 1503.01>
VStem: 220 145<725.077 875.941> 548 137<742.178 891.754> 887 185<809.487 1056.69> 1511 184<917.112 1076.14>
DStem2: 566 0 746.027 0 0.173648 0.984808<221.146 643.441> 779 187 837 0 0.44789 0.894089<0 1095.28> 1334 0 1514 0 0.173648 0.984808<31.2567 1027.08>
LayerCount: 2
Fore
SplineSet
685 854 m 0
 685 719 565 586 417 586 c 0
 310 586 220 662 220 803 c 0
 220 939 308 1212 576 1258 c 1
 703 1175 l 1
 866 1257 l 1
 940 1236 1072 1166 1072 986 c 0
 1072 964 1070 939 1065 913 c 0
 1021 662 857 628 824 444 c 2
 779 187 l 1
 1265 1140 l 2
 1279 1167 1352 1264 1494 1264 c 0
 1571 1264 1695 1210 1695 1055 c 0
 1695 1037 1694 1017 1690 996 c 2
 1514 0 l 1
 1334 0 l 1
 1509 995 l 2
 1510 1001 1511 1006 1511 1012 c 0
 1511 1053 1480 1087 1430 1087 c 0
 1408 1087 1379 1084 1367 1058 c 2
 837 0 l 1
 566 0 l 1
 644 444 l 2
 693 718 887 766 887 940 c 0
 887 1034 824 1082 790 1100 c 1
 678 1042 l 1
 583 1103 l 1
 522 1099 476 1070 446 1015 c 1
 468 1023 491 1029 515 1029 c 0
 576 1029 685 977 685 854 c 0
441 719 m 0
 499 719 548 769 548 826 c 0
 548 867 519 897 472 897 c 0
 408 897 365 840 365 793 c 0
 365 753 394 719 441 719 c 0
EndSplineSet
EndChar

StartChar: uni0E12
Encoding: 3602 3602 141
Width: 1957
VWidth: 2045
Flags: W
HStem: -8 134<1018.75 1172.84> 305 133<1036.33 1143> 749 133<756.511 910.176> 1234 20G<597.5 721.733 1125.6 1233.5 1804.48 1988>
VStem: 597 137<576.921 727.241> 876 137<132.462 282.793> 916 139<591.034 741.116> 1223 177<638.742 1041.16>
DStem2: 164.589 -8 342.913 -8 0.173648 0.984808<250.298 1060.27> 381 208 349 0 0.770717 0.637177<0 394.199> 902 1104 870 927 0.864507 0.50262<0 203.673> 1064.36 -8 1245 -8 0.173648 0.984808<440.832 950.939> 1312 372 1316 166 0.847843 -0.530247<112.622 362.095> 1585.85 -8 1765.59 -8 0.173648 0.984808<190.9 1281.4>
LayerCount: 2
Fore
SplineSet
876 176 m 0xfd
 876 316 1003 438 1143 438 c 1
 1211 823 l 2
 1219 867 1223 902 1223 931 c 0
 1223 1010 1193 1041 1129 1075 c 1
 870 927 l 1
 674 1072 l 1
 656 1070 527 1038 489 825 c 2
 381 208 l 1
 680 465 l 1
 612 508 597 564 597 612 c 0
 597 771 736 882 865 882 c 0
 977 882 1055 805 1055 695 c 0xfb
 1055 661 1048 578 955 501 c 2
 349 0 l 1
 166 0 l 1
 311 825 l 2
 353 1060 501 1218 694 1254 c 1
 902 1104 l 1
 1160 1254 l 1
 1307 1227 1400 1101 1400 925 c 0
 1400 893 1397 860 1391 825 c 2
 1312 372 l 1
 1619 180 l 1
 1808 1254 l 1
 1988 1254 l 1
 1767 0 l 1
 1587 0 l 1
 1316 166 l 1
 1298 123 1218 -8 1065 -8 c 0
 952 -8 876 72 876 176 c 0xfd
1088 126 m 0
 1148 126 1195 180 1195 230 c 0
 1195 271 1166 305 1119 305 c 0
 1066 305 1013 257 1013 199 c 0xfd
 1013 155 1044 126 1088 126 c 0
810 571 m 0
 871 571 916 622 916 674 c 0xfb
 916 714 888 749 841 749 c 0
 779 749 734 693 734 644 c 0
 734 603 762 571 810 571 c 0
EndSplineSet
EndChar

StartChar: uni0E13
Encoding: 3603 3603 142
Width: 1948
VWidth: 2045
Flags: W
HStem: -8 134<405.405 558.568 1556.29 1707.18> 305 133<485.636 575.934> 744 178<540 628> 1101 178<643.177 982.421> 1234 20G<1728.47 1912>
VStem: 264 135<132.906 281.689> 582 136<148.161 297.918> 1123 182<668.736 961.714> 1730 139<149.156 298.206>
DStem2: 227.855 -8 407.24 -8 0.173648 0.984808<478.953 763.522> 984.589 -8 1164.38 -8 0.173648 0.984808<219.074 825.729> 1509.53 -8 1689.53 -8 0.173648 0.984808<447.904 1281.46>
LayerCount: 2
Fore
SplineSet
718 255 m 0xf780
 718 126 601 -8 452 -8 c 0
 339 -8 264 74 264 176 c 0
 264 189 265 201 267 214 c 2
 360 744 l 1
 218 744 l 1
 270 1036 551 1279 853 1279 c 0xf780
 1117 1279 1305 1090 1305 838 c 0
 1305 807 1303 776 1297 744 c 2
 1197 177 l 1
 1585 420 l 9
 1732 1254 l 1
 1912 1254 l 1xef80
 1765 420 l 1
 1811 398 1869 349 1869 258 c 0
 1869 116 1739 -8 1600 -8 c 0
 1442 -8 1415 128 1413 151 c 1
 1166 0 l 1
 986 0 l 1
 1117 744 l 2
 1121 766 1123 787 1123 807 c 0
 1123 974 1000 1101 821 1101 c 0
 633 1101 515 971 477 922 c 1
 660 922 l 1
 628 744 l 1
 540 744 l 1
 485 433 l 1
 497 436 512 438 530 438 c 0
 644 438 718 358 718 255 c 0xf780
1622 126 m 0
 1679 126 1730 176 1730 230 c 0
 1730 274 1696 305 1654 305 c 0
 1600 305 1548 257 1548 199 c 0
 1548 156 1580 126 1622 126 c 0
475 126 m 0
 534 126 582 178 582 230 c 0
 582 270 554 305 507 305 c 0
 449 305 399 255 399 198 c 0
 399 157 427 126 475 126 c 0
218 744 m 1
 358 744 l 1
EndSplineSet
EndChar

StartChar: uni0E14
Encoding: 3604 3604 143
Width: 1410
VWidth: 2045
Flags: W
HStem: 0 21G<161 364.992 1040 1223.52> 744 133<738.614 890.49> 1101 178<702.752 1051.72>
VStem: 577 138<571.441 721.135> 898 138<587.957 736.456> 1178 182<667.814 972.623>
DStem2: 161 0 340.971 0 0.173648 0.984808<244.491 976.34> 378 210 341 0 0.768115 0.640311<0 376.686> 1040 0 1220 0 0.173648 0.984808<31.2567 827.443>
LayerCount: 2
Fore
SplineSet
790 566 m 0
 851 566 898 617 898 670 c 0
 898 710 867 744 821 744 c 0
 768 744 715 696 715 638 c 0
 715 597 743 566 790 566 c 0
577 603 m 0
 577 763 711 877 846 877 c 0
 952 877 1036 802 1036 691 c 0
 1036 657 1029 573 936 496 c 2
 341 0 l 17
 161 0 l 1
 292 744 l 2
 357 1110 675 1279 917 1279 c 0
 1169 1279 1360 1108 1360 846 c 0
 1360 813 1357 779 1351 744 c 2
 1220 0 l 1
 1040 0 l 1
 1171 743 l 2
 1176 769 1178 793 1178 817 c 0
 1178 993 1054 1101 885 1101 c 0
 675 1101 508 945 472 744 c 2
 378 210 l 1
 660 460 l 1
 594 506 577 555 577 603 c 0
EndSplineSet
EndChar

StartChar: uni0E15
Encoding: 3605 3605 144
Width: 1400
VWidth: 2045
Flags: W
HStem: 0 21G<156 363.444 1036 1219.52> 734 133<735.945 887.278> 1234 20G<625.5 701.733 1105.6 1213>
VStem: 574 137<562.169 710.333> 894 138<576.428 727.062> 1196 175<656.625 1045.42>
DStem2: 156 0 334.324 0 0.173648 0.984808<242.174 1066.87> 371 208 339 0 0.773957 0.633238<0 374.595> 882 1104 850 927 0.864507 0.50262<0 203.952> 1036 0 1216 0 0.173648 0.984808<31.2567 958.913>
LayerCount: 2
Fore
SplineSet
787 556 m 0
 851 556 894 612 894 659 c 0
 894 699 865 734 818 734 c 0
 760 734 711 681 711 627 c 0
 711 588 740 556 787 556 c 0
574 595 m 0
 574 751 708 867 842 867 c 0
 952 867 1032 792 1032 682 c 0
 1032 649 1026 563 933 486 c 2
 339 0 l 1
 156 0 l 1
 301 825 l 2
 362 1168 577 1236 674 1254 c 1
 882 1104 l 1
 1140 1254 l 1
 1286 1227 1371 1103 1371 930 c 0
 1371 897 1367 862 1361 825 c 2
 1216 0 l 1
 1036 0 l 1
 1181 823 l 2
 1190 875 1196 915 1196 947 c 0
 1196 1010 1173 1041 1109 1075 c 1
 850 927 l 1
 654 1072 l 1
 615 1068 518 1036 479 825 c 1
 371 208 l 25
 657 450 l 1
 594 492 574 541 574 595 c 0
EndSplineSet
EndChar

StartChar: uni0E16
Encoding: 3606 3606 145
Width: 1370
VWidth: 2045
Flags: W
HStem: -8 134<423.961 576.663> 305 133<501.476 593.415> 744 178<556 648> 1101 178<661.186 1001.04>
VStem: 280 138<133.161 282.016> 600 138<148.132 298.164> 1141 182<667.266 959.164>
DStem2: 243.855 -8 423.24 -8 0.173648 0.984808<478.953 763.522> 1002.59 -8 1182.59 -8 0.173648 0.984808<39.3801 826.668>
LayerCount: 2
Fore
SplineSet
492 126 m 0
 549 126 600 176 600 230 c 0
 600 274 566 305 524 305 c 0
 470 305 418 257 418 199 c 0
 418 156 450 126 492 126 c 0
236 744 m 1
 376 744 l 1
738 255 m 0
 738 114 607 -8 470 -8 c 0
 356 -8 280 74 280 177 c 0
 280 189 281 201 283 214 c 2
 376 744 l 1
 236 744 l 1
 288 1036 569 1279 871 1279 c 0
 1136 1279 1323 1086 1323 836 c 0
 1323 806 1321 775 1315 744 c 2
 1184 0 l 1
 1004 0 l 1
 1135 744 l 2
 1139 766 1141 787 1141 808 c 0
 1141 974 1020 1101 839 1101 c 0
 652 1101 531 969 497 922 c 1
 680 922 l 1
 648 744 l 1
 556 744 l 1
 501 433 l 1
 513 436 529 438 548 438 c 0
 659 438 738 360 738 255 c 0
EndSplineSet
EndChar

StartChar: uni0E17
Encoding: 3607 3607 146
Width: 1487
VWidth: 2045
Flags: W
HStem: 0 21G<366 556.662 1118 1301.52> 814 134<418.288 508.654> 1087 177<1103.89 1287.5> 1127 133<436.761 587.486>
VStem: 275 138<955.737 1103.74> 594 138<970.254 1119.95> 1295 184<916.192 1075.75>
DStem2: 366 0 545.757 0 0.173648 0.984808<31.2567 112.847 389.66 831.563> 608 353 546 0 0.470413 0.882447<0 912.646> 1118 0 1298 0 0.173648 0.984808<31.2567 1028.07>
LayerCount: 2
Fore
SplineSet
275 1000 m 0xee
 275 1131 398 1260 542 1260 c 0xde
 652 1260 732 1182 732 1075 c 0
 732 1062 731 1049 729 1036 c 2
 608 353 l 17
 1000 1125 l 2
 1011 1145 1088 1264 1263 1264 c 0
 1360 1264 1479 1207 1479 1055 c 0
 1479 1037 1477 1017 1473 995 c 2
 1298 0 l 1
 1118 0 l 1
 1293 995 l 2
 1294 1000 1295 1007 1295 1013 c 0
 1295 1046 1277 1087 1191 1087 c 0
 1147 1087 1117 1072 1102 1043 c 2
 546 0 l 1
 366 0 l 1
 510 819 l 1
 493 816 478 814 464 814 c 0
 350 814 275 896 275 1000 c 0xee
488 948 m 0
 536 948 594 989 594 1053 c 0
 594 1097 563 1127 520 1127 c 0
 460 1127 413 1074 413 1021 c 0
 413 977 447 948 488 948 c 0
EndSplineSet
EndChar

StartChar: uni0E18
Encoding: 3608 3608 147
Width: 1228
VWidth: 2045
Flags: W
HStem: 0 178<250 340 520 845> 744 178<620 927.983> 1111 168<644.341 990.91>
VStem: 931 182<574.333 738.693>
DStem2: 308.614 0 488.614 0 0.173648 0.984808<212.003 755.512> 813.614 0 994 0 0.173648 0.984808<180.746 685.745>
LayerCount: 2
Fore
SplineSet
885 922 m 2
 1021 922 1113 823 1113 699 c 0
 1113 684 1112 669 1109 653 c 2
 994 0 l 1
 219 0 l 1
 250 178 l 1
 340 178 l 1
 440 744 l 25
 227 744 l 1
 280 1043 566 1279 861 1279 c 0
 1076 1279 1220 1160 1281 1013 c 1
 1109 924 l 1
 1108 929 1039 1111 839 1111 c 0
 744 1111 594 1089 486 922 c 1
 885 922 l 2
929 653 m 2
 930 660 931 668 931 676 c 0
 931 711 915 744 858 744 c 2
 620 744 l 25
 520 178 l 1
 845 178 l 1
 929 653 l 2
EndSplineSet
EndChar

StartChar: uni0E19
Encoding: 3609 3609 148
Width: 1451
VWidth: 2045
Flags: W
HStem: -8 134<1052.07 1204.53> 814 134<408.288 498.654> 1127 133<426.761 577.486>
VStem: 265 138<955.737 1103.74> 584 138<968.754 1119.95> 1228 139<149.219 298.529>
DStem2: 354.589 -8 534.203 -8 0.173648 0.984808<220.059 839.686> 567 178 536 0 0.904305 0.426888<0 305.908> 1010 -8 1189.88 -8 0.173648 0.984808<447.512 1281.38>
LayerCount: 2
Fore
SplineSet
1122 126 m 0
 1178 126 1228 177 1228 230 c 0
 1228 274 1194 305 1154 305 c 0
 1103 305 1046 259 1046 200 c 0
 1046 157 1079 126 1122 126 c 0
1367 263 m 0
 1367 111 1233 -8 1098 -8 c 0
 967 -8 910 93 910 168 c 1
 536 0 l 1
 356 0 l 1
 500 819 l 1
 483 816 468 814 454 814 c 0
 340 814 265 896 265 1000 c 0
 265 1131 388 1260 532 1260 c 0
 642 1260 722 1182 722 1075 c 0
 722 1062 721 1049 719 1036 c 2
 567 178 l 1
 1086 423 l 1
 1232 1254 l 1
 1412 1254 l 1
 1265 418 l 1
 1345 380 1367 321 1367 263 c 0
478 948 m 0
 526 948 584 989 584 1053 c 0
 584 1097 553 1127 510 1127 c 0
 450 1127 403 1074 403 1021 c 0
 403 977 437 948 478 948 c 0
EndSplineSet
EndChar

StartChar: uni0E1A
Encoding: 3610 3610 149
Width: 1420
VWidth: 2045
Flags: W
HStem: 0 178<301 392 570 1072> 814 134<413.288 502.771> 1127 133<431.761 582.104>
VStem: 270 138<955.737 1103.74> 589 138<968.913 1121.14>
DStem2: 360.614 0 538.614 0 0.173648 0.984808<211.655 831.63> 1040.61 0 1221 0 0.173648 0.984808<180.746 1273.39>
LayerCount: 2
Fore
SplineSet
270 1000 m 0
 270 1131 393 1260 537 1260 c 0
 645 1260 727 1186 727 1077 c 0
 727 1064 725 1050 723 1036 c 2
 570 178 l 1
 1072 178 l 1
 1262 1254 l 1
 1442 1254 l 1
 1221 0 l 1
 270 0 l 1
 301 178 l 1
 392 178 l 25
 505 819 l 1
 488 816 473 814 459 814 c 0
 345 814 270 896 270 1000 c 0
483 948 m 0
 536 948 589 995 589 1053 c 0
 589 1096 557 1127 515 1127 c 0
 455 1127 408 1074 408 1021 c 0
 408 977 442 948 483 948 c 0
EndSplineSet
EndChar

StartChar: uni0E1B
Encoding: 3611 3611 150
Width: 1420
VWidth: 2045
Flags: W
HStem: 0 178<301 392 571 1072> 814 134<413.288 502.771> 1127 133<431.761 583.012>
VStem: 270 138<955.737 1103.74> 589 137<968.913 1119.42>
DStem2: 360.614 0 539.614 0 0.173648 0.984808<211.829 831.63> 1040.61 0 1221 0 0.173648 0.984808<180.746 1860.32>
AnchorPoint: "AboveBase" 1163 1339 basechar 0
LayerCount: 2
Fore
SplineSet
270 1000 m 0
 270 1131 393 1260 537 1260 c 0
 651 1260 726 1179 726 1075 c 0
 726 1062 725 1049 723 1036 c 2
 571 178 l 1
 1072 178 l 1
 1364 1832 l 1
 1544 1832 l 1
 1221 0 l 1
 270 0 l 1
 301 178 l 1
 392 178 l 25
 505 819 l 1
 490 816 474 814 459 814 c 0
 345 814 270 896 270 1000 c 0
483 948 m 0
 536 948 589 995 589 1053 c 0
 589 1096 557 1127 515 1127 c 0
 455 1127 408 1074 408 1021 c 0
 408 977 442 948 483 948 c 0
EndSplineSet
EndChar

StartChar: uni0E1C
Encoding: 3612 3612 151
Width: 1373
VWidth: 2045
Flags: W
HStem: 0 21G<186 385.848 999.222 1195.52> 814 134<510.258 662.78> 1127 133<527.601 680.182>
VStem: 686 138<969.942 1118.39>
DStem2: 186 0 366.45 0 0.173648 0.984808<299.407 865.763> 413 264 366 0 0.702623 0.711562<0 337.034> 806 662 759 396 0.536464 -0.843923<199.27 471.607> 1012.45 0 1192 0 0.173648 0.984808<268.073 1273.25>
LayerCount: 2
Fore
SplineSet
824 1075 m 0
 824 936 693 814 556 814 c 0
 541 814 525 816 510 819 c 1
 413 264 l 1
 806 662 l 1
 1059 264 l 1
 1233 1254 l 1
 1413 1254 l 1
 1192 0 l 1
 1012 0 l 1
 759 396 l 1
 366 0 l 1
 186 0 l 25
 369 1036 l 2
 392 1168 520 1260 624 1260 c 0
 752 1260 824 1176 824 1075 c 0
601 1127 m 0
 565 1127 504 1083 504 1021 c 0
 504 978 537 948 579 948 c 0
 630 948 686 994 686 1053 c 0
 686 1088 665 1127 601 1127 c 0
EndSplineSet
EndChar

StartChar: uni0E1D
Encoding: 3613 3613 152
Width: 1373
VWidth: 2045
Flags: W
HStem: 0 21G<186 385.848 999.222 1195.53> 814 134<510.258 661.524> 1127 133<526.582 679.649>
VStem: 686 138<971.876 1118.92>
DStem2: 186 0 366.45 0 0.173648 0.984808<299.407 865.763> 413 264 366 0 0.702623 0.711562<0 337.034> 806 662 759 396 0.536464 -0.843923<199.27 471.607> 1012.45 0 1192 0 0.173648 0.984808<268.073 1860.18>
AnchorPoint: "AboveBase" 1139 1339 basechar 0
LayerCount: 2
Fore
SplineSet
824 1075 m 0
 824 945 701 814 556 814 c 0
 541 814 525 816 510 819 c 1
 413 264 l 1
 806 662 l 1
 1059 264 l 1
 1335 1832 l 1
 1515 1832 l 1
 1192 0 l 1
 1012 0 l 1
 759 396 l 1
 366 0 l 1
 186 0 l 25
 369 1036 l 2
 391 1163 512 1260 634 1260 c 0
 746 1260 824 1178 824 1075 c 0
611 1127 m 0
 551 1127 504 1074 504 1021 c 0
 504 978 537 948 579 948 c 0
 630 948 686 994 686 1053 c 0
 686 1096 653 1127 611 1127 c 0
EndSplineSet
EndChar

StartChar: uni0E1E
Encoding: 3614 3614 153
Width: 1552
VWidth: 2045
Flags: W
HStem: 0 21G<356 546.388 1186.66 1373.52> 814 134<408.288 498.654> 1127 133<426.761 577.486>
VStem: 265 138<955.737 1103.74> 584 138<970.387 1119.95>
DStem2: 355.588 0 534.124 0 0.173648 0.984808<31.3282 115.554 490.991 831.634> 614 453 536 0 0.460942 0.88743<0 635.928> 1141 1254 1031 953 0.164567 -0.986366<278.794 810.322> 1189.95 0 1370 0 0.173648 0.984808<461.004 1273.33>
LayerCount: 2
Fore
SplineSet
265 1000 m 0
 265 1131 388 1260 532 1260 c 0
 642 1260 722 1182 722 1075 c 0
 722 1062 721 1049 719 1036 c 2
 614 453 l 1
 1025 1254 l 1
 1141 1254 l 1
 1270 454 l 1
 1411 1254 l 1
 1591 1254 l 1
 1370 0 l 1
 1190 0 l 1
 1031 953 l 1
 536 0 l 1
 356 0 l 1
 500 819 l 1
 485 816 469 814 454 814 c 0
 340 814 265 896 265 1000 c 0
478 948 m 0
 526 948 584 989 584 1053 c 0
 584 1097 553 1127 510 1127 c 0
 450 1127 403 1074 403 1021 c 0
 403 977 437 948 478 948 c 0
EndSplineSet
EndChar

StartChar: uni0E1F
Encoding: 3615 3615 154
Width: 1552
VWidth: 2045
Flags: W
HStem: 0 21G<356 546.388 1186.66 1373.53> 814 134<408.288 498.654> 1127 133<426.761 577.642>
VStem: 265 138<955.737 1103.74> 584 138<970.387 1119.8>
DStem2: 355.588 0 534.124 0 0.173648 0.984808<31.3282 115.554 490.991 831.634> 614 453 536 0 0.460942 0.88743<0 635.928> 1141 1254 1031 953 0.164567 -0.986366<278.794 810.322> 1189.95 0 1370 0 0.173648 0.984808<461.004 1860.27>
AnchorPoint: "AboveBase" 1251 1339 basechar 0
LayerCount: 2
Fore
SplineSet
265 1000 m 0
 265 1131 388 1260 532 1260 c 0
 643 1260 722 1181 722 1075 c 0
 722 1062 721 1049 719 1036 c 2
 614 453 l 1
 1025 1254 l 1
 1141 1254 l 1
 1270 454 l 1
 1513 1832 l 1
 1693 1832 l 1
 1370 0 l 1
 1190 0 l 1
 1031 953 l 1
 536 0 l 1
 356 0 l 1
 500 819 l 1
 485 816 469 814 454 814 c 0
 340 814 265 896 265 1000 c 0
478 948 m 0
 526 948 584 989 584 1053 c 0
 584 1097 553 1127 510 1127 c 0
 450 1127 403 1074 403 1021 c 0
 403 977 437 948 478 948 c 0
EndSplineSet
EndChar

StartChar: uni0E20
Encoding: 3616 3616 155
Width: 1465
VWidth: 2045
Flags: W
HStem: -8 134<264.502 416.805> 305 133<282.986 433.365> 744 178<668 757> 1101 178<752.469 1090.73>
VStem: 121 138<133.506 280.9> 1229 182<667.266 965.179>
DStem2: 355.24 -8 535.503 -8 0.173648 0.984808<447.803 763.629> 1090.59 -8 1270.59 -8 0.173648 0.984808<39.3801 827.652>
LayerCount: 2
Fore
SplineSet
121 177 m 0
 121 309 243 438 389 438 c 0
 408 438 423 436 433 433 c 1
 488 744 l 1
 324 744 l 1
 376 1038 662 1279 958 1279 c 0
 1229 1279 1411 1083 1411 836 c 0
 1411 806 1409 775 1403 744 c 2
 1272 0 l 1
 1092 0 l 1
 1223 744 l 2
 1227 766 1229 788 1229 809 c 0
 1229 981 1099 1101 927 1101 c 0
 791 1101 662 1023 584 922 c 1
 789 922 l 1
 757 744 l 1
 668 744 l 1
 575 216 l 2
 552 87 431 -8 311 -8 c 0
 194 -8 121 74 121 177 c 0
334 126 m 0
 384 126 440 171 440 232 c 0
 440 275 407 305 366 305 c 0
 313 305 259 258 259 200 c 0
 259 156 291 126 334 126 c 0
EndSplineSet
EndChar

StartChar: uni0E21
Encoding: 3617 3617 156
Width: 1422
VWidth: 2045
Flags: W
HStem: -8 134<291.418 445.53> 305 133<308.021 460.241> 814 134<438.645 523.842> 1127 133<452.737 605.311>
VStem: 148 138<131.233 283.799> 294 137<955.497 1104.92> 612 137<971.196 1121.29>
DStem2: 382.24 -8 560.525 -8 0.173648 0.984808<447.803 839.4> 627 369 597 201 0.909228 -0.416298<42.6612 482.827> 1034.97 -8 1214.59 -8 0.173648 0.984808<178.715 1281.38>
LayerCount: 2
Fore
SplineSet
294 999 m 0
 294 1137 421 1260 560 1260 c 0
 667 1260 749 1186 749 1077 c 0
 749 1064 747 1050 745 1036 c 2
 627 369 l 1
 1066 168 l 1
 1257 1254 l 1
 1437 1254 l 1
 1216 0 l 1
 1036 0 l 1
 597 201 l 17
 574 99 469 -8 337 -8 c 0
 223 -8 148 74 148 178 c 0
 148 318 278 438 414 438 c 0
 433 438 448 436 460 433 c 1
 526 819 l 1
 511 816 496 814 482 814 c 0
 366 814 294 896 294 999 c 0
360 126 m 0
 422 126 467 181 467 230 c 0
 467 274 433 305 392 305 c 0
 338 305 286 258 286 200 c 0
 286 156 317 126 360 126 c 0
506 948 m 0
 561 948 612 995 612 1054 c 0
 612 1098 581 1127 537 1127 c 0
 482 1127 431 1080 431 1021 c 0
 431 978 463 948 506 948 c 0
EndSplineSet
EndChar

StartChar: uni0E22
Encoding: 3618 3618 157
Width: 1321
VWidth: 2045
Flags: W
HStem: 0 178<439 968> 520 178<507.763 774> 816 133<555.074 710.517> 1127 133<571.553 724.211>
VStem: 276 175<732.66 884.091> 732 139<969.579 1121.81>
DStem2: 228 0 407.614 0 0.173648 0.984808<211.936 550.594> 936.614 0 1117 0 0.173648 0.984808<180.746 1273.39>
LayerCount: 2
Fore
SplineSet
612 816 m 0
 593 816 492 815 455 888 c 1
 452 872 451 857 451 843 c 0
 451 753 507 698 602 698 c 2
 805 698 l 1
 774 520 l 1
 579 520 l 2
 565 520 495 491 483 427 c 2
 439 178 l 1
 968 178 l 1
 1158 1254 l 1
 1338 1254 l 1
 1117 0 l 1
 228 0 l 1
 310 465 l 2
 320 521 345 565 385 597 c 1
 362 608 276 696 276 817 c 0
 276 1006 424 1260 669 1260 c 0
 804 1260 871 1174 871 1078 c 0
 871 947 749 816 612 816 c 0
626 949 m 0
 689 949 732 1003 732 1054 c 0
 732 1097 701 1127 659 1127 c 0
 610 1127 550 1087 550 1022 c 0
 550 978 582 949 626 949 c 0
EndSplineSet
EndChar

StartChar: uni0E23
Encoding: 3619 3619 158
Width: 1172
VWidth: 2045
Flags: W
HStem: -8 134<548.496 701.671> 305 133<565.958 717.295> 744 178<475 751.984> 1101 178<641.866 982.481>
VStem: 405 138<133.824 280.359> 758 183<435.469 735.999>
DStem2: 639.24 -8 819.503 -8 0.173648 0.984808<447.803 692.923>
LayerCount: 2
Fore
SplineSet
618 126 m 0
 674 126 724 177 724 230 c 0
 724 274 690 305 650 305 c 0
 597 305 543 258 543 200 c 0
 543 156 575 126 618 126 c 0
405 178 m 0
 405 319 537 438 672 438 c 0
 691 438 707 436 717 433 c 1
 756 653 l 2
 757 661 758 668 758 675 c 0
 758 730 714 744 679 744 c 2
 216 744 l 1
 269 1043 555 1279 850 1279 c 0
 1067 1279 1208 1162 1270 1013 c 1
 1098 924 l 1
 1078 971 1005 1101 818 1101 c 0
 631 1101 511 968 475 922 c 1
 707 922 l 2
 811 922 941 858 941 706 c 0
 941 690 939 672 936 653 c 2
 859 216 l 2
 837 91 719 -8 594 -8 c 0
 480 -8 405 74 405 178 c 0
EndSplineSet
EndChar

StartChar: uni0E24
Encoding: 3620 3620 159
Width: 1367
VWidth: 2045
Flags: W
HStem: -8 134<443.961 596.663> 305 133<521.476 613.415> 744 178<576 668> 1101 178<681.186 1021.04>
VStem: 300 138<133.161 282.016> 620 138<148.132 298.164> 1161 182<665.334 959.164>
DStem2: 168.11 -551 347.494 -551 0.173648 0.984808<1030.33 1314.9> 927 -551 1107 -551 0.173648 0.984808<31.2567 1378.02>
LayerCount: 2
Fore
SplineSet
512 126 m 0
 569 126 620 176 620 230 c 0
 620 274 586 305 544 305 c 0
 490 305 438 257 438 199 c 0
 438 156 470 126 512 126 c 0
256 744 m 1
 396 744 l 1
758 255 m 0
 758 114 627 -8 490 -8 c 0
 376 -8 300 74 300 177 c 0
 300 189 301 201 303 214 c 2
 396 744 l 1
 256 744 l 1
 308 1036 589 1279 891 1279 c 0
 1156 1279 1343 1086 1343 836 c 0
 1343 806 1341 775 1335 744 c 2
 1107 -551 l 1
 927 -551 l 1
 1155 744 l 2
 1159 766 1161 787 1161 808 c 0
 1161 974 1040 1101 859 1101 c 0
 672 1101 551 969 517 922 c 1
 700 922 l 1
 668 744 l 1
 576 744 l 1
 521 433 l 1
 533 436 549 438 568 438 c 0
 679 438 758 360 758 255 c 0
EndSplineSet
EndChar

StartChar: uni0E25
Encoding: 3621 3621 160
Width: 1385
VWidth: 2045
Flags: W
HStem: -8 134<429.375 581.78> 305 133<507.484 598.423> 675 178<598.763 930.097> 1101 178<663.593 1005.85>
VStem: 236 180<744 865.299> 284 139<132.751 281.079> 605 138<148.3 298.164> 1140 183<719.578 965.738>
DStem2: 1001.59 -8 1181.59 -8 0.173648 0.984808<39.3801 394.116 737.269 827.652>
LayerCount: 2
Fore
SplineSet
743 255 m 0xfb
 743 114 612 -8 475 -8 c 0
 363 -8 284 72 284 176 c 0xf7
 284 188 286 201 288 214 c 2
 337 495 l 2
 376 716 557 853 795 853 c 0
 892 853 967 836 1020 803 c 0
 1072 770 1109 741 1130 718 c 9
 1134 744 l 2
 1138 766 1140 788 1140 809 c 0
 1140 980 1013 1101 839 1101 c 0
 641 1101 451 942 416 744 c 1
 236 744 l 1
 289 1041 574 1279 871 1279 c 0
 1125 1279 1323 1101 1323 840 c 0
 1323 809 1320 777 1314 744 c 2
 1183 0 l 1
 1003 0 l 1
 1059 317 l 2
 1063 339 1065 361 1065 382 c 0
 1065 554 937 675 764 675 c 0
 609 675 536 603 517 496 c 2
 506 433 l 1
 519 436 534 438 553 438 c 0
 664 438 743 360 743 255 c 0xfb
498 126 m 0
 549 126 605 172 605 230 c 0
 605 274 571 305 530 305 c 0
 479 305 423 257 423 200 c 0
 423 159 452 126 498 126 c 0
EndSplineSet
EndChar

StartChar: uni0E26
Encoding: 3622 3622 161
Width: 1504
VWidth: 2045
Flags: W
HStem: -8 134<294.502 446.805> 305 133<312.986 463.365> 744 178<698 787> 1101 178<782.469 1119.28>
VStem: 151 138<133.506 280.9> 1258 183<665.395 958.103>
DStem2: 289.494 -551 469.757 -551 0.173648 0.984808<999.18 1315.01> 1025 -551 1204.82 -551 0.173648 0.984808<32.2415 1374.94>
LayerCount: 2
Fore
SplineSet
151 177 m 0
 151 309 273 438 419 438 c 0
 438 438 453 436 463 433 c 1
 518 744 l 1
 354 744 l 1
 406 1038 692 1279 988 1279 c 0
 1259 1279 1441 1083 1441 836 c 0
 1441 806 1439 775 1433 744 c 2
 1205 -550 l 1
 1025 -551 l 1
 1253 744 l 2
 1257 765 1258 785 1258 805 c 0
 1258 969 1137 1101 957 1101 c 0
 821 1101 692 1023 614 922 c 1
 819 922 l 1
 787 744 l 1
 698 744 l 1
 605 216 l 2
 582 87 461 -8 341 -8 c 0
 224 -8 151 74 151 177 c 0
364 126 m 0
 414 126 470 171 470 232 c 0
 470 275 437 305 396 305 c 0
 343 305 289 258 289 200 c 0
 289 156 321 126 364 126 c 0
EndSplineSet
EndChar

StartChar: uni0E27
Encoding: 3623 3623 162
Width: 1174
VWidth: 2045
Flags: W
HStem: -8 134<727.956 881.271> 305 133<743.63 897.385> 1096 180<588.168 879.276>
VStem: 244 181<829 937.418> 585 137<132.248 281.094> 971 183<618.453 1008.58>
DStem2: 819.24 -8 999.503 -8 0.173648 0.984808<447.803 896.23>
LayerCount: 2
Fore
SplineSet
585 176 m 0
 585 311 706 438 854 438 c 0
 872 438 887 436 897 433 c 1
 967 829 l 2
 970 845 971 861 971 876 c 0
 971 1003 874 1096 743 1096 c 0
 591 1096 451 978 425 829 c 1
 244 829 l 17
 286 1066 514 1276 775 1276 c 0
 1006 1276 1154 1110 1154 906 c 0
 1154 881 1152 855 1147 829 c 2
 1039 216 l 2
 1017 89 896 -8 774 -8 c 0
 662 -8 585 71 585 176 c 0
797 126 m 0
 856 126 904 178 904 230 c 0
 904 270 876 305 829 305 c 0
 777 305 722 258 722 199 c 0
 722 159 749 126 797 126 c 0
EndSplineSet
EndChar

StartChar: uni0E28
Encoding: 3624 3624 163
Width: 1398
VWidth: 2045
Flags: W
HStem: 0 21G<161 351.888 1040 1223.52> 453 133<720.024 873.357> 764 133<736.101 890.086> 1088 180<707.177 1045.09>
VStem: 896 139<608.542 757.297> 1176 182<538.664 851.5> 1365 178<1206.92 1338>
DStem2: 161 0 341.223 0 0.173648 0.984808<358.263 964.169> 398 322 341 0 0.478139 0.878284<0 279.725> 1040 0 1220 0 0.173648 0.984808<31.2567 810.492>
LayerCount: 2
Fore
SplineSet
1035 715 m 0
 1035 574 902 453 768 453 c 0
 703 453 656 474 623 518 c 1
 341 0 l 1
 161 0 l 1
 290 734 l 2
 354 1095 666 1268 915 1268 c 0
 1091 1268 1174 1209 1261 1109 c 1
 1316 1178 1350 1254 1365 1338 c 1
 1543 1338 l 1
 1512 1163 1413 1025 1341 953 c 1
 1352 914 1358 873 1358 830 c 0
 1358 799 1355 767 1349 734 c 2
 1220 0 l 1
 1040 0 l 1
 1169 733 l 2
 1174 757 1176 779 1176 800 c 0
 1176 807 1176 814 1175 820 c 1
 1121 789 1072 768 1029 757 c 1
 1033 744 1035 730 1035 715 c 0
1115 976 m 1
 1063 1052 988 1088 886 1088 c 0
 662 1088 503 915 470 734 c 1
 398 322 l 1
 618 769 l 2
 627 789 704 896 844 897 c 0
 957 898 1048 925 1115 976 c 1
790 586 m 0
 842 586 896 633 896 690 c 0
 896 731 867 764 821 764 c 0
 766 764 714 715 714 660 c 0
 714 615 749 586 790 586 c 0
EndSplineSet
EndChar

StartChar: uni0E29
Encoding: 3625 3625 164
Width: 1505
VWidth: 2045
Flags: W
HStem: 0 178<321 412 590 1112> 384 193<805.631 1058.57> 384 163<1037 1150.14> 755 133<822.323 975.638> 814 134<433.288 522.771> 1127 133<451.761 602.754>
VStem: 290 138<955.737 1103.74> 609 139<969.288 1119.73> 982 139<599.015 749.272>
DStem2: 380.614 0 558.614 0 0.173648 0.984808<211.655 637.14 775.241 831.63> 1080.61 0 1261 0 0.173648 0.984808<180.746 417.326 560.626 604.203 851.706 1273.39>
LayerCount: 2
Fore
SplineSet
290 1000 m 0xaf80
 290 1131 413 1260 557 1260 c 0
 669 1260 748 1181 748 1075 c 0
 748 1063 746 1049 744 1036 c 2
 688 733 l 1
 704 767 775 888 930 888 c 0x9780
 1040 888 1121 805 1121 710 c 0
 1121 658 1093 585 1037 547 c 1
 1049 547 l 2
 1095 547 1140 558 1183 580 c 9
 1302 1254 l 1
 1482 1254 l 1
 1403 808 l 1
 1529 713 l 1
 1473 627 1414 560 1351 511 c 1
 1261 0 l 1
 290 0 l 1
 321 178 l 1
 412 178 l 1
 525 819 l 1
 508 816 493 814 479 814 c 0
 365 814 290 896 290 1000 c 0xaf80
1153 411 m 17
 1092 393 1030 384 967 384 c 1xc780
 846 386 763 416 718 474 c 0
 686 516 668 557 664 597 c 1
 590 178 l 1
 1112 178 l 1
 1153 411 l 17
875 577 m 0
 934 577 982 628 982 683 c 0
 982 723 953 755 906 755 c 0xd780
 844 755 799 700 799 651 c 0
 799 610 828 577 875 577 c 0
503 948 m 0x8f80
 556 948 609 995 609 1053 c 0
 609 1096 577 1127 535 1127 c 0
 475 1127 428 1074 428 1021 c 0
 428 977 462 948 503 948 c 0x8f80
EndSplineSet
EndChar

StartChar: uni0E2A
Encoding: 3626 3626 165
Width: 1385
VWidth: 2045
Flags: W
HStem: -8 134<429.375 581.78> 305 133<507.484 598.423> 675 178<600.326 928.343> 1101 178<663.593 1002.19>
VStem: 236 180<744 865.299> 284 139<132.751 281.079> 605 138<148.3 298.164> 1144 179<709.547 817> 1327 178<1164.66 1300>
DStem2: 1001.59 -8 1181.59 -8 0.173648 0.984808<39.3801 393.176 728.058 836.513>
LayerCount: 2
Fore
SplineSet
1144 817 m 1xf380
 1118 800 1089 785 1058 773 c 1
 1086 756 1110 735 1128 709 c 1
 1134 744 l 2
 1141 781 1144 806 1144 817 c 1xf380
743 255 m 0
 743 114 612 -8 475 -8 c 0
 363 -8 284 72 284 176 c 0xf780
 284 188 286 201 288 214 c 2
 337 495 l 2
 376 716 557 853 795 853 c 0
 910 853 1001 887 1103 954 c 1
 1081 989 1013 1101 839 1101 c 0
 641 1101 451 942 416 744 c 1
 236 744 l 1xfb80
 289 1041 574 1279 871 1279 c 0
 1037 1279 1165 1204 1243 1098 c 1
 1287 1161 1315 1229 1327 1300 c 1
 1505 1300 l 1
 1479 1151 1416 1036 1316 927 c 1
 1321 900 1323 872 1323 844 c 0
 1323 812 1320 778 1314 744 c 2
 1183 0 l 1
 1003 0 l 1
 1059 317 l 2
 1063 339 1065 361 1065 381 c 0
 1065 555 935 675 764 675 c 0
 609 675 536 603 517 496 c 2
 506 433 l 1
 519 436 534 438 553 438 c 0
 664 438 743 360 743 255 c 0
498 126 m 0
 549 126 605 172 605 230 c 0
 605 274 571 305 530 305 c 0
 479 305 423 257 423 200 c 0
 423 159 452 126 498 126 c 0
EndSplineSet
EndChar

StartChar: uni0E2B
Encoding: 3627 3627 166
Width: 1507
VWidth: 2045
Flags: W
HStem: 0 21G<366 559.983 1120 1303.51> 814 134<418.288 508.654> 1127 133<436.761 587.486 1186.6 1348.69>
VStem: 275 138<955.737 1103.74> 594 138<974.145 1119.95> 1032 138<963.318 1115.95> 1240 182<589.957 766.298> 1352 137<979.575 1129.45>
DStem2: 366 0 546.281 0 0.173648 0.984808<352.18 831.563> 602 316 546 0 0.573003 0.819554<0 687.1> 1120 0 1300 0 0.173648 0.984808<31.2567 700.032>
LayerCount: 2
Fore
SplineSet
1245 958 m 0xfd
 1307 958 1352 1013 1352 1064 c 0
 1352 1108 1318 1137 1276 1137 c 0
 1218 1137 1170 1089 1170 1029 c 0
 1170 986 1201 958 1245 958 c 0xfd
1032 1006 m 0
 1032 1152 1164 1270 1300 1270 c 0
 1406 1270 1489 1197 1489 1089 c 0xfd
 1489 1051 1478 947 1369 874 c 1
 1404 838 1422 789 1422 728 c 0
 1422 705 1420 681 1415 655 c 2
 1300 0 l 1
 1120 0 l 1
 1238 670 l 2
 1239 676 1240 683 1240 690 c 0xfe
 1240 729 1221 777 1146 777 c 0
 1108 777 1075 757 1048 718 c 2
 546 0 l 1
 366 0 l 1
 510 819 l 1
 493 816 478 814 464 814 c 0
 350 814 275 896 275 1000 c 0
 275 1131 398 1260 542 1260 c 0
 652 1260 732 1182 732 1075 c 0
 732 1062 731 1049 729 1036 c 2
 602 316 l 1
 920 783 l 2
 960 841 1005 885 1056 915 c 1
 1040 942 1032 972 1032 1006 c 0
488 948 m 0
 536 948 594 989 594 1053 c 0
 594 1097 563 1127 520 1127 c 0
 460 1127 413 1074 413 1021 c 0
 413 977 447 948 488 948 c 0
EndSplineSet
EndChar

StartChar: uni0E2C
Encoding: 3628 3628 167
Width: 1654
VWidth: 2045
Flags: W
HStem: 0 21G<366 557.24 1195.8 1383.53> 814 134<418.288 508.654> 1127 133<436.761 588.109 1302.07 1397.28> 1430 134<1323.02 1474.88>
VStem: 275 138<955.737 1103.74> 594 138<969.129 1121.27> 1161 138<1258.43 1406.1>
DStem2: 365.588 0 544.179 0 0.173648 0.984808<467.645 831.634> 1127 1118 1022 847 0.205661 -0.978623<243.612 701.979> 1199.83 0 1380 0 0.173648 0.984808<438.664 1139.37>
AnchorPoint: "AboveBase" 1064 1339 basechar 0
LayerCount: 2
Fore
SplineSet
1161 1302 m 0
 1161 1434 1281 1564 1430 1564 c 0
 1543 1564 1590 1485 1601 1462 c 1
 1703 1548 l 1
 1807 1421 l 1
 1600 1246 l 1
 1380 0 l 1
 1200 0 l 1
 1022 847 l 1
 546 0 l 1
 366 0 l 1
 510 819 l 1
 495 816 479 814 464 814 c 0
 350 814 275 896 275 1000 c 0
 275 1131 398 1260 542 1260 c 0
 656 1260 732 1178 732 1074 c 0
 732 1062 731 1049 729 1036 c 2
 620 430 l 1
 1011 1118 l 1
 1127 1118 l 1
 1276 432 l 1
 1398 1122 l 1
 1383 1119 1368 1118 1351 1118 c 0
 1242 1118 1161 1196 1161 1302 c 0
1374 1252 m 0
 1430 1252 1482 1300 1482 1356 c 0
 1482 1397 1452 1430 1406 1430 c 0
 1344 1430 1299 1373 1299 1325 c 0
 1299 1285 1328 1252 1374 1252 c 0
488 948 m 0
 536 948 594 989 594 1053 c 0
 594 1097 563 1127 520 1127 c 0
 460 1127 413 1074 413 1021 c 0
 413 977 447 948 488 948 c 0
EndSplineSet
EndChar

StartChar: uni0E2D
Encoding: 3629 3629 168
Width: 1364
VWidth: 2045
Flags: W
HStem: 0 178<547 1026> 454 133<597.86 749.188> 765 134<611.552 767.65> 1101 178<654.413 993.376>
VStem: 227 180<744 865.922> 773 136<609.122 758.172> 1132 182<536.992 961.354>
DStem2: 337 0 515.614 0 0.173648 0.984808<211.762 499.944> 994.614 0 1175 0 0.173648 0.984808<180.746 817.627>
LayerCount: 2
Fore
SplineSet
909 715 m 0
 909 575 778 454 642 454 c 0
 627 454 612 455 599 457 c 1
 547 178 l 1
 1026 178 l 1
 1126 743 l 2
 1130 765 1132 786 1132 807 c 0
 1132 977 1005 1101 829 1101 c 0
 632 1101 442 941 407 744 c 1
 227 744 l 1
 280 1043 566 1279 861 1279 c 0
 1127 1279 1314 1088 1314 836 c 0
 1314 806 1312 775 1306 743 c 2
 1175 0 l 1
 337 0 l 1
 457 678 l 2
 477 796 591 899 721 899 c 0
 836 899 909 817 909 715 c 0
697 765 m 0
 632 765 591 709 591 660 c 0
 591 619 619 587 666 587 c 0
 724 587 773 637 773 694 c 0
 773 735 744 765 697 765 c 0
EndSplineSet
EndChar

StartChar: uni0E2E
Encoding: 3630 3630 169
Width: 1298
VWidth: 2045
Flags: W
HStem: 0 178<412 929> 306 133<434.887 588.495> 617 133<451.351 605.118> 800 160<511.035 928.663> 1104 175<532.784 898.267>
VStem: 293 213<978.098 1072.85> 612 137<461.365 610.105> 1034 183<536.992 876.32>
DStem2: 897.614 0 1078 0 0.173648 0.984808<180.746 814.545>
LayerCount: 2
Fore
SplineSet
726 1104 m 0
 548 1104 506 1052 506 1017 c 0
 506 971 614 960 703 960 c 0
 791 960 874 978 952 1014 c 1
 899 1074 823 1104 726 1104 c 0
749 567 m 0
 749 427 618 306 481 306 c 0
 464 306 449 307 435 309 c 1
 412 178 l 1
 929 178 l 1
 1029 743 l 2
 1033 764 1034 784 1034 804 c 0
 1034 830 1032 854 1026 878 c 1
 920 825 800 800 647 800 c 0
 375 800 293 940 293 1008 c 0
 293 1085 420 1279 771 1279 c 0
 957 1279 1076 1173 1117 1123 c 1
 1168 1170 1207 1221 1233 1276 c 1
 1371 1194 l 1
 1330 1120 1271 1051 1192 987 c 1
 1209 940 1217 889 1217 837 c 0
 1217 806 1215 775 1209 743 c 2
 1078 0 l 1
 201 0 l 1
 294 528 l 2
 316 652 434 750 559 750 c 0
 670 750 749 672 749 567 c 0
535 617 m 0
 474 617 429 562 429 512 c 0
 429 468 462 439 503 439 c 0
 552 439 612 481 612 544 c 0
 612 585 581 617 535 617 c 0
EndSplineSet
EndChar

StartChar: uni0E2F
Encoding: 3631 3631 170
Width: 1295
VWidth: 2045
Flags: W
HStem: 0 21G<919 1102.52> 719 174<497 896.339> 1118 134<453.978 604.62>
VStem: 293 137<947.137 1095.35> 612 139<959.977 1111.31>
DStem2: 919 0 1099 0 0.173648 0.984808<31.2567 866.088>
LayerCount: 2
Fore
SplineSet
293 985 m 0
 293 1118 412 1252 561 1252 c 0
 678 1252 751 1171 751 1068 c 0
 751 1001 722 944 670 899 c 1
 689 894 704 893 719 893 c 0
 914 893 1105 1054 1140 1252 c 1
 1140 1254 l 1
 1320 1254 l 1
 1099 0 l 1
 919 0 l 1
 1069 853 l 1
 1004 798 858 719 630 719 c 0
 364 719 293 877 293 985 c 0
507 940 m 0
 570 940 612 996 612 1045 c 0
 612 1088 581 1118 538 1118 c 0
 474 1118 430 1062 430 1015 c 0
 430 976 457 940 507 940 c 0
EndSplineSet
EndChar

StartChar: uni0E30
Encoding: 3632 3632 171
Width: 1158
VWidth: 2045
Flags: W
HStem: 45 193<293.897 579.566> 45 163<526 693.037> 417 133<310.635 464.987> 665 193<402.511 685.151> 665 163<635 801.303> 1036 133<419.915 574.092>
VStem: 153 135<244.791 392.623> 261 136<864.481 1011.98> 471 139<260.037 410.041> 580 139<880.094 1029.52>
LayerCount: 2
Fore
SplineSet
719 990 m 0x3540
 719 937 692 864 635 828 c 1
 649 828 l 2x2d40
 820 828 928 965 1002 1089 c 1
 1126 994 l 1
 1032 847 868 665 569 665 c 0
 325 665 261 798 261 900 c 0
 261 1033 373 1169 528 1169 c 0
 642 1169 719 1082 719 990 c 0x3540
473 858 m 0x3540
 529 858 580 906 580 962 c 0
 580 1002 553 1036 505 1036 c 0
 447 1036 397 986 397 929 c 0
 397 888 427 858 473 858 c 0x3540
610 371 m 0xa680
 610 318 583 246 526 208 c 1
 538 208 l 2x6680
 709 208 816 342 893 470 c 1
 1017 375 l 1
 926 233 761 45 464 45 c 0
 196 45 153 194 153 281 c 0
 153 426 276 550 419 550 c 0
 533 550 610 463 610 371 c 0xa680
364 238 m 0xa680
 418 238 471 285 471 343 c 0
 471 386 438 417 396 417 c 0
 344 417 288 372 288 310 c 0
 288 266 321 238 364 238 c 0xa680
EndSplineSet
EndChar

StartChar: uni0E31
Encoding: 3633 3633 172
Width: 0
VWidth: 2045
Flags: W
HStem: 1378 193<-381.356 -74.694> 1378 163<-150 59.6558> 1749 133<-367.197 -214.163>
VStem: -524 135<1577.62 1726.05> -206 139<1592.3 1742.54>
AnchorPoint: "AboveMark" 26 2070 basemark 0
AnchorPoint: "AboveBase" -42 1339 mark 0
LayerCount: 2
Fore
SplineSet
-67 1703 m 0xb8
 -67 1646 -97 1575 -150 1541 c 1
 -134 1541 l 2x78
 23 1541 169 1615 315 1802 c 1
 440 1707 l 1
 206 1405 -61 1378 -211 1378 c 0
 -475 1378 -524 1531 -524 1619 c 0
 -524 1744 -415 1882 -258 1882 c 0
 -141 1882 -67 1796 -67 1703 c 0xb8
-313 1571 m 0xb8
 -251 1571 -206 1626 -206 1673 c 0
 -206 1713 -232 1749 -282 1749 c 0
 -344 1749 -389 1696 -389 1643 c 0
 -389 1603 -360 1571 -313 1571 c 0xb8
EndSplineSet
EndChar

StartChar: uni0E32
Encoding: 3634 3634 173
Width: 1169
VWidth: 2045
Flags: W
HStem: 0 21G<798 981.522> 1096 180<565.959 861.162>
VStem: 221 181<829 937.823> 948 183<751.323 1008.58>
DStem2: 798 0 978 0 0.173648 0.984808<31.2567 888.985>
LayerCount: 2
Fore
SplineSet
751 1276 m 0
 975 1276 1131 1114 1131 906 c 0
 1131 881 1129 855 1124 829 c 2
 978 0 l 1
 798 0 l 1
 944 829 l 2
 947 845 948 861 948 877 c 0
 948 1006 850 1096 719 1096 c 0
 562 1096 428 974 402 829 c 1
 221 829 l 1
 265 1075 502 1276 751 1276 c 0
EndSplineSet
EndChar

StartChar: uni0E34
Encoding: 3636 3636 175
Width: 0
VWidth: 2045
Flags: W
HStem: 1726 174<-579.121 -245.545>
DStem2: -651 1636 -963 1507 0.9955 -0.0947639<0 508.366>
AnchorPoint: "AboveMark" 115 2070 basemark 0
AnchorPoint: "AboveBase" 73 1339 mark 0
LayerCount: 2
Fore
SplineSet
-145 1587 m 1
 -162 1616 -233 1720 -405 1726 c 1
 -440 1726 -601 1694 -651 1636 c 9
 -145 1587 l 1
-963 1507 m 17
 -824 1807 -545 1900 -377 1900 c 0
 -145 1900 78 1750 78 1449 c 0
 78 1435 78 1422 77 1408 c 1
 -963 1507 l 17
EndSplineSet
EndChar

StartChar: uni0E35
Encoding: 3637 3637 176
Width: 0
VWidth: 2045
Flags: W
HStem: 1723 174<-579.842 -243.457>
DStem2: -651 1633 -964 1504 0.995508 -0.0946737<0 507.371> -80.2459 1405 77.0324 1405 0.173648 0.984808<341.183 644.844>
AnchorPoint: "AboveBase" 77 1339 mark 0
AnchorPoint: "AboveMark" 115 2070 basemark 0
LayerCount: 2
Fore
SplineSet
-964 1504 m 1
 -825 1804 -546 1897 -378 1897 c 0
 -225 1897 -105 1824 -21 1741 c 9
 32 2040 l 1
 189 2040 l 1
 77 1405 l 1
 -964 1504 l 1
-146 1584 m 1
 -163 1613 -233 1717 -405 1723 c 1
 -440 1723 -602 1691 -651 1633 c 9
 -146 1584 l 1
EndSplineSet
EndChar

StartChar: uni0E36
Encoding: 3638 3638 177
Width: 0
VWidth: 2045
Flags: W
HStem: 1721 174<-579.958 -250.164> 1971 133<-98.1838 53.5982>
VStem: 60 138<1815.94 1964.74>
DStem2: -651 1631 -964 1502 0.9955 -0.0947639<0 507.371>
AnchorPoint: "AboveBase" 62 1339 mark 0
AnchorPoint: "AboveMark" 2 2070 basemark 0
LayerCount: 2
Fore
SplineSet
198 1921 m 0
 198 1815 121 1716 23 1677 c 1
 59 1612 77 1535 77 1447 c 0
 77 1433 77 1418 76 1403 c 1
 -964 1502 l 1
 -825 1802 -546 1895 -378 1895 c 0
 -329 1895 -279 1886 -256 1881 c 1
 -235 2002 -122 2104 8 2104 c 0
 119 2104 198 2027 198 1921 c 0
-47 1793 m 0
 6 1793 60 1841 60 1896 c 0
 60 1936 33 1971 -15 1971 c 0
 -76 1971 -123 1915 -123 1865 c 0
 -123 1821 -86 1793 -47 1793 c 0
-146 1582 m 1
 -163 1611 -234 1715 -406 1721 c 1
 -441 1721 -602 1689 -651 1631 c 9
 -146 1582 l 1
EndSplineSet
EndChar

StartChar: uni0E37
Encoding: 3639 3639 178
Width: 0
VWidth: 2045
Flags: W
HStem: 1728 174<-578.842 -241.785>
DStem2: -650 1638 -963 1509 0.995508 -0.0946737<0 507.371> -79.2459 1410 78.0324 1410 0.173648 0.984808<341.183 644.844>
AnchorPoint: "AboveMark" -3 2070 basemark 0
AnchorPoint: "AboveBase" 61 1339 mark 0
LayerCount: 2
Fore
SplineSet
-963 1509 m 1
 -824 1809 -545 1902 -377 1902 c 0
 -327 1902 -281 1894 -233 1879 c 1
 -203 2045 l 1
 -46 2045 l 1
 -89 1806 l 17
 -62 1785 -40 1765 -20 1746 c 1
 33 2045 l 1
 190 2045 l 1
 78 1410 l 1
 -963 1509 l 1
-145 1589 m 1
 -162 1618 -232 1722 -404 1728 c 1
 -439 1728 -601 1696 -650 1638 c 9
 -145 1589 l 1
EndSplineSet
EndChar

StartChar: uni0E38
Encoding: 3640 3640 179
Width: 0
VWidth: 2045
Flags: W
HStem: -532 133<-522.97 -432.357> -221 134<-506.062 -352.143>
VStem: -669 140<-392.378 -241.047> -347 138<-373.734 -226.566>
AnchorPoint: "BelowMark" -175 -88 mark 0
AnchorPoint: "BelowMark" -313 -874 basemark 0
AnchorPoint: "BelowBase" -175 -88 mark 0
LayerCount: 2
Fore
SplineSet
-669 -349 m 0
 -669 -217 -548 -87 -399 -87 c 0
 -281 -87 -209 -172 -209 -272 c 0
 -209 -284 -210 -296 -212 -308 c 2
 -291 -755 l 1
 -471 -755 l 9
 -431 -529 l 1
 -448 -531 -463 -532 -478 -532 c 0
 -590 -532 -669 -454 -669 -349 c 0
-454 -399 m 0
 -403 -399 -347 -352 -347 -294 c 0
 -347 -253 -376 -221 -423 -221 c 0
 -482 -221 -529 -271 -529 -325 c 0
 -529 -366 -498 -399 -454 -399 c 0
EndSplineSet
Substitution2: "Thai Sara U Mai Ek Reordering" uni0E48.low
Substitution2: "Thai Sara U Mai Tho Reordering" uni0E49.low
Substitution2: "Thai Sara U Mai Tri Reordering" uni0E4A.low
Substitution2: "Thai Sara U Mai Chattawa Reordering" uni0E4B.low
Substitution2: "Thai Sara U Thanthakhat Reordering" uni0E4C.low
Substitution2: "Thai Sara U Nikhahit Reordering" uni0E4D
EndChar

StartChar: uni0E39
Encoding: 3641 3641 180
Width: 0
VWidth: 2045
Flags: W
HStem: -775 156<-603 -440> -532 133<-859.43 -768.046> -221 134<-844.871 -687.917>
VStem: -1003 138<-391.448 -243.901> -683 138<-376.282 -228.132>
DStem2: -467.507 -775 -288 -775 0.173648 0.984808<158.407 700.617>
AnchorPoint: "BelowMark" -127 -85 mark 0
AnchorPoint: "BelowMark" -266 -874 basemark 0
AnchorPoint: "BelowBase" -127 -85 mark 0
LayerCount: 2
Fore
SplineSet
-1003 -348 m 0
 -1003 -217 -883 -87 -735 -87 c 0
 -616 -87 -545 -170 -545 -271 c 0
 -545 -283 -546 -295 -548 -308 c 2
 -603 -619 l 1
 -440 -619 l 1
 -346 -85 l 1
 -166 -85 l 1
 -288 -775 l 1
 -811 -775 l 25
 -767 -529 l 1
 -783 -531 -798 -532 -814 -532 c 0
 -927 -532 -1003 -452 -1003 -348 c 0
-790 -399 m 0
 -738 -399 -683 -352 -683 -293 c 0
 -683 -253 -711 -221 -759 -221 c 0
 -814 -221 -865 -267 -865 -326 c 0
 -865 -371 -829 -399 -790 -399 c 0
EndSplineSet
Substitution2: "Thai Sara UU Mai Ek Reordering" uni0E48.low
Substitution2: "Thai Sara UU Mai Tho Reordering" uni0E49.low
Substitution2: "Thai Sara UU Mai Tri Reordering" uni0E4A.low
Substitution2: "Thai Sara UU Mai Chattawa Reordering" uni0E4B.low
Substitution2: "Thai Sara UU Thanthakhat Reordering" uni0E4C.low
Substitution2: "Thai Sara UU Nikhahit Reordering" uni0E4D
EndChar

StartChar: uni0E3A
Encoding: 3642 3642 181
Width: 0
VWidth: 2045
Flags: W
HStem: -438 356<-514.693 -321.328>
VStem: -600 366<-348.719 -166.932>
AnchorPoint: "BelowMark" -200 -86 mark 0
AnchorPoint: "BelowMark" -280 -537 basemark 0
AnchorPoint: "BelowBase" -200 -86 mark 0
LayerCount: 2
Fore
SplineSet
-234 -227 m 0
 -234 -333 -330 -438 -447 -438 c 0
 -535 -438 -600 -376 -600 -290 c 0
 -600 -176 -497 -82 -384 -82 c 0
 -291 -82 -234 -146 -234 -227 c 0
EndSplineSet
Substitution2: "Thai Phinthu Maitaikhu Reordering" uni0E47
Substitution2: "Thai Phinthu Mai Ek Reordering" uni0E48.low
Substitution2: "Thai Phinthu Mai Tho Reordering" uni0E49.low
Substitution2: "Thai Phinthu Mai Tri Reordering" uni0E4A.low
Substitution2: "Thai Phinthu Mai Chattawa Reordering" uni0E4B.low
Substitution2: "Thai Phinthu Thanthakhat Reordering" uni0E4C.low
Substitution2: "Thai Phinthu Nikhahit Reordering" uni0E4D
EndChar

StartChar: uni0E3F
Encoding: 3647 3647 182
Width: 1364
VWidth: 2045
Flags: W
HStem: 0 172<375 550 737 982.622> 669 174<494 668 856 1047.61> 1278 172<570 775 963 1120.98>
VStem: 1134 202<313.532 592.556> 1185 196<972.262 1219.88>
DStem2: 141.901 -131 321.573 -131 0.173648 0.984808<338.874 843.604 1020.34 1461.93> 527 -131 684 -131 0.173648 0.984808<27.2628 133.004 334.863 812.331 1016.33 1430.66 1632.69 1755.7>
LayerCount: 2
Fore
SplineSet
1381 1146 m 0xe8
 1381 1045 1332 869 1116 772 c 1
 1247 734 1336 636 1336 490 c 0xf0
 1336 349 1255 0 707 0 c 9
 684 -131 l 1
 527 -131 l 1
 550 0 l 1
 165 0 l 1
 421 1450 l 1
 806 1450 l 1
 832 1598 l 1
 989 1598 l 1
 963 1450 l 1
 1317 1448 1381 1270 1381 1146 c 0xe8
856 843 m 17
 955 846 1144 852 1180 1056 c 0
 1183 1075 1185 1093 1185 1109 c 0xe8
 1185 1266 1030 1271 932 1276 c 1
 856 843 l 17
737 172 m 17
 891 172 1089 194 1129 420 c 0
 1132 440 1134 458 1134 475 c 0xf0
 1134 628 998 664 825 669 c 1
 737 172 l 17
580 172 m 25
 668 669 l 1
 463 669 l 1
 375 172 l 1
 580 172 l 25
698 841 m 25
 775 1278 l 1
 570 1278 l 1
 494 843 l 1
 698 841 l 25
EndSplineSet
EndChar

StartChar: uni0E40
Encoding: 3648 3648 183
Width: 706
VWidth: 2045
Flags: W
HStem: -8 134<364.832 518.617> 305 133<445.782 534.961> 1234 20G<405.481 589>
VStem: 223 136<133.288 281.717> 541 137<149.55 298.754>
DStem2: 186.855 -8 366.24 -8 0.173648 0.984808<478.953 1281.4>
LayerCount: 2
Fore
SplineSet
434 126 m 0
 487 126 541 173 541 231 c 0
 541 270 515 305 466 305 c 0
 402 305 359 248 359 200 c 0
 359 160 388 126 434 126 c 0
678 256 m 0
 678 118 551 -8 411 -8 c 0
 295 -8 223 75 223 176 c 0
 223 188 224 201 226 214 c 2
 409 1254 l 1
 589 1254 l 1
 444 433 l 1
 457 436 472 438 489 438 c 0
 602 438 678 359 678 256 c 0
EndSplineSet
EndChar

StartChar: uni0E41
Encoding: 3649 3649 184
Width: 1277
VWidth: 2045
Flags: W
HStem: -8 134<344.832 498.617 932.219 1083.53> 305 133<425.782 514.961 1009.99 1101.42> 1234 20G<385.481 569 970.481 1154>
VStem: 203 136<133.288 281.717> 521 137<149.55 298.754> 787 139<132.504 280.804> 1108 138<150.368 298.164>
DStem2: 166.855 -8 346.24 -8 0.173648 0.984808<478.953 1281.4> 751.855 -8 931.24 -8 0.173648 0.984808<478.953 1281.4>
LayerCount: 2
Fore
SplineSet
1001 126 m 0
 1046 126 1108 168 1108 230 c 0
 1108 274 1074 305 1033 305 c 0
 979 305 926 258 926 200 c 0
 926 160 955 126 1001 126 c 0
1246 255 m 0
 1246 123 1123 -8 978 -8 c 0
 865 -8 787 72 787 175 c 0
 787 188 789 201 791 214 c 2
 974 1254 l 1
 1154 1254 l 1
 1009 433 l 1
 1021 436 1037 438 1056 438 c 0
 1167 438 1246 360 1246 255 c 0
414 126 m 0
 467 126 521 173 521 231 c 0
 521 270 495 305 446 305 c 0
 382 305 339 248 339 200 c 0
 339 160 368 126 414 126 c 0
658 256 m 0
 658 118 531 -8 391 -8 c 0
 275 -8 203 75 203 176 c 0
 203 188 204 201 206 214 c 2
 389 1254 l 1
 569 1254 l 1
 424 433 l 1
 437 436 452 438 469 438 c 0
 582 438 658 359 658 256 c 0
EndSplineSet
EndChar

StartChar: uni0E42
Encoding: 3650 3650 185
Width: 852
VWidth: 2045
Flags: W
HStem: -8 134<491.677 643.905> 305 133<572.564 660.87> 1542 178<289 568.518> 1899 178<455.584 796.305>
VStem: 350 136<132.941 277.855> 573 183<1234.16 1534.15> 668 137<147.145 299.689>
DStem2: 313.855 -8 493.24 -8 0.173648 0.984808<478.953 1503.18>
LayerCount: 2
Fore
SplineSet
805 256 m 0xfa
 805 122 685 -8 538 -8 c 0
 422 -8 350 75 350 176 c 0
 350 188 351 201 353 214 c 2
 571 1452 l 2
 572 1459 573 1466 573 1473 c 0
 573 1517 544 1542 494 1542 c 2
 30 1542 l 1
 82 1836 365 2077 664 2077 c 0
 878 2077 1023 1959 1084 1811 c 1
 913 1722 l 1
 892 1772 820 1899 633 1899 c 0
 446 1899 327 1769 289 1720 c 1
 520 1720 l 2
 635 1720 756 1651 756 1505 c 0xfc
 756 1488 754 1471 751 1452 c 2
 571 433 l 1
 583 436 598 438 616 438 c 0
 722 438 805 365 805 256 c 0xfa
561 126 m 0
 623 126 668 181 668 231 c 0xfa
 668 270 642 305 593 305 c 0
 532 305 486 251 486 200 c 0
 486 160 513 126 561 126 c 0
EndSplineSet
EndChar

StartChar: uni0E43
Encoding: 3651 3651 186
Width: 909
VWidth: 2045
Flags: W
HStem: -8 134<551.375 702.528> 305 133<629.017 720.423> 1384 133<271.961 423.968> 1695 136<348.227 441.184> 1903 178<386.958 631.046>
VStem: 104 161<1525.25 1671.97> 406 139<132.821 271.82> 447 140<1540.07 1689.33> 678 183<1502.66 1857.34> 727 138<150.368 298.164>
DStem2: 370.855 -8 550.24 -8 0.173648 0.984808<478.953 1786.09>
LayerCount: 2
Fore
SplineSet
341 1517 m 0xfd
 403 1517 447 1572 447 1622 c 0
 447 1665 416 1695 373 1695 c 0
 320 1695 265 1648 265 1591 c 0
 265 1550 294 1517 341 1517 c 0xfd
620 126 m 0
 665 126 727 168 727 230 c 0
 727 274 693 305 652 305 c 0
 598 305 545 258 545 200 c 0xfe40
 545 160 574 126 620 126 c 0
865 255 m 0
 865 123 742 -8 597 -8 c 0
 485 -8 406 72 406 176 c 0xfe40
 406 188 408 201 410 214 c 2
 675 1719 l 2
 677 1730 678 1741 678 1752 c 0
 678 1845 602 1903 522 1903 c 0
 446 1903 398 1883 347 1823 c 1
 364 1823 392 1831 423 1831 c 0
 500 1831 587 1777 587 1657 c 0
 587 1499 453 1384 317 1384 c 0
 227 1384 104 1446 104 1609 c 0
 104 1828 284 2081 555 2081 c 0
 741 2081 861 1949 861 1782 c 0xfd80
 861 1761 859 1740 855 1719 c 2
 628 433 l 1
 641 436 656 438 675 438 c 0
 786 438 865 360 865 255 c 0
EndSplineSet
EndChar

StartChar: uni0E44
Encoding: 3652 3652 187
Width: 903
VWidth: 2045
Flags: W
HStem: -8 134<551.375 702.528> 305 133<629.017 720.423>
VStem: 265 160<1775.19 2167.17> 406 139<132.821 273.804> 727 138<150.368 298.164>
DStem2: -91.6039 -8 65.8988 -8 0.173648 0.984808<1807.39 2070.38> 370.855 -8 550.24 -8 0.173648 0.984808<478.953 1882.64> 375 1745 344 1521 0.740955 0.671554<0 307.156>
LayerCount: 2
Fore
SplineSet
865 255 m 0xe8
 865 123 742 -8 597 -8 c 0
 485 -8 406 72 406 176 c 0xd8
 406 188 408 201 410 214 c 2
 698 1846 l 1
 344 1521 l 1
 178 1521 l 1
 262 1997 l 2
 264 2009 265 2020 265 2032 c 0
 265 2071 253 2106 228 2136 c 1
 348 2238 l 1
 399 2190 425 2130 425 2058 c 0
 425 2039 423 2018 419 1997 c 2
 375 1745 l 1
 738 2074 l 1
 918 2074 l 25
 628 433 l 1
 641 436 656 438 675 438 c 0
 786 438 865 360 865 255 c 0xe8
620 126 m 0
 665 126 727 168 727 230 c 0
 727 274 693 305 652 305 c 0
 598 305 545 258 545 200 c 0
 545 160 574 126 620 126 c 0
EndSplineSet
EndChar

StartChar: uni0E45
Encoding: 3653 3653 188
Width: 1090
VWidth: 2045
Flags: W
HStem: 1096 180<434.631 734.204>
VStem: 94 181<829 937.823> 821 183<749.865 1006.03>
DStem2: 574 -551 754 -551 0.173648 0.984808<31.2567 1447.52>
LayerCount: 2
Fore
SplineSet
624 1276 m 0
 852 1276 1004 1110 1004 904 c 0
 1004 880 1001 855 997 829 c 2
 754 -551 l 1
 574 -551 l 1
 817 829 l 2
 820 845 821 861 821 876 c 0
 821 1000 730 1096 592 1096 c 0
 436 1096 301 974 275 829 c 1
 94 829 l 1
 138 1078 379 1276 624 1276 c 0
EndSplineSet
EndChar

StartChar: uni0E46
Encoding: 3654 3654 189
Width: 1648
VWidth: 2045
Flags: W
HStem: 571 133<585.818 738.183> 882 132<660.281 755.388> 1238 20G<706 875.556 1111.57 1193>
VStem: 426 153<711.767 860.266> 761 140<726.786 875.473> 1213 182<790.734 1039.44>
DStem2: 958 -551 1138 -551 0.173648 0.984808<31.2567 1491.25>
LayerCount: 2
Fore
SplineSet
901 841 m 0
 901 702 780 571 632 571 c 0
 538 571 426 635 426 792 c 0
 426 967 566 1195 846 1258 c 1
 979 1168 l 1
 1150 1257 l 1
 1236 1237 1395 1147 1395 945 c 0
 1395 922 1393 897 1388 870 c 2
 1138 -551 l 1
 958 -551 l 1
 1208 870 l 2
 1211 887 1213 904 1213 919 c 0
 1213 1025 1141 1083 1075 1100 c 1
 953 1033 l 1
 853 1103 l 1
 794 1103 730 1069 659 1000 c 1
 673 1005 704 1014 732 1014 c 0
 786 1014 901 966 901 841 c 0
655 704 m 0
 708 704 761 752 761 810 c 0
 761 853 729 882 687 882 c 0
 630 882 579 834 579 777 c 0
 579 731 615 704 655 704 c 0
EndSplineSet
EndChar

StartChar: uni0E47
Encoding: 3655 3655 190
Width: 0
VWidth: 2045
Flags: W
HStem: 1367 112<-225.046 -102.398> 1476 131<-580.052 -426.05> 1612 112<-221.342 -95.1354> 1769 119<-622.303 19.0957>
VStem: -814 132<1514.19 1709.43> -344 114<1513.13 1601.66> -94 115<1488.11 1609.96>
AnchorPoint: "AboveMark" -310 2070 basemark 0
AnchorPoint: "AboveBase" -36 1339 mark 0
LayerCount: 2
Fore
SplineSet
-526 1476 m 0x7e
 -578 1476 -582 1436 -591 1367 c 1xbe
 -775 1390 -814 1483 -814 1566 c 0
 -814 1717 -709 1888 -449 1888 c 0
 -387 1888 -327 1876 -221 1876 c 0
 -59 1876 41 1918 80 2001 c 1
 171 1941 l 1
 115 1820 -15 1759 -219 1758 c 0
 -338 1758 -384 1769 -456 1769 c 0
 -578 1769 -682 1732 -682 1585 c 0
 -682 1544 -666 1519 -632 1512 c 1
 -620 1581 -572 1607 -532 1607 c 0x7e
 -438 1607 -413 1526 -344 1512 c 1
 -344 1646 -224 1724 -130 1724 c 0
 -45 1724 21 1664 21 1578 c 0
 21 1488 -51 1367 -212 1367 c 0xbe
 -403 1367 -435 1476 -526 1476 c 0x7e
-173 1479 m 0
 -129 1479 -94 1516 -94 1557 c 0
 -94 1589 -119 1612 -150 1612 c 0
 -190 1612 -230 1578 -230 1533 c 0
 -230 1503 -209 1479 -173 1479 c 0
EndSplineSet
Substitution2: "Thai Mark High Variant" uni0E47.high
Substitution2: "Thai Phinthu Maitaikhu Reordering" uni0E3A
EndChar

StartChar: uni0E48
Encoding: 3656 3656 191
Width: 0
VWidth: 2045
Flags: W
HStem: 2128 330<93 215>
VStem: 35 238
DStem2: 35 2128 215 2128 0.173648 0.984808<31.2567 335.058>
AnchorPoint: "AboveMark" 201 2560 basemark 0
AnchorPoint: "AboveMark" 115 2070 mark 0
LayerCount: 2
Fore
SplineSet
35 2128 m 17
 93 2458 l 1
 273 2458 l 1
 215 2128 l 1
 35 2128 l 17
EndSplineSet
MultipleSubs2: "Thai Tone Nikhahit Attachment" uni0E4D uni0E48
Substitution2: "Thai Tone Low Variant" uni0E48.low
Substitution2: "Thai Sara U Mai Ek Reordering" uni0E38
Substitution2: "Thai Sara UU Mai Ek Reordering" uni0E39
Substitution2: "Thai Phinthu Mai Ek Reordering" uni0E3A
EndChar

StartChar: uni0E49
Encoding: 3657 3657 192
Width: 0
VWidth: 2045
Flags: W
HStem: 2437 90<33.3582 137.861>
VStem: -62 92<2331.02 2433.26> 139 92<2334.14 2436.76> 411 125<2393.79 2517>
AnchorPoint: "AboveMark" 201 2560 basemark 0
AnchorPoint: "AboveMark" 115 2070 mark 0
LayerCount: 2
Back
SplineSet
-280 2405 m 0
 -280 2511 -189 2616 -66 2616 c 0
 28 2616 86 2551 86 2470 c 0
 86 2448 81 2363 -2 2294 c 2
 -81 2222 l 1
 49 2245 264 2342 310 2604 c 1
 467 2604 l 1
 417 2288 113 2066 -165 2066 c 2
 -314 2066 l 1
 -287 2220 l 1
 -175 2276 l 1
 -265 2294 -280 2361 -280 2405 c 0
-109 2371 m 0
 -72 2371 -29 2406 -29 2448 c 0
 -29 2475 -47 2504 -85 2504 c 0
 -133 2504 -165 2463 -165 2426 c 0
 -165 2393 -140 2371 -109 2371 c 0
EndSplineSet
Fore
SplineSet
-62 2358 m 0
 -62 2454 20 2527 110 2527 c 0
 185 2527 231 2475 231 2410 c 0
 231 2348 201 2305 161 2269 c 2
 97 2212 l 1
 165 2224 230 2254 293 2304 c 0
 356 2354 395 2425 411 2517 c 1
 536 2517 l 1
 491 2264 253 2087 31 2087 c 2
 -89 2087 l 1
 -67 2210 l 1
 23 2255 l 1
 -49 2269 -62 2323 -62 2358 c 0
75 2331 m 0
 107 2331 139 2358 139 2392 c 0
 139 2414 125 2437 94 2437 c 0
 58 2437 30 2408 30 2374 c 0
 30 2348 50 2331 75 2331 c 0
EndSplineSet
MultipleSubs2: "Thai Tone Nikhahit Attachment" uni0E4D uni0E49
Substitution2: "Thai Tone Low Variant" uni0E49.low
Substitution2: "Thai Sara U Mai Tho Reordering" uni0E38
Substitution2: "Thai Sara UU Mai Tho Reordering" uni0E39
Substitution2: "Thai Phinthu Mai Tho Reordering" uni0E3A
EndChar

StartChar: uni0E4A
Encoding: 3658 3658 193
Width: 0
VWidth: 2045
Flags: W
HStem: 2100 90<-129.851 -24.7498> 2296 90<-95.3583 -22.285> 2429 102<-89.5959 71.7361 164.961 319.826>
VStem: -241 111<2191.47 2288.92> -21 92<2194.14 2295.92> 329 105<2263.98 2421.15> 567 102<2376.02 2492>
AnchorPoint: "AboveMark" 201 2560 basemark 0
AnchorPoint: "AboveMark" 115 2070 mark 0
LayerCount: 2
Back
SplineSet
-543 2266 m 0
 -543 2489 -348 2617 -217 2617 c 0
 -148 2617 -98 2596 -70 2553 c 1
 -27 2596 29 2617 98 2617 c 0
 196 2617 300 2535 300 2399 c 0
 300 2356 291 2318 276 2283 c 1
 354 2336 443 2434 467 2569 c 1
 595 2569 l 17
 542 2268 247 2079 38 2079 c 1
 60 2206 l 1
 99 2228 170 2290 170 2380 c 0
 170 2459 113 2490 81 2490 c 0
 27 2490 -16 2468 -43 2425 c 1
 -144 2425 l 1
 -178 2468 -210 2490 -239 2490 c 0
 -284 2489 -330 2463 -362 2428 c 1
 -342 2433 -322 2436 -305 2436 c 0
 -212 2436 -154 2372 -154 2289 c 0
 -154 2186 -245 2079 -368 2079 c 0
 -453 2079 -543 2134 -543 2266 c 0
-349 2191 m 0
 -307 2191 -269 2228 -269 2269 c 0
 -269 2302 -295 2324 -325 2324 c 0
 -365 2324 -405 2287 -405 2246 c 0
 -405 2217 -384 2191 -349 2191 c 0
EndSplineSet
Fore
SplineSet
-241 2250 m 0
 -241 2444 -63 2531 20 2531 c 0
 76 2531 115 2514 138 2479 c 1
 172 2514 217 2531 272 2531 c 0
 351 2531 434 2464 434 2355 c 0
 434 2320 425 2287 414 2263 c 1
 477 2306 548 2384 567 2492 c 1
 669 2492 l 17
 627 2251 391 2100 224 2100 c 1
 242 2202 l 1
 244 2204 329 2258 329 2341 c 0
 329 2404 284 2429 258 2429 c 0
 215 2429 181 2411 159 2377 c 1
 78 2377 l 1
 51 2411 26 2429 2 2429 c 0
 -34 2428 -70 2407 -96 2379 c 1
 -80 2383 -64 2386 -50 2386 c 0
 24 2386 71 2335 71 2269 c 0
 71 2174 -12 2100 -101 2100 c 0
 -169 2100 -241 2144 -241 2250 c 0
-85 2190 m 0
 -53 2190 -21 2218 -21 2252 c 0
 -21 2278 -42 2296 -66 2296 c 0
 -99 2296 -130 2268 -130 2234 c 0
 -130 2210 -113 2190 -85 2190 c 0
EndSplineSet
MultipleSubs2: "Thai Tone Nikhahit Attachment" uni0E4D uni0E4A
Substitution2: "Thai Tone Low Variant" uni0E4A.low
Substitution2: "Thai Sara U Mai Tri Reordering" uni0E38
Substitution2: "Thai Sara UU Mai Tri Reordering" uni0E39
Substitution2: "Thai Phinthu Mai Tri Reordering" uni0E3A
EndChar

StartChar: uni0E4B
Encoding: 3659 3659 194
Width: 0
VWidth: 2045
Flags: W
HStem: 2247 144<-21 73 243 337>
VStem: -47 410
DStem2: 52 2127 196 2127 0.173648 0.984808<25.0053 121.824 293.156 388.989>
AnchorPoint: "AboveMark" 201 2560 basemark 0
AnchorPoint: "AboveMark" 115 2070 mark 0
LayerCount: 2
Back
SplineSet
281 2256 m 1
 131 2256 l 1
 104 2106 l 1
 -77 2106 l 1
 -50 2256 l 1
 -200 2256 l 1
 -168 2436 l 1
 -18 2436 l 1
 8 2585 l 1
 189 2585 l 1
 163 2436 l 1
 313 2436 l 1
 281 2256 l 1
EndSplineSet
Fore
SplineSet
337 2247 m 1
 217 2247 l 1
 196 2127 l 1
 52 2127 l 1
 73 2247 l 1
 -47 2247 l 1
 -21 2391 l 1
 99 2391 l 1
 120 2510 l 1
 264 2510 l 1
 243 2391 l 1
 363 2391 l 1
 337 2247 l 1
EndSplineSet
MultipleSubs2: "Thai Tone Nikhahit Attachment" uni0E4D uni0E4B
Substitution2: "Thai Tone Low Variant" uni0E4B.low
Substitution2: "Thai Sara U Mai Chattawa Reordering" uni0E38
Substitution2: "Thai Sara UU Mai Chattawa Reordering" uni0E39
Substitution2: "Thai Phinthu Mai Chattawa Reordering" uni0E3A
EndChar

StartChar: uni0E4C
Encoding: 3660 3660 195
Width: 0
VWidth: 2045
Flags: W
HStem: 2138 106<-89.1858 42.4063> 2371 124<163 508.678> 2387 108<-81.0635 52.8164>
VStem: -201 109<2247.12 2374.86> 54 111<2257.07 2370.63>
AnchorPoint: "AboveMark" 201 2560 basemark 0
AnchorPoint: "AboveMark" 115 2070 mark 0
LayerCount: 2
Back
SplineSet
-269 1939 m 0xb8
 -215 1939 -162 1987 -162 2045 c 0
 -162 2089 -196 2118 -238 2118 c 0
 -292 2118 -344 2071 -344 2013 c 0
 -344 1970 -311 1939 -269 1939 c 0xb8
-481 1987 m 0
 -481 2128 -356 2252 -213 2252 c 2xb8
 257 2250 l 2
 321 2250 371 2269 407 2308 c 1
 498 2199 l 1
 419 2130 329 2096 230 2096 c 2
 -26 2098 l 1xd8
 -25 2087 -24 2077 -24 2066 c 0
 -24 1940 -145 1806 -293 1806 c 0
 -399 1806 -481 1879 -481 1987 c 0
EndSplineSet
Fore
SplineSet
-31 2244 m 0xb8
 10 2244 54 2280 54 2330 c 0
 54 2365 28 2387 -6 2387 c 0
 -45 2387 -92 2355 -92 2304 c 0
 -92 2269 -65 2244 -31 2244 c 0xb8
165 2344 m 0
 165 2228 56 2138 -50 2138 c 0
 -135 2138 -201 2196 -201 2283 c 0
 -201 2410 -88 2495 14 2495 c 2xb8
 390 2493 l 2
 441 2493 482 2508 510 2539 c 1
 582 2452 l 1
 518 2397 447 2370 368 2370 c 2
 163 2371 l 1xd8
 165 2362 165 2353 165 2344 c 0
EndSplineSet
MultipleSubs2: "Thai Tone Nikhahit Attachment" uni0E4D uni0E4C
Substitution2: "Thai Tone Low Variant" uni0E4C.low
Substitution2: "Thai Sara U Thanthakhat Reordering" uni0E38
Substitution2: "Thai Sara UU Thanthakhat Reordering" uni0E39
Substitution2: "Thai Phinthu Thanthakhat Reordering" uni0E3A
EndChar

StartChar: uni0E4D
Encoding: 3661 3661 196
Width: 0
VWidth: 2045
Flags: W
HStem: 1375 134<-201.954 -47.6955> 1688 133<-183.544 -30.8321>
VStem: -344 136<1515.36 1663.14> -25 136<1531.87 1680.59>
AnchorPoint: "AboveMark" -33 2070 basemark 0
AnchorPoint: "AboveBase" 62 1339 mark 0
LayerCount: 2
Fore
SplineSet
111 1637 m 0
 111 1501 -14 1375 -156 1375 c 0
 -269 1375 -344 1455 -344 1558 c 0
 -344 1691 -224 1821 -77 1821 c 0
 39 1821 111 1740 111 1637 c 0
-132 1509 m 0
 -70 1509 -25 1565 -25 1613 c 0
 -25 1655 -54 1688 -100 1688 c 0
 -159 1688 -208 1635 -208 1582 c 0
 -208 1541 -178 1509 -132 1509 c 0
EndSplineSet
Substitution2: "Thai Mark High Variant" uni0E4D.high
Substitution2: "Thai Sara U Nikhahit Reordering" uni0E38
Substitution2: "Thai Sara UU Nikhahit Reordering" uni0E39
Substitution2: "Thai Phinthu Nikhahit Reordering" uni0E3A
EndChar

StartChar: uni0E4E
Encoding: 3662 3662 197
Width: 0
VWidth: 2045
Flags: W
HStem: 1381 156<-283.32 -229> 1759 157<-257.031 -124.393> 2028 156<59.0619 235.108>
VStem: -457 161<1548.86 1722.06> 249 160<1916 2013.81>
AnchorPoint: "AboveMark" 51 2214 basemark 0
AnchorPoint: "AboveBase" 96 1339 mark 0
LayerCount: 2
Fore
SplineSet
-163 1759 m 0
 -228 1759 -296 1705 -296 1626 c 0
 -296 1572 -255 1537 -202 1537 c 1
 -229 1381 l 17
 -364 1381 -457 1474 -457 1600 c 0
 -457 1767 -305 1916 -135 1916 c 1
 -108 2072 37 2184 181 2184 c 0
 310 2184 409 2096 409 1965 c 0
 409 1949 408 1933 405 1916 c 1
 247 1916 l 1
 248 1922 249 1929 249 1935 c 0
 249 1986 213 2028 154 2028 c 0
 84 2028 20 1964 20 1897 c 0
 20 1875 27 1855 40 1837 c 1
 20 1726 l 1
 -89 1726 l 1
 -108 1748 -133 1759 -163 1759 c 0
EndSplineSet
Substitution2: "Thai Mark High Variant" uni0E4E.high
EndChar

StartChar: uni0E4F
Encoding: 3663 3663 198
Width: 1571
VWidth: 2045
Flags: W
HStem: -23 133<630.309 993.021> 245 133<759.536 957.429> 646 133<792.079 988.996> 914 133<754.803 1119.15>
VStem: 326 136<272.504 624.143> 600 138<399.092 593.228> 1010 138<432.243 624.003> 1285 137<399.986 750.933>
LayerCount: 2
Fore
SplineSet
1422 607 m 0
 1422 275 1114 -23 780 -23 c 0
 513 -23 326 167 326 419 c 0
 326 742 627 1047 969 1047 c 0
 1235 1047 1422 858 1422 607 c 0
803 110 m 0
 1051 110 1285 333 1285 582 c 0
 1285 773 1141 914 945 914 c 0
 702 914 462 697 462 441 c 0
 462 246 613 110 803 110 c 0
1148 559 m 0
 1148 395 998 245 827 245 c 0
 689 245 600 341 600 465 c 0
 600 634 754 779 921 779 c 0
 1063 779 1148 678 1148 559 c 0
851 378 m 0
 933 378 1010 451 1010 536 c 0
 1010 598 964 646 898 646 c 0
 818 646 738 575 738 488 c 0
 738 421 788 378 851 378 c 0
EndSplineSet
EndChar

StartChar: uni0E50
Encoding: 3664 3664 199
Width: 1326
VWidth: 2045
Flags: W
HStem: 0 157<511.812 892.33> 737 157<594.047 974.08>
VStem: 196 182<278.802 545.914> 1106 182<346.327 616.889>
LayerCount: 2
Fore
SplineSet
691 157 m 0
 908 157 1106 309 1106 489 c 0
 1106 630 976 737 793 737 c 0
 567 737 378 577 378 406 c 0
 378 267 506 157 691 157 c 0
1288 510 m 0
 1288 257 1009 0 663 0 c 0
 375 0 196 179 196 384 c 0
 196 636 475 894 821 894 c 0
 1105 894 1288 720 1288 510 c 0
EndSplineSet
EndChar

StartChar: uni0E51
Encoding: 3665 3665 200
Width: 1361
VWidth: 2045
Flags: W
HStem: 0 190<460.068 730.344> 369 134<619.152 772.233> 719 175<598.626 981.926>
VStem: 202 181<204.258 515.167> 459 137<196.14 345.64> 778 138<213.903 362.141> 1099 178<262.01 604.392>
LayerCount: 2
Fore
SplineSet
202 325 m 0
 202 614 490 894 826 894 c 0
 1058 894 1277 748 1277 468 c 0
 1277 126 1006 -63 852 -133 c 1
 779 15 l 1
 1043 126 1099 326 1099 458 c 0
 1099 624 982 719 796 719 c 0
 521 719 383 526 383 345 c 0
 383 248 427 180 490 160 c 1
 469 185 459 214 459 248 c 0
 459 366 577 503 726 503 c 0
 840 503 916 422 916 319 c 0
 916 267 895 157 757 60 c 1
 696 20 613 0 509 0 c 0
 341 0 202 123 202 325 c 0
671 190 m 0
 725 190 778 238 778 297 c 0
 778 341 744 369 702 369 c 0
 654 369 596 327 596 264 c 0
 596 218 631 190 671 190 c 0
EndSplineSet
EndChar

StartChar: uni0E52
Encoding: 3666 3666 201
Width: 1454
VWidth: 2045
Flags: W
HStem: 0 177<323 1103.37> 239 133<589.847 744.993> 550 134<694 759.938> 719 175<698.355 930.179 1094.94 1238.11>
VStem: 309 181<875.43 1192.76> 444 139<378.621 524.236> 766 136<395.194 543.489> 955 93<603 677.668> 1250 182<367.736 716.221>
DStem2: 114 0 291.79 0 0.173648 0.984808<210.603 1131.6>
LayerCount: 2
Fore
SplineSet
444 447 m 0xf780
 444 715 654 894 844 894 c 0
 922 894 983 861 1027 794 c 1
 1098 861 1161 894 1216 894 c 0
 1360 894 1432 804 1432 625 c 0
 1432 575 1426 517 1415 453 c 0
 1346 63 1101 0 997 0 c 2
 114 0 l 1
 307 1094 l 2
 308 1101 309 1108 309 1115 c 0
 309 1162 279 1205 214 1205 c 1
 246 1384 l 1
 444 1384 490 1254 490 1153 c 0xfb80
 490 1131 488 1111 485 1094 c 2
 323 177 l 1
 976 177 l 2
 1147 177 1250 375 1250 603 c 0
 1250 680 1229 719 1188 719 c 0
 1123 719 1076 680 1048 603 c 1
 955 603 l 1
 951 680 902 718 808 719 c 0
 761 719 723 707 694 684 c 1
 714 684 l 2
 829 684 902 603 902 501 c 0
 902 366 782 239 635 239 c 0
 573 239 444 267 444 447 c 0xf780
659 372 m 0
 720 372 766 425 766 477 c 0
 766 518 736 550 690 550 c 0
 628 550 583 495 583 447 c 0xf780
 583 408 609 372 659 372 c 0
114 0 m 1
EndSplineSet
EndChar

StartChar: uni0E53
Encoding: 3667 3667 202
Width: 1398
VWidth: 2045
Flags: W
HStem: 0 133<375.283 527.099> 311 134<388.384 543.482> 719 175<498.878 740.778 965.156 1164.04>
VStem: 178 189<138.957 423.416> 550 135<156.213 305.375> 1180 181<514.415 699.468>
DStem2: 1073 0 1253 0 0.173648 0.984808<31.2567 627.807>
LayerCount: 2
Fore
SplineSet
178 299 m 0
 178 702 446 894 675 894 c 0
 756 894 821 864 874 804 c 1
 944 864 1020 894 1100 894 c 0
 1256 894 1361 785 1361 641 c 0
 1361 623 1359 605 1356 586 c 2
 1253 0 l 1
 1073 0 l 1
 1178 594 l 2
 1179 603 1180 611 1180 619 c 0
 1180 676 1145 717 1079 717 c 0
 981 717 946 661 935 619 c 1
 903 438 l 1
 723 438 l 1
 755 616 l 2
 756 620 756 624 756 629 c 0
 756 670 725 719 644 719 c 0
 421 719 349 478 362 405 c 1
 410 432 452 445 491 445 c 0
 622 445 685 356 685 262 c 0
 685 125 561 0 418 0 c 0
 238 0 178 138 178 299 c 0
441 133 m 0
 506 133 550 189 550 239 c 0
 550 279 521 311 473 311 c 0
 421 311 367 266 367 207 c 0
 367 167 394 133 441 133 c 0
EndSplineSet
EndChar

StartChar: uni0E54
Encoding: 3668 3668 203
Width: 1498
VWidth: 2045
Flags: W
HStem: 0 178<469.586 676 844.622 1294> 221 132<845.556 952.138> 532 134<817.071 967.616> 717 177<519.141 1413.5> 1054 20G<1492 1680>
VStem: 182 184<281.406 564.634> 620 172<299 507.66> 974 138<377.148 525.521> 1500 180<979.965 1074>
LayerCount: 2
Fore
SplineSet
182 367 m 0
 182 635 425 894 722 894 c 1
 1289 896 l 2
 1396 896 1484 980 1500 1074 c 1
 1680 1074 l 1
 1646 879 1462 717 1257 717 c 2
 689 717 l 2
 406 717 366 470 366 413 c 0
 366 291 471 178 592 178 c 2
 676 178 l 17
 653 197 620 255 620 343 c 0
 620 539 759 666 922 666 c 0
 1032 666 1112 588 1112 482 c 0
 1112 347 987 221 844 221 c 1
 857 192 887 178 934 178 c 2
 1325 178 l 1
 1294 0 l 1
 561 0 l 2
 333 0 182 159 182 367 c 0
867 353 m 0
 920 353 974 401 974 459 c 0
 974 503 940 532 899 532 c 0
 844 532 792 483 792 427 c 0
 792 386 823 353 867 353 c 0
EndSplineSet
EndChar

StartChar: uni0E55
Encoding: 3669 3669 204
Width: 1489
VWidth: 2045
Flags: W
HStem: 0 178<469.586 676 844.622 1294> 221 132<845.556 952.138> 532 134<817.071 967.616> 717 178<522.002 630 766.615 918.841 1042 1413.5> 1054 20G<1492 1680> 1074 134<780.724 935.742>
VStem: 182 184<281.406 564.227> 620 172<299 507.66> 621 139<900.977 1050.33> 942 138<917.867 1066.29> 974 138<377.148 525.521> 1500 180<979.671 1074>
LayerCount: 2
Fore
SplineSet
621 945 m 0xfab0
 621 1078 745 1208 890 1208 c 0xf6b0
 1004 1208 1080 1127 1080 1023 c 0
 1080 969 1060 923 1042 895 c 9
 1289 895 l 2
 1397 895 1484 980 1500 1074 c 1
 1680 1074 l 1
 1646 879 1462 717 1257 717 c 2
 689 717 l 2
 406 717 366 470 366 413 c 0
 366 291 471 178 592 178 c 2
 676 178 l 1
 653 197 620 255 620 343 c 0xfb50
 620 539 759 666 922 666 c 0
 1032 666 1112 588 1112 482 c 0
 1112 347 987 221 844 221 c 1
 857 192 887 178 934 178 c 2
 1325 178 l 1
 1294 0 l 1
 561 0 l 2
 333 0 182 159 182 367 c 0
 182 648 424 850 630 887 c 1
 624 905 621 925 621 945 c 0xfab0
835 895 m 0
 893 895 942 950 942 1000 c 0xf6d0
 942 1044 906 1074 866 1074 c 0
 817 1074 760 1030 760 971 c 0
 760 930 789 895 835 895 c 0
867 353 m 0
 920 353 974 401 974 459 c 0
 974 503 940 532 899 532 c 0
 844 532 792 483 792 427 c 0xf330
 792 386 823 353 867 353 c 0
EndSplineSet
EndChar

StartChar: uni0E56
Encoding: 3670 3670 205
Width: 1448
VWidth: 2045
Flags: W
HStem: 0 187<404.198 889.754> 366 134<416.767 572.597> 719 175<583.053 1072.59> 1438 20G<329.536 431>
VStem: 257 138<196.066 343.636> 397 183<942.531 1265.78> 578 137<209.828 358.917> 1180 179<400.756 630.126>
DStem2: 189.317 0 369.059 0 0.173648 0.984808<865.893 1206.68>
LayerCount: 2
Fore
SplineSet
672 180 m 1xfb
 930 180 1180 355 1180 527 c 0
 1180 595 1132 719 837 719 c 0
 494 719 294 577 290 571 c 1
 395 1168 l 2
 396 1175 397 1182 397 1189 c 0
 397 1240 363 1279 302 1279 c 1
 333 1458 l 1
 529 1458 580 1329 580 1224 c 0xfd
 580 1204 578 1185 575 1168 c 2
 514 822 l 1
 613 870 743 894 902 894 c 0
 1131 894 1359 764 1359 537 c 0
 1359 305 1072 0 616 0 c 0
 416 0 257 67 257 228 c 0
 257 386 395 500 526 500 c 0
 640 500 715 417 715 316 c 0
 715 278 704 224 672 180 c 1xfb
471 187 m 0
 524 187 578 234 578 295 c 0xfb
 578 339 545 366 503 366 c 0
 449 366 395 320 395 262 c 0
 395 218 429 187 471 187 c 0
EndSplineSet
EndChar

StartChar: uni0E57
Encoding: 3671 3671 206
Width: 1716
VWidth: 2045
Flags: W
HStem: 0 178<1307 1404.02> 0 133<398.067 549.372> 311 134<410.134 566.351> 719 175<522.781 765.349 988.527 1189.02> 1237 20G<1658.5 1707.32>
VStem: 199 190<140.499 427.45> 572 137<156.064 303.401> 1203 181<514.415 702.867>
DStem2: 1096 0 1275.61 0 0.173648 0.984808<211.936 627.807> 1389.22 0 1569.34 0 0.173648 0.984808<199.664 1183>
LayerCount: 2
Fore
SplineSet
199 304 m 0x7f
 199 704 473 894 698 894 c 0
 778 894 843 864 895 804 c 1
 966 864 1043 894 1125 894 c 0
 1284 894 1384 781 1384 640 c 0
 1384 623 1382 604 1379 586 c 2
 1307 178 l 1xbf
 1369 178 1429 226 1440 288 c 2
 1574 1051 l 2
 1589 1132 1627 1200 1690 1257 c 1
 1800 1130 l 1
 1776 1109 1760 1082 1754 1051 c 2
 1621 293 l 2
 1588 110 1430 0 1276 0 c 2
 1096 0 l 1
 1201 594 l 2
 1202 603 1203 611 1203 619 c 0
 1203 683 1164 717 1096 717 c 0
 994 717 964 644 958 619 c 1
 926 438 l 1
 746 438 l 1
 778 616 l 2
 779 620 779 625 779 629 c 0
 779 672 745 719 667 719 c 0
 445 719 372 480 385 405 c 1
 434 432 478 445 518 445 c 0
 639 445 709 359 709 261 c 0
 709 124 581 0 442 0 c 0
 260 0 199 142 199 304 c 0x7f
464 133 m 0x7f
 518 133 572 180 572 239 c 0
 572 279 543 311 496 311 c 0
 443 311 389 265 389 207 c 0
 389 167 416 133 464 133 c 0x7f
EndSplineSet
EndChar

StartChar: uni0E58
Encoding: 3672 3672 207
Width: 1548
VWidth: 2045
Flags: W
HStem: 0 150<875.984 1168.22> 258 194<502.363 639.332> 328 134<1030.06 1182.94> 717 178<475.197 1413.5> 1054 20G<1492 1680>
VStem: 163 183<312.769 582.023> 878 130<222 305.102> 1190 136<172.656 320.563> 1500 180<979.671 1074>
LayerCount: 2
Fore
SplineSet
577 258 m 0xdf80
 476 258 460 94 451 0 c 1
 272 0 163 165 163 370 c 0
 163 677 388 895 652 895 c 2
 1289 895 l 2
 1397 895 1484 980 1500 1074 c 1
 1680 1074 l 1
 1646 879 1462 717 1257 717 c 2
 620 717 l 2
 497 717 346 630 346 401 c 0
 346 363 352 333 366 311 c 1
 398 405 474 452 592 452 c 0xdf80
 717 452 840 222 878 222 c 1
 883 356 1006 462 1138 462 c 0xbf80
 1244 462 1326 388 1326 280 c 0
 1326 173 1245 0 1015 0 c 0
 739 0 646 258 577 258 c 0xdf80
1083 150 m 0
 1141 150 1190 200 1190 256 c 0
 1190 300 1156 328 1115 328 c 0xbf80
 1066 328 1008 287 1008 223 c 0
 1008 181 1035 150 1083 150 c 0
EndSplineSet
EndChar

StartChar: uni0E59
Encoding: 3673 3673 208
Width: 1611
VWidth: 2045
Flags: W
HStem: 0 151<410.966 636.994> 329 133<499.754 653.762> 716 178<550.91 896.842 1161.9 1354.85>
VStem: 184 181<315.19 537.67> 660 136<174.997 322.767> 1007 184<332.038 607.401>
DStem2: 930 0 1110 0 0.173648 0.984808<31.2567 468.505> 1289.59 0 1469.69 0 0.173648 0.984808<866.159 1301.15>
LayerCount: 2
Fore
SplineSet
184 327 m 0
 184 645 415 894 763 894 c 0
 862 894 957 888 1055 794 c 1
 1138 861 1213 894 1280 894 c 0
 1359 894 1412 880 1440 853 c 1
 1496 1168 l 2
 1510 1250 1548 1318 1611 1373 c 1
 1723 1246 l 1
 1697 1225 1681 1199 1676 1168 c 2
 1594 705 l 1
 1397 606 l 1
 1395 615 1353 716 1251 716 c 0
 1224 716 1191 699 1154 666 c 1
 1169 648 1191 601 1191 513 c 0
 1191 481 1188 445 1181 402 c 2
 1110 0 l 1
 930 0 l 1
 1002 408 l 2
 1005 426 1007 445 1007 463 c 0
 1007 598 916 716 724 716 c 0
 568 716 365 617 365 354 c 0
 365 339 366 326 368 314 c 1
 398 369 479 462 607 462 c 0
 721 462 796 383 796 280 c 0
 796 140 667 0 457 0 c 0
 339 0 184 86 184 327 c 0
553 151 m 0
 610 151 660 201 660 257 c 0
 660 294 636 329 584 329 c 0
 521 329 477 274 477 225 c 0
 477 184 506 151 553 151 c 0
EndSplineSet
EndChar

StartChar: uni0E5A
Encoding: 3674 3674 209
Width: 1519
VWidth: 2045
Flags: W
HStem: 0 21G<848 1031.52 1145 1328.52> 680 173<578 786.118> 1118 134<401.377 557.481>
VStem: 236 144<947.296 1093.39> 563 138<962.243 1109.78>
DStem2: 848 0 1028 0 0.173648 0.984808<31.2567 847.841 1077.02 1273.33> 1145 0 1325 0 0.173648 0.984808<31.2567 1273.33>
LayerCount: 2
Fore
SplineSet
456 939 m 0
 507 939 563 986 563 1046 c 0
 563 1089 528 1118 487 1118 c 0
 434 1118 380 1071 380 1015 c 0
 380 974 409 939 456 939 c 0
236 966 m 0
 236 1141 381 1252 511 1252 c 0
 627 1252 701 1167 701 1067 c 0
 701 1013 671 894 578 853 c 1
 858 853 1036 1064 1069 1254 c 1
 1249 1254 l 1
 1028 0 l 1
 848 0 l 1
 995 835 l 17
 816 691 685 680 584 680 c 0
 295 680 236 851 236 966 c 0
1366 1254 m 1
 1546 1254 l 1
 1325 0 l 1
 1145 0 l 1
 1366 1254 l 1
EndSplineSet
EndChar

StartChar: uni0E5B
Encoding: 3675 3675 210
Width: 2515
VWidth: 2045
Flags: W
HStem: 0 178<460.174 839.361> 338 134<685.881 838.497> 417 172<2285.76 2469> 651 134<703.101 855.715> 879 178<557.28 859.29>
VStem: 168 177<290.264 650.19> 542 138<479.37 626.747> 862 219<552.451 802.2>
DStem2: 1067 424 1292 468 0.573287 0.819355<-225.706 165.041>
LayerCount: 2
Fore
SplineSet
755 472 m 0xdf
 803 472 862 517 862 577 c 0
 862 617 834 651 787 651 c 0
 738 651 680 609 680 545 c 0
 680 500 716 472 755 472 c 0xdf
696 879 m 0
 473 879 345 647 345 452 c 0
 345 309 419 178 630 178 c 0
 734 178 819 202 886 252 c 0
 972 317 1032 375 1067 424 c 2
 1286 737 l 1
 1392 737 l 1
 1477 508 l 1
 1642 737 l 1
 1749 737 l 1
 1834 508 l 1
 1998 737 l 1
 2104 737 l 1
 2189 508 l 1
 2223 562 2286 589 2374 589 c 2
 2499 589 l 1
 2469 417 l 1
 2356 417 l 2xbf
 2314 417 2260 358 2195 239 c 1
 2088 239 l 1
 2004 468 l 1
 1838 239 l 1
 1731 239 l 1
 1647 468 l 1
 1483 239 l 1
 1376 239 l 1
 1292 468 l 1
 1191 326 l 1
 1138 247 1053 170 938 94 c 0
 841 31 734 0 617 0 c 0
 311 0 168 213 168 438 c 0
 168 802 513 1057 723 1057 c 0
 933 1057 1081 931 1081 751 c 0
 1081 687 1054 537 973 455 c 1
 899 378 818 339 731 338 c 1
 620 338 542 418 542 523 c 0
 542 654 662 785 809 785 c 0
 857 785 896 769 923 736 c 1
 914 816 828 879 696 879 c 0
EndSplineSet
EndChar

StartChar: zerowidthjoiner
Encoding: 8205 8205 212
Width: 0
Flags: W
LayerCount: 2
Back
SplineSet
-12.4902 -275 m 1
 -84.4902 -275 l 1
 160.429 1114 l 1
 2.44824 978 l 1
 -37.9121 1027 l 1
 162.887 1196 l 1
 21.5098 1364 l 1
 79.1504 1413 l 1
 218.998 1242 l 1
 419.15 1413 l 1
 459.51 1364 l 1
 258.887 1196 l 1
 400.088 1027 l 1
 342.448 978 l 1
 232.429 1114 l 1
 -12.4902 -275 l 1
EndSplineSet
EndChar

StartChar: afii299
Encoding: 8206 8206 213
Width: 0
Flags: W
LayerCount: 2
Back
SplineSet
641.24 1198 m 1
 386.506 984 l 1
 346.146 1033 l 1
 506.068 1163 l 1
 240.068 1163 l 1
 -13.4902 -275 l 1
 -84.4902 -275 l 1
 181.588 1234 l 1
 518.588 1234 l 1
 404.51 1364 l 1
 462.15 1413 l 1
 641.24 1198 l 1
EndSplineSet
EndChar

StartChar: afii300
Encoding: 8207 8207 214
Width: 0
Flags: W
LayerCount: 2
Back
SplineSet
-13.4902 -275 m 1
 -84.4902 -275 l 1
 169.068 1163 l 1
 -96.9316 1163 l 1
 17.1455 1033 l 1
 -40.4941 984 l 1
 -219.761 1198 l 1
 35.1504 1413 l 1
 75.5098 1364 l 1
 -84.4121 1234 l 1
 252.588 1234 l 1
 -13.4902 -275 l 1
EndSplineSet
EndChar

StartChar: uni2010
Encoding: 8208 8208 215
Width: 973
Flags: W
HStem: 575 170<321 916>
VStem: 291 655
LayerCount: 2
Fore
SplineSet
321 745 m 1
 946 745 l 1
 916 575 l 1
 291 575 l 1
 321 745 l 1
EndSplineSet
EndChar

StartChar: endash
Encoding: 8211 8211 216
Width: 1125
Flags: W
HStem: 567 170<126 1222>
LayerCount: 2
Fore
SplineSet
1222 567 m 1
 96 567 l 1
 126 737 l 1
 1252 737 l 1
 1222 567 l 1
EndSplineSet
EndChar

StartChar: emdash
Encoding: 8212 8212 217
Width: 1886
Flags: W
HStem: 567 170<126 1966>
LayerCount: 2
Fore
SplineSet
1966 567 m 1
 96 567 l 1
 126 737 l 1
 1996 737 l 1
 1966 567 l 1
EndSplineSet
EndChar

StartChar: horizontalbar
Encoding: 8213 8213 218
Width: 1862
Flags: W
HStem: 567 170<240 1852>
LayerCount: 2
Fore
SplineSet
1852 567 m 1
 210 567 l 1
 240 737 l 1
 1882 737 l 1
 1852 567 l 1
EndSplineSet
EndChar

StartChar: underscoredbl
Encoding: 8215 8215 219
Width: 1118
Flags: W
HStem: -423 130<-68 1059> -212 130<-30 1097>
LayerCount: 2
Fore
SplineSet
1097 -212 m 1
 -53 -212 l 1
 -30 -82 l 1
 1120 -82 l 1
 1097 -212 l 1
1059 -423 m 1
 -91 -423 l 1
 -68 -293 l 1
 1082 -293 l 1
 1059 -423 l 1
EndSplineSet
EndChar

StartChar: quoteleft
Encoding: 8216 8216 220
Width: 450
Flags: W
HStem: 997 559<373 452>
VStem: 210 301
LayerCount: 2
Fore
SplineSet
511 997 m 1
 373 997 l 1
 210 1556 l 1
 452 1556 l 1
 511 997 l 1
EndSplineSet
EndChar

StartChar: quoteright
Encoding: 8217 8217 221
Width: 580
Flags: W
HStem: 997 559
VStem: 273 497
LayerCount: 2
Fore
SplineSet
770 1556 m 1
 411 997 l 1
 273 997 l 1
 528 1556 l 1
 770 1556 l 1
EndSplineSet
EndChar

StartChar: quotesinglbase
Encoding: 8218 8218 222
Width: 432
Flags: W
HStem: -276 559
VStem: -62 498
LayerCount: 2
Fore
SplineSet
436 283 m 1
 76 -276 l 1
 -62 -276 l 1
 194 283 l 1
 436 283 l 1
EndSplineSet
EndChar

StartChar: quotereversed
Encoding: 8219 8219 223
Width: 432
Flags: W
HStem: 997 559
VStem: 112 497
LayerCount: 2
Fore
SplineSet
609 1556 m 1
 354 997 l 1
 112 997 l 1
 471 1556 l 1
 609 1556 l 1
EndSplineSet
EndChar

StartChar: quotedblleft
Encoding: 8220 8220 224
Width: 850
Flags: W
HStem: 997 559<373 448 767 842>
LayerCount: 2
Fore
SplineSet
901 997 m 1
 767 997 l 1
 604 1556 l 1
 842 1556 l 1
 901 997 l 1
507 997 m 1
 373 997 l 1
 210 1556 l 1
 448 1556 l 1
 507 997 l 1
EndSplineSet
EndChar

StartChar: quotedblright
Encoding: 8221 8221 225
Width: 1000
Flags: W
HStem: 997 559
LayerCount: 2
Fore
SplineSet
1170 1556 m 1
 811 997 l 1
 677 997 l 1
 932 1556 l 1
 1170 1556 l 1
776 1556 m 1
 417 997 l 1
 283 997 l 1
 538 1556 l 1
 776 1556 l 1
EndSplineSet
EndChar

StartChar: quotedblbase
Encoding: 8222 8222 226
Width: 814
Flags: W
HStem: -276 559
LayerCount: 2
Fore
SplineSet
831 283 m 1
 471 -276 l 1
 337 -276 l 1
 593 283 l 1
 831 283 l 1
437 283 m 1
 77 -276 l 1
 -57 -276 l 1
 199 283 l 1
 437 283 l 1
EndSplineSet
EndChar

StartChar: dagger
Encoding: 8224 8224 227
Width: 1118
Flags: W
HStem: 1013 170<344 654 852 1162>
DStem2: 493 135 673 135 0.173648 0.984808<31.2567 897.543 1089.49 1442.82>
LayerCount: 2
Fore
SplineSet
1162 1013 m 1
 824 1018 l 1
 673 135 l 1
 493 135 l 1
 654 1018 l 1
 314 1013 l 1
 344 1183 l 1
 682 1178 l 1
 743 1556 l 1
 923 1556 l 1
 852 1178 l 1
 1192 1183 l 1
 1162 1013 l 1
EndSplineSet
EndChar

StartChar: daggerdbl
Encoding: 8225 8225 228
Width: 1118
Flags: W
HStem: 486 170<251 556 764 1069> 1028 160<345 650 858 1163>
DStem2: 486 124 676 124 0.173648 0.984808<32.9932 373.58 567.268 918.745 1112.43 1454>
LayerCount: 2
Fore
SplineSet
1069 486 m 1
 736 491 l 1
 676 124 l 1
 486 124 l 1
 556 491 l 1
 221 486 l 1
 251 656 l 1
 584 651 l 1
 650 1028 l 1
 315 1023 l 1
 345 1193 l 1
 678 1188 l 1
 738 1556 l 1
 928 1556 l 1
 858 1188 l 1
 1193 1193 l 1
 1163 1023 l 1
 830 1028 l 1
 764 651 l 1
 1099 656 l 1
 1069 486 l 1
EndSplineSet
EndChar

StartChar: bullet
Encoding: 8226 8226 229
Width: 950
Flags: W
HStem: 311 702<470.882 699.926>
VStem: 225 715<553.27 768.728>
LayerCount: 2
Fore
SplineSet
940 724 m 0
 940 515 747 311 520 311 c 0
 351 311 225 428 225 604 c 0
 225 801 411 1013 644 1013 c 0
 828 1013 940 879 940 724 c 0
EndSplineSet
EndChar

StartChar: ellipsis
Encoding: 8230 8230 230
Width: 1650
Flags: W
HStem: 0 223<216 381 774 939 1332 1497>
LayerCount: 2
Fore
SplineSet
1497 0 m 1
 1293 0 l 1
 1332 223 l 1
 1536 223 l 1
 1497 0 l 1
939 0 m 1
 735 0 l 1
 774 223 l 1
 978 223 l 1
 939 0 l 1
381 0 m 1
 177 0 l 1
 216 223 l 1
 420 223 l 1
 381 0 l 1
EndSplineSet
EndChar

StartChar: perthousand
Encoding: 8240 8240 231
Width: 2575
Flags: W
HStem: -50 170<1329.8 1492.56 2083.8 2246.56> -10 21G<456 649.644> 554 170<1386.93 1555.92 2140.93 2309.92> 717 170<516.81 679.324> 1321 170<573.788 743.193>
VStem: 305 183<907.448 1217.32> 767 182<992.759 1301.16> 1117 184<143.97 455.906> 1579 182<225.56 534.809> 1871 184<143.97 455.906> 2333 182<225.56 534.809>
DStem2: 456 -10 636 -10 0.563559 0.826076<101.441 1817.02>
LayerCount: 2
Back
SplineSet
722 1517 m 0x2fe0
 915 1517 1011 1417 1011 1220 c 0
 1011 1027 933 634 567 634 c 0
 336 634 278 779 278 935 c 0
 278 1075 331 1517 722 1517 c 0x2fe0
1736 1489 m 1
 693 0 l 1
 528 0 l 1x4fe0
 1571 1489 l 1
 1736 1489 l 1
1696 854 m 0x9fe0
 1926 854 1984 709 1984 559 c 0
 1984 377 1913 -29 1540 -29 c 0
 1348 -29 1251 73 1251 268 c 0
 1251 422 1308 854 1696 854 c 0x9fe0
454 924 m 0
 454 827 481 767 588 767 c 0x2fe0
 788 767 834 1082 834 1222 c 0
 834 1325 807 1384 699 1384 c 0
 503 1384 454 1080 454 924 c 0
1428 264 m 0
 1428 160 1455 104 1563 104 c 0
 1774 104 1807 453 1807 559 c 0
 1807 662 1780 721 1672 721 c 0x9fe0
 1446 721 1428 333 1428 264 c 0
2828 557 m 0
 2828 411 2774 -29 2384 -29 c 0
 2192 -29 2095 73 2095 268 c 0
 2095 422 2152 854 2540 854 c 0
 2687 854 2828 795 2828 557 c 0
2272 264 m 0
 2272 160 2299 104 2407 104 c 0
 2618 104 2651 453 2651 559 c 0
 2651 662 2624 721 2516 721 c 0
 2292 721 2272 347 2272 264 c 0
EndSplineSet
Fore
SplineSet
2262 724 m 3xafe0
 2433 724 2515 604 2515 438 c 3
 2515 168 2353 -50 2125 -50 c 3
 1954 -50 1871 69 1871 235 c 3
 1871 505 2035 724 2262 724 c 3xafe0
2155 120 m 3
 2262 120 2333 274 2333 412 c 3
 2333 490 2307 554 2232 554 c 3
 2126 554 2055 408 2055 275 c 3
 2055 191 2087 120 2155 120 c 3
1508 724 m 3
 1679 724 1761 604 1761 438 c 3
 1761 168 1599 -50 1371 -50 c 3
 1200 -50 1117 69 1117 235 c 3
 1117 505 1281 724 1508 724 c 3
1401 120 m 3
 1508 120 1579 274 1579 412 c 3
 1579 490 1553 554 1478 554 c 3
 1372 554 1301 408 1301 275 c 3
 1301 191 1333 120 1401 120 c 3
695 1491 m 3
 866 1491 949 1372 949 1205 c 3
 949 935 785 717 558 717 c 3x1fe0
 387 717 305 836 305 1002 c 3
 305 1272 467 1491 695 1491 c 3
588 887 m 3
 694 887 767 1042 767 1179 c 3
 767 1257 740 1321 665 1321 c 3
 559 1321 488 1174 488 1041 c 3
 488 957 520 887 588 887 c 3
1480 1491 m 1
 1660 1491 l 1
 636 -10 l 1
 456 -10 l 1x4fe0
 1480 1491 l 1
EndSplineSet
EndChar

StartChar: minute
Encoding: 8242 8242 232
Width: 602
Flags: W
HStem: 870 619
VStem: 290 544
LayerCount: 2
Fore
SplineSet
834 1489 m 1
 426 870 l 1
 290 870 l 1
 594 1489 l 1
 834 1489 l 1
EndSplineSet
EndChar

StartChar: second
Encoding: 8243 8243 233
Width: 972
Flags: W
HStem: 870 619
LayerCount: 2
Fore
SplineSet
830 1489 m 1
 422 870 l 1
 290 870 l 1
 594 1489 l 1
 830 1489 l 1
1224 1489 m 1
 816 870 l 1
 684 870 l 1
 988 1489 l 1
 1224 1489 l 1
EndSplineSet
EndChar

StartChar: guilsinglleft
Encoding: 8249 8249 234
Width: 784
Flags: W
VStem: 230 603
DStem2: 417 652 230 608 0.704661 -0.709544<0 397.392> 246 697 417 652 0.803436 0.595391<110.595 584.009>
LayerCount: 2
Fore
SplineSet
663 172 m 1
 230 608 l 1
 246 697 l 1
 833 1132 l 1
 798 933 l 1
 417 652 l 1
 698 371 l 1
 663 172 l 1
EndSplineSet
EndChar

StartChar: guilsinglright
Encoding: 8250 8250 235
Width: 784
Flags: W
VStem: 181 603
DStem2: 216 371 181 172 0.802781 0.596274<0 473.413> 351 1132 316 933 0.705476 -0.708734<116.346 513.739>
LayerCount: 2
Fore
SplineSet
768 608 m 1
 181 172 l 1
 216 371 l 1
 597 652 l 1
 316 933 l 1
 351 1132 l 1
 784 697 l 1
 768 608 l 1
EndSplineSet
EndChar

StartChar: uni203E
Encoding: 8254 8254 237
Width: 1118
Flags: W
HStem: 1658 131<267 1410>
LayerCount: 2
Fore
SplineSet
1410 1658 m 1
 244 1658 l 1
 267 1789 l 1
 1433 1789 l 1
 1410 1658 l 1
EndSplineSet
EndChar

StartChar: fraction
Encoding: 8260 8260 238
Width: 886
Flags: W
HStem: 0 21G<-29 150.009>
DStem2: -29 0 136 0 0.573721 0.819051<94.6639 1817.96>
LayerCount: 2
Fore
SplineSet
1179 1489 m 1
 136 0 l 1
 -29 0 l 1
 1014 1489 l 1
 1179 1489 l 1
EndSplineSet
EndChar

StartChar: uni207F
Encoding: 8319 8319 239
Width: 1010
Flags: W
HStem: 1349 170<678.016 902.56>
VStem: 920 185<966.383 1327.43>
DStem2: 225 566 405 566 0.173648 0.984808<31.2567 756.947 872.03 936.124> 810 566 990 566 0.173648 0.984808<31.2567 673.175>
LayerCount: 2
Fore
SplineSet
854 1519 m 3
 949 1519 1105 1488 1105 1269 c 3
 1105 1238 1102 1202 1095 1163 c 2
 990 566 l 1
 810 566 l 1
 902 1088 l 2
 912 1144 920 1193 920 1232 c 3
 920 1308 889 1349 779 1349 c 3
 730 1349 659 1338 524 1241 c 1
 405 566 l 1
 225 566 l 1
 387 1488 l 1
 567 1488 l 1
 551 1394 l 1
 710 1514 796 1519 854 1519 c 3
EndSplineSet
EndChar

StartChar: dottedcircle
Encoding: 9676 9676 240
Width: 1255
Flags: W
HStem: 7 121<568.168 679.206> 68 121<872.324 984.04> 98 121<319.107 430.214> 234 121<1068.17 1179.07> 249 121<202.359 314.166> 445 121<116.479 227.644 1182.27 1292.69> 679 121<172.324 283.375 1207.32 1318.76> 868 121<312.149 423.359> 891 121<1138.15 1249.17> 1011 121<526.324 637.576> 1034 121<975.168 1086.07> 1079 121<764.324 875.576>
VStem: 110 123<451.013 559.929> 166 123<684.766 793.938> 196 124<255.013 363.938> 313 123<103.819 213.476 877.469 986.134> 520 123<1017.01 1126.08> 562 123<13.0127 121.938> 758 123<1085.01 1194.08> 866 124<73.9062 183.073> 969 123<1039.91 1149.08> 1062 123<239.906 349.078> 1132 123<896.819 1006.3> 1173 123<443.819 552.938> 1201 123<684.344 793.929>
LayerCount: 2
Fore
SplineSet
306 916 m 0x07
 306 955 337 989 377 989 c 0
 416 989 429 960 429 940 c 0
 429 902 397 868 356 868 c 0
 326 868 306 887 306 916 c 0x07
520 1059 m 0x064080
 520 1098 552 1132 592 1132 c 0
 621 1132 643 1112 643 1083 c 0
 643 1041 608 1011 570 1011 c 0
 540 1011 520 1030 520 1059 c 0x064080
758 1127 m 0x061020
 758 1166 790 1200 830 1200 c 0
 859 1200 881 1180 881 1151 c 0
 881 1109 846 1079 808 1079 c 0
 778 1079 758 1098 758 1127 c 0x061020
110 493 m 0x0608
 110 532 143 566 182 566 c 0
 212 566 233 546 233 517 c 0
 233 475 198 445 160 445 c 0
 130 445 110 464 110 493 c 0x0608
196 297 m 0x0e02
 196 335 228 370 268 370 c 0
 304 370 320 343 320 321 c 0
 320 279 284 249 247 249 c 0
 217 249 196 268 196 297 c 0x0e02
313 146 m 0x2601
 313 183 343 219 385 219 c 0
 415 219 436 199 436 170 c 0
 436 130 403 98 363 98 c 0
 333 98 313 117 313 146 c 0x2601
562 55 m 0x860040
 562 93 593 128 634 128 c 0
 669 128 685 101 685 79 c 0
 685 37 649 7 612 7 c 0
 582 7 562 26 562 55 c 0x860040
866 116 m 0x460010
 866 155 898 189 938 189 c 0
 971 189 990 167 990 140 c 0
 990 102 958 68 917 68 c 0
 887 68 866 87 866 116 c 0x460010
1062 282 m 0x160004
 1062 321 1093 355 1134 355 c 0
 1166 355 1185 333 1185 306 c 0
 1185 268 1153 234 1112 234 c 0
 1082 234 1062 253 1062 282 c 0x160004
1173 486 m 0x060001
 1173 524 1204 559 1245 559 c 0
 1275 559 1296 539 1296 510 c 0
 1296 470 1263 438 1223 438 c 0
 1193 438 1173 457 1173 486 c 0x060001
1201 727 m 0x06000080
 1201 765 1233 800 1273 800 c 0
 1303 800 1324 780 1324 751 c 0
 1324 709 1290 679 1252 679 c 0
 1221 679 1201 698 1201 727 c 0x06000080
1132 939 m 0x068002
 1132 977 1163 1012 1203 1012 c 0
 1239 1012 1255 985 1255 963 c 0
 1255 924 1222 891 1182 891 c 0
 1152 891 1132 910 1132 939 c 0x068002
969 1082 m 0x062008
 969 1121 1000 1155 1041 1155 c 0
 1073 1155 1092 1133 1092 1106 c 0
 1092 1068 1060 1034 1019 1034 c 0
 989 1034 969 1053 969 1082 c 0x062008
166 727 m 0x0604
 166 765 198 800 238 800 c 0
 274 800 289 773 289 751 c 0
 289 712 257 679 217 679 c 0
 186 679 166 698 166 727 c 0x0604
EndSplineSet
EndChar

StartChar: uni0E10.descless
Encoding: 63232 63232 241
Width: 1245
VWidth: 2045
Flags: W
HStem: 0 21G<682.545 910.534> 244 134<532.631 676.687> 557 133<549.653 702.494> 744 178<526 969.35> 1101 178<692.866 1033.75>
VStem: 390 136<384.993 534.613> 708 139<399.445 551.484> 977 185<569.828 738.007>
DStem2: 844 285 903 0 0.352536 0.935798<0 415.067>
LayerCount: 2
Fore
SplineSet
390 428 m 0
 390 570 520 690 657 690 c 0
 807 690 847 565 847 519 c 2
 844 285 l 1
 972 655 l 2
 974 659 977 667 977 679 c 0
 977 716 946 744 898 744 c 2
 267 744 l 1
 320 1043 606 1279 901 1279 c 0
 1118 1279 1259 1162 1321 1013 c 1
 1149 924 l 1
 1131 969 1056 1101 869 1101 c 0
 682 1101 562 968 526 922 c 1
 925 922 l 2
 1044 922 1162 834 1162 722 c 0
 1162 708 1160 678 1149 653 c 1
 903 0 l 1
 683 0 l 25
 677 264 l 1
 644 251 611 244 578 244 c 0
 466 244 390 323 390 428 c 0
603 378 m 0
 658 378 708 427 708 483 c 0
 708 526 678 557 634 557 c 0
 570 557 526 499 526 452 c 0
 526 407 562 378 603 378 c 0
EndSplineSet
EndChar

StartChar: uni0E34.left
Encoding: 63233 63233 242
Width: 0
VWidth: 2045
Flags: W
HStem: 1726 174<-909.121 -575.545>
DStem2: -981 1636 -1293 1507 0.9955 -0.0947639<0 508.366>
LayerCount: 2
Back
SplineSet
-1115.11 1593 m 13
 -610.751 1544 l 1
 -631.266 1582.67 -664.565 1615 -710.647 1641 c 0
 -756.063 1667 -808.928 1681 -869.242 1683 c 0
 -897.242 1683 -939.829 1674 -997.003 1656 c 0
 -1054.73 1638.67 -1094.1 1617.67 -1115.11 1593 c 13
-1427.86 1464 m 21
 -1368.93 1594 -1282.99 1692 -1170.02 1758 c 0
 -1058.15 1825.33 -947.66 1858.33 -838.561 1857 c 0
 -704.914 1855 -593.848 1810 -505.365 1722 c 0
 -416.999 1633.33 -377.648 1514.33 -387.313 1365 c 1
 -1427.86 1464 l 21
EndSplineSet
Fore
Refer: 175 3636 N 1 0 0 1 -330 0 2
EndChar

StartChar: uni0E35.left
Encoding: 63234 63234 243
Width: 0
VWidth: 2045
Flags: W
HStem: 1723 174<-909.842 -573.457>
DStem2: -981 1633 -1294 1504 0.995508 -0.0946737<0 507.371> -410.246 1405 -252.968 1405 0.173648 0.984808<341.183 644.844>
LayerCount: 2
Back
SplineSet
-485.067 1701 m 13
 -432.346 2000 l 1
 -275.346 2000 l 1
 -387.313 1365 l 1
 -1427.86 1464 l 1
 -1368.93 1594 -1282.99 1692 -1170.02 1758 c 0
 -1058.15 1825.33 -947.66 1858.33 -838.561 1857 c 0
 -706.247 1855 -588.416 1803 -485.067 1701 c 13
-1115.11 1593 m 13
 -610.751 1544 l 1
 -631.266 1582.67 -664.565 1615 -710.647 1641 c 0
 -756.063 1667 -808.928 1681 -869.242 1683 c 0
 -897.242 1683 -939.829 1674 -997.003 1656 c 0
 -1054.73 1638.67 -1094.1 1617.67 -1115.11 1593 c 13
EndSplineSet
Fore
Refer: 176 3637 N 1 0 0 1 -330 0 2
EndChar

StartChar: uni0E36.left
Encoding: 63235 63235 244
Width: 0
VWidth: 2045
Flags: W
HStem: 1721 174<-909.958 -580.164> 1971 133<-428.184 -276.402>
VStem: -270 138<1815.94 1964.74>
DStem2: -981 1631 -1294 1502 0.9955 -0.0947639<0 507.371>
LayerCount: 2
Back
SplineSet
-472 1639 m 5
 -429.401 1563 -411.506 1471.67 -418.313 1365 c 1
 -1458.86 1464 l 1
 -1398.6 1594 -1312.65 1692 -1201.02 1758 c 0
 -1088.59 1824.67 -978.107 1857.67 -869.561 1857 c 0
 -829.678 1856.33 -790.168 1851.67 -751.029 1843 c 1
 -740.097 1905 -708.811 1957.67 -657.17 2001 c 0
 -606.196 2044.33 -549.375 2066 -486.708 2066 c 0
 -424.041 2066 -374.529 2044.33 -338.17 2001 c 0
 -301.811 1957.67 -289.039 1905.33 -299.854 1844 c 0
 -310.668 1782.67 -342.288 1730 -394.713 1686 c 0
 -416.906 1666 -442.669 1650.33 -472 1639 c 5
-616.029 1843 m 4
 -620.379 1818.33 -615.023 1797.67 -599.962 1781 c 0
 -584.351 1763.67 -564.879 1755 -541.546 1755 c 0
 -517.546 1755 -494.685 1763.67 -472.962 1781 c 0
 -452.572 1798.33 -440.261 1819 -436.029 1843 c 0
 -431.798 1867 -436.703 1888.33 -450.744 1907 c 0
 -465.021 1924.33 -484.827 1933 -510.16 1933 c 0
 -534.827 1933 -557.355 1924.33 -577.744 1907 c 0
 -598.918 1889 -611.68 1867.67 -616.029 1843 c 4
-1146.11 1593 m 13
 -640.751 1544 l 1
 -662.6 1582.67 -696.232 1615 -741.647 1641 c 0
 -785.73 1667 -838.595 1681 -900.242 1683 c 0
 -927.242 1683 -969.828 1674 -1028 1656 c 0
 -1085.73 1638.67 -1125.1 1617.67 -1146.11 1593 c 13
EndSplineSet
Fore
Refer: 177 3638 N 1 0 0 1 -330 0 2
EndChar

StartChar: uni0E37.left
Encoding: 63236 63236 245
Width: 0
VWidth: 2045
Flags: W
HStem: 1728 174<-908.842 -571.785>
DStem2: -980 1638 -1293 1509 0.995508 -0.0946737<0 507.371> -409.246 1410 -251.968 1410 0.173648 0.984808<341.183 644.844>
LayerCount: 2
Back
SplineSet
-553.488 1761 m 21
 -532.427 1744.33 -509.62 1724.33 -485.067 1701 c 1
 -432.346 2000 l 1
 -275.346 2000 l 1
 -387.313 1365 l 1
 -1427.86 1464 l 1
 -1368.93 1594 -1282.99 1692 -1170.02 1758 c 0
 -1058.15 1825.33 -947.66 1858.33 -838.561 1857 c 0
 -791.345 1856.33 -744.363 1848.67 -697.616 1834 c 1
 -668.346 2000 l 1
 -511.346 2000 l 1
 -553.488 1761 l 21
-1115.11 1593 m 13
 -610.751 1544 l 1
 -631.266 1582.67 -664.565 1615 -710.647 1641 c 0
 -756.063 1667 -808.928 1681 -869.242 1683 c 0
 -897.242 1683 -939.829 1674 -997.003 1656 c 0
 -1054.73 1638.67 -1094.1 1617.67 -1115.11 1593 c 13
EndSplineSet
Fore
Refer: 178 3639 N 1 0 0 1 -330 0 2
EndChar

StartChar: uni0E48.low_left
Encoding: 63237 63237 246
Width: 0
VWidth: 2045
Flags: W
HStem: 1415 464<-342 -243>
VStem: -423 261
DStem2: -423 1415 -243 1415 0.173648 0.984808<31.2567 471.016>
LayerCount: 2
Back
SplineSet
-538.632 1593 m 17
 -480.632 1923 l 1
 -300.632 1923 l 1
 -358.632 1593 l 1
 -538.632 1593 l 17
EndSplineSet
Fore
Refer: 251 63242 N 1 0 0 1 -293 0 2
EndChar

StartChar: uni0E49.low_left
Encoding: 63238 63238 247
Width: 0
VWidth: 2045
Flags: W
HStem: 1810 112<-685.406 -560.447>
VStem: -809 114<1679.12 1798.83> -559 115<1686.65 1808.39> -219 157<1781.67 1909>
LayerCount: 2
Back
SplineSet
-634.528 1988 m 0
 -634.528 2094 -543.528 2199 -420.528 2199 c 0
 -326.528 2199 -268.528 2134 -268.528 2053 c 0
 -268.528 2031 -273.528 1946 -356.528 1877 c 2
 -435.528 1805 l 1
 -305.528 1828 -90.5283 1925 -44.5283 2187 c 1
 112.472 2187 l 1
 62.4717 1871 -241.528 1649 -519.528 1649 c 2
 -668.528 1649 l 1
 -641.528 1803 l 1
 -529.528 1859 l 1
 -619.528 1877 -634.528 1944 -634.528 1988 c 0
-463.528 1954 m 0
 -426.528 1954 -383.528 1989 -383.528 2031 c 0
 -383.528 2058 -401.528 2087 -439.528 2087 c 0
 -487.528 2087 -519.528 2046 -519.528 2009 c 0
 -519.528 1976 -494.528 1954 -463.528 1954 c 0
EndSplineSet
Fore
Refer: 252 63243 N 1 0 0 1 -407 0 2
EndChar

StartChar: uni0E4A.low_left
Encoding: 63239 63239 248
Width: 0
VWidth: 2045
Flags: W
HStem: 1377 112<-878.621 -753.549> 1621 112<-836.248 -745.506> 1787 127<-819.608 -635.962 -503.024 -323.103>
VStem: -1017 137<1490.69 1607.72> -744 115<1499.33 1620.02> -305 129<1582.19 1770.94> -8 128<1748.42 1866>
LayerCount: 2
Back
SplineSet
-802.528 1849 m 0
 -802.528 2072 -607.528 2200 -476.528 2200 c 0
 -407.528 2200 -357.528 2179 -329.528 2136 c 1
 -286.528 2179 -230.528 2200 -161.528 2200 c 0
 -63.5283 2200 40.4717 2118 40.4717 1982 c 0
 40.4717 1939 31.4717 1901 16.4717 1866 c 1
 94.4717 1919 183.472 2017 207.472 2152 c 1
 335.472 2152 l 17
 282.472 1851 -12.5283 1662 -221.528 1662 c 1
 -199.528 1789 l 1
 -160.528 1811 -89.5283 1873 -89.5283 1963 c 0
 -89.5283 2042 -146.528 2073 -178.528 2073 c 0
 -232.528 2073 -275.528 2051 -302.528 2008 c 1
 -403.528 2008 l 1
 -437.528 2051 -469.528 2073 -498.528 2073 c 0
 -543.528 2072 -589.528 2046 -621.528 2011 c 1
 -601.528 2016 -581.528 2019 -564.528 2019 c 0
 -471.528 2019 -413.528 1955 -413.528 1872 c 0
 -413.528 1769 -504.528 1662 -627.528 1662 c 0
 -712.528 1662 -802.528 1717 -802.528 1849 c 0
-608.528 1774 m 0
 -566.528 1774 -528.528 1811 -528.528 1852 c 0
 -528.528 1885 -554.528 1907 -584.528 1907 c 0
 -624.528 1907 -664.528 1870 -664.528 1829 c 0
 -664.528 1800 -643.528 1774 -608.528 1774 c 0
EndSplineSet
Fore
Refer: 253 63244 N 1 0 0 1 -351 0 2
EndChar

StartChar: uni0E4B.low_left
Encoding: 63240 63240 249
Width: 0
VWidth: 2045
Flags: W
HStem: 1538 178<-671 -553 -340 -222>
VStem: -703 513
DStem2: -579 1387 -398 1387 0.173648 0.984808<31.4303 153.221 365.504 487.294>
LayerCount: 2
Back
SplineSet
-14.999 1842 m 1x40
 -164.999 1842 l 1x40
 -191.999 1692 l 1
 -372.999 1692 l 1x80
 -345.999 1842 l 1
 -495.999 1842 l 1
 -463.999 2022 l 1
 -313.999 2022 l 1x40
 -287.999 2171 l 1
 -106.999 2171 l 1x80
 -132.999 2022 l 1
 17.001 2022 l 1
 -14.999 1842 l 1x40
EndSplineSet
Fore
Refer: 254 63245 N 1 0 0 1 -376 0 2
EndChar

StartChar: uni0E4C.low_left
Encoding: 63241 63241 250
Width: 0
VWidth: 2045
Flags: W
HStem: 1376 134<-539.496 -385.373> 1668 154<-228 190.292> 1689 133<-522.278 -369.812>
VStem: -683 137<1515.69 1665.6> -364 138<1532.65 1667.18>
LayerCount: 2
Back
SplineSet
-514.231 1501 m 0xb8
 -460.231 1501 -407.231 1549 -407.231 1607 c 0
 -407.231 1651 -441.231 1680 -483.231 1680 c 0
 -537.231 1680 -589.231 1633 -589.231 1575 c 0
 -589.231 1532 -556.231 1501 -514.231 1501 c 0xb8
-726.231 1549 m 0
 -726.231 1690 -601.231 1814 -458.231 1814 c 2xb8
 11.7686 1812 l 2
 75.7686 1812 125.769 1831 161.769 1870 c 1
 252.769 1761 l 1
 173.769 1692 83.7686 1658 -15.2314 1658 c 2
 -271.231 1660 l 1xd8
 -270.231 1649 -269.231 1639 -269.231 1628 c 0
 -269.231 1502 -390.231 1368 -538.231 1368 c 0
 -644.231 1368 -726.231 1441 -726.231 1549 c 0
EndSplineSet
Fore
Refer: 255 63246 N 1 0 0 1 -126 0 2
EndChar

StartChar: uni0E48.low
Encoding: 63242 63242 251
Width: 0
VWidth: 2045
Flags: W
HStem: 1415 464<-49 50>
VStem: -130 261
DStem2: -130 1415 50 1415 0.173648 0.984808<31.2567 471.016>
AnchorPoint: "AboveMark" 74.9971 2070 basemark 0
AnchorPoint: "AboveBase" 36 1339 mark 0
LayerCount: 2
Fore
SplineSet
-130 1415 m 17
 -49 1879 l 1
 131 1879 l 1
 50 1415 l 1
 -130 1415 l 17
EndSplineSet
EndChar

StartChar: uni0E49.low
Encoding: 63243 63243 252
Width: 0
VWidth: 2045
Flags: W
HStem: 1810 112<-278.406 -153.447>
VStem: -402 114<1679.12 1798.83> -152 115<1686.65 1808.39> 188 157<1781.67 1909>
AnchorPoint: "AboveMark" -39 2070 basemark 0
AnchorPoint: "AboveBase" 150 1339 mark 0
LayerCount: 2
Fore
SplineSet
-402 1709 m 0
 -402 1839 -288 1922 -188 1922 c 0
 -105 1922 -37 1865 -37 1776 c 0
 -37 1754 -45 1672 -124 1600 c 2
 -204 1527 l 1
 -119 1542 -37 1581 41 1644 c 0
 119 1707 168 1795 188 1909 c 1
 345 1909 l 1
 295 1593 -7 1372 -287 1372 c 2
 -436 1372 l 1
 -409 1526 l 1
 -297 1582 l 1
 -387 1600 -402 1665 -402 1709 c 0
-231 1677 m 0
 -184 1677 -152 1721 -152 1755 c 0
 -152 1787 -177 1810 -208 1810 c 0
 -248 1810 -288 1775 -288 1731 c 0
 -288 1701 -267 1677 -231 1677 c 0
EndSplineSet
EndChar

StartChar: uni0E4A.low
Encoding: 63244 63244 253
Width: 0
VWidth: 2045
Flags: W
HStem: 1377 112<-527.621 -402.549> 1621 112<-485.248 -394.506> 1787 127<-468.608 -284.962 -152.024 27.8971>
VStem: -666 137<1490.69 1607.72> -393 115<1499.33 1620.02> 46 129<1582.19 1770.94> 343 128<1748.42 1866>
AnchorPoint: "AboveMark" -155 2070 basemark 0
AnchorPoint: "AboveBase" 94 1339 mark 0
LayerCount: 2
Fore
SplineSet
-666 1563 m 0
 -666 1785 -475 1914 -341 1914 c 0
 -272 1914 -222 1893 -194 1851 c 1
 -151 1893 -95 1914 -26 1914 c 0
 78 1914 175 1827 175 1696 c 0
 175 1661 170 1623 152 1581 c 1
 238 1639 320 1738 343 1866 c 1
 471 1866 l 17
 419 1573 131 1377 -86 1377 c 1
 -64 1504 l 1
 -21 1528 46 1590 46 1678 c 0
 46 1756 -11 1787 -40 1787 c 0
 -68 1787 -129 1782 -167 1723 c 1
 -268 1723 l 1
 -302 1766 -333 1787 -363 1787 c 0
 -427 1785 -478 1735 -486 1726 c 1
 -468 1731 -449 1733 -429 1733 c 0
 -334 1733 -278 1668 -278 1587 c 0
 -278 1482 -372 1377 -492 1377 c 0
 -575 1377 -666 1429 -666 1563 c 0
-472 1489 m 0
 -430 1489 -393 1526 -393 1567 c 0
 -393 1598 -415 1621 -449 1621 c 0
 -493 1621 -529 1583 -529 1544 c 0
 -529 1514 -508 1489 -472 1489 c 0
EndSplineSet
EndChar

StartChar: uni0E4B.low
Encoding: 63245 63245 254
Width: 0
VWidth: 2045
Flags: W
HStem: 1538 178<-295 -177 36 154>
VStem: -327 513
DStem2: -203 1387 -22 1387 0.173648 0.984808<31.4303 153.221 365.504 487.294>
AnchorPoint: "AboveMark" 7 2070 basemark 0
AnchorPoint: "AboveBase" 119 1339 mark 0
LayerCount: 2
Fore
SplineSet
154 1538 m 1
 4 1538 l 1
 -22 1387 l 1
 -203 1387 l 1
 -177 1538 l 1
 -327 1538 l 1
 -295 1716 l 1
 -145 1716 l 1
 -119 1867 l 1
 62 1867 l 1
 36 1716 l 1
 186 1716 l 1
 154 1538 l 1
EndSplineSet
EndChar

StartChar: uni0E4C.low
Encoding: 63246 63246 255
Width: 0
VWidth: 2045
Flags: W
HStem: 1376 134<-413.496 -259.373> 1668 154<-102 316.292> 1689 133<-396.278 -243.812>
VStem: -557 137<1515.69 1665.6> -238 138<1532.65 1667.18>
AnchorPoint: "AboveMark" -2 2070 basemark 0
AnchorPoint: "AboveBase" -131 1339 mark 0
LayerCount: 2
Fore
SplineSet
-345 1510 m 0xb8
 -290 1510 -238 1557 -238 1615 c 0
 -238 1658 -271 1689 -313 1689 c 0
 -367 1689 -420 1641 -420 1583 c 0
 -420 1539 -387 1510 -345 1510 c 0xb8
-557 1559 m 0
 -557 1699 -430 1822 -289 1822 c 2xb8
 186 1822 l 2
 247 1822 296 1841 331 1879 c 1
 422 1770 l 1
 343 1702 253 1668 154 1668 c 2
 -102 1668 l 1xd8
 -101 1657 -100 1646 -100 1635 c 0
 -100 1506 -225 1376 -368 1376 c 0
 -477 1376 -557 1451 -557 1559 c 0
EndSplineSet
EndChar

StartChar: uni0E0D.descless
Encoding: 63247 63247 256
Width: 1924
VWidth: 2045
Flags: W
HStem: -8 134<403.407 557.199> 0 178<1195 1578> 305 133<481.656 573.423> 744 178<536 628> 1101 178<641.186 981.042> 1234 20G<1764.47 1948>
VStem: 260 137<133.652 281.575> 580 138<148.455 298.164> 1121 182<668.869 959.164>
DStem2: 223.855 -8 403.24 -8 0.173648 0.984808<478.953 763.522> 982.589 -8 1162.2 -8 0.173648 0.984808<220.059 826.668> 1545.2 -8 1725.59 -8 0.173648 0.984808<188.869 1281.52>
LayerCount: 2
Fore
SplineSet
718 255 m 0x7b80
 718 114 587 -8 450 -8 c 0
 336 -8 260 74 260 177 c 0
 260 189 261 201 263 214 c 2
 356 744 l 1
 216 744 l 1
 268 1036 549 1279 851 1279 c 0xbb80
 1116 1279 1303 1086 1303 836 c 0
 1303 806 1301 775 1295 744 c 2
 1195 178 l 1
 1578 178 l 1
 1768 1254 l 1
 1948 1254 l 1x7780
 1727 0 l 1
 984 0 l 25
 1115 744 l 2
 1119 766 1121 787 1121 808 c 0
 1121 974 1000 1101 819 1101 c 0
 632 1101 511 969 477 922 c 1
 660 922 l 1
 628 744 l 1
 536 744 l 1
 481 433 l 1
 493 436 509 438 528 438 c 0
 639 438 718 360 718 255 c 0x7b80
473 126 m 0
 527 126 580 173 580 230 c 0
 580 274 546 305 505 305 c 0
 449 305 397 254 397 199 c 0
 397 158 428 126 473 126 c 0
216 744 m 1
 356 744 l 1
EndSplineSet
EndChar

StartChar: uni0E31.left
Encoding: 63248 63248 257
Width: 0
VWidth: 2045
Flags: W
HStem: 1378 163<-365 -155.344> 1378 193<-596.356 -289.694> 1749 133<-582.197 -429.163>
VStem: -739 135<1577.62 1726.05> -421 139<1592.3 1742.54>
LayerCount: 2
Back
SplineSet
-421 1740 m 0xb8
 -421 1683 -451 1611 -504 1577 c 1
 -488 1577 l 2x78
 -331 1577 -185 1651 -39 1838 c 1
 86 1743 l 1
 -148 1441 -415 1414 -565 1414 c 0
 -829 1414 -878 1567 -878 1655 c 0
 -878 1780 -767 1918 -612 1918 c 0
 -496 1918 -421 1832 -421 1740 c 0xb8
-667 1607 m 0xb8
 -611 1607 -560 1655 -560 1711 c 0
 -560 1750 -586 1785 -635 1785 c 0
 -696 1785 -742 1731 -742 1680 c 0
 -742 1639 -714 1607 -667 1607 c 0xb8
EndSplineSet
Fore
Refer: 172 3633 N 1 0 0 1 -215 0 2
EndChar

StartChar: uni0E4D.left
Encoding: 63249 63249 258
Width: 0
VWidth: 2045
Flags: W
HStem: 1375 134<-520.954 -366.695> 1688 133<-502.544 -349.832>
VStem: -663 136<1515.36 1663.14> -344 136<1531.87 1680.59>
LayerCount: 2
Back
SplineSet
-348 1626 m 0
 -348 1485 -478 1364 -614 1364 c 0
 -727 1364 -803 1444 -803 1547 c 0
 -803 1679 -683 1810 -536 1810 c 0
 -420 1810 -348 1729 -348 1626 c 0
-591 1498 m 0
 -529 1498 -484 1554 -484 1602 c 0
 -484 1644 -513 1677 -559 1677 c 0
 -618 1677 -667 1624 -667 1571 c 0
 -667 1530 -637 1498 -591 1498 c 0
EndSplineSet
Fore
Refer: 196 3661 N 1 0 0 1 -319 0 2
EndChar

StartChar: uni0E47.left
Encoding: 63250 63250 259
Width: 0
VWidth: 2045
Flags: W
HStem: 1384 112<-446.046 -323.398> 1493 131<-801.052 -647.05> 1629 112<-442.342 -316.135> 1786 119<-843.303 -201.904>
VStem: -1035 132<1531.19 1726.43> -565 114<1530.13 1618.66> -315 115<1505.11 1626.96>
LayerCount: 2
Back
SplineSet
-793.002 1422 m 0xf7
 -832.002 1422 -853.002 1400 -858.002 1313 c 1
 -1042 1337 -1082 1430 -1082 1513 c 0
 -1082 1659 -980.002 1834 -717.002 1834 c 0
 -655.002 1834 -595.002 1822 -489.002 1822 c 0
 -327.002 1822 -226.002 1864 -188.002 1947 c 1
 -96.002 1887 l 1xf8
 -153.002 1766 -282.002 1705 -487.002 1704 c 0
 -606.002 1704 -652.002 1715 -724.002 1715 c 0
 -846.002 1715 -949.002 1678 -949.002 1530 c 0
 -949.002 1489 -933.002 1465 -900.002 1458 c 1
 -888.002 1527 -839.002 1553 -799.002 1553 c 0
 -705.002 1553 -680.002 1472 -612.002 1458 c 1
 -612.002 1580 -502.002 1670 -398.002 1670 c 0
 -312.002 1670 -246.002 1609 -246.002 1523 c 0
 -246.002 1434 -319.002 1313 -479.002 1313 c 0
 -670.002 1313 -702.002 1422 -793.002 1422 c 0xf7
-441.002 1425 m 0
 -397.002 1425 -361.002 1464 -361.002 1503 c 0
 -361.002 1535 -386.002 1558 -417.002 1558 c 0
 -457.002 1558 -497.002 1523 -497.002 1479 c 0xf3
 -497.002 1449 -476.002 1425 -441.002 1425 c 0
EndSplineSet
Fore
Refer: 190 3655 N 1 0 0 1 -221 17 2
EndChar

StartChar: uni0E48.left
Encoding: 63251 63251 260
Width: 0
VWidth: 2045
Flags: W
HStem: 2128 330<-235 -113>
VStem: -293 238
DStem2: -293 2128 -113 2128 0.173648 0.984808<31.2567 335.058>
LayerCount: 2
Back
SplineSet
-435.645 2092 m 17
 -377.645 2422 l 1
 -197.645 2422 l 1
 -255.645 2092 l 1
 -435.645 2092 l 17
EndSplineSet
Fore
Refer: 191 3656 N 1 0 0 1 -328 0 2
EndChar

StartChar: uni0E49.left
Encoding: 63252 63252 261
Width: 0
VWidth: 2045
Flags: W
HStem: 2437 90<-291.642 -187.139>
VStem: -387 92<2331.02 2433.26> -186 92<2334.14 2436.76> 86 125<2393.79 2517>
LayerCount: 2
Back
SplineSet
-436 2405 m 0
 -436 2511 -345 2616 -222 2616 c 0
 -128 2616 -70 2551 -70 2470 c 0
 -70 2448 -75 2363 -158 2294 c 2
 -237 2222 l 1
 -107 2245 108 2342 154 2604 c 1
 311 2604 l 1
 261 2288 -43 2066 -321 2066 c 2
 -470 2066 l 1
 -443 2220 l 1
 -331 2276 l 1
 -421 2294 -436 2361 -436 2405 c 0
-265 2371 m 0
 -228 2371 -185 2406 -185 2448 c 0
 -185 2475 -203 2504 -241 2504 c 0
 -289 2504 -321 2463 -321 2426 c 0
 -321 2393 -296 2371 -265 2371 c 0
EndSplineSet
Fore
Refer: 192 3657 N 1 0 0 1 -325 0 2
EndChar

StartChar: uni0E4A.left
Encoding: 63253 63253 262
Width: 0
VWidth: 2045
Flags: W
HStem: 2100 90<-454.851 -349.75> 2296 90<-420.358 -347.285> 2429 102<-414.596 -253.264 -160.039 -5.17413>
VStem: -566 111<2191.47 2288.92> -346 92<2194.14 2295.92> 4 105<2263.98 2421.15> 242 102<2376.02 2492>
LayerCount: 2
Back
SplineSet
-816.884 2278 m 0
 -816.884 2501 -621.884 2629 -490.884 2629 c 0
 -421.884 2629 -371.884 2608 -343.884 2565 c 1
 -300.884 2608 -244.884 2629 -175.884 2629 c 0
 -77.8838 2629 26.1162 2547 26.1162 2411 c 0
 26.1162 2368 17.1162 2330 2.11621 2295 c 1
 80.1162 2348 169.116 2446 193.116 2581 c 1
 321.116 2581 l 17
 268.116 2280 -26.8838 2091 -235.884 2091 c 1
 -213.884 2218 l 1
 -174.884 2240 -103.884 2302 -103.884 2392 c 0
 -103.884 2471 -160.884 2502 -192.884 2502 c 0
 -246.884 2502 -289.884 2480 -316.884 2437 c 1
 -417.884 2437 l 1
 -451.884 2480 -483.884 2502 -512.884 2502 c 0
 -557.884 2501 -603.884 2475 -635.884 2440 c 1
 -615.884 2445 -595.884 2448 -578.884 2448 c 0
 -485.884 2448 -427.884 2384 -427.884 2301 c 0
 -427.884 2198 -518.884 2091 -641.884 2091 c 0
 -726.884 2091 -816.884 2146 -816.884 2278 c 0
-622.884 2203 m 0
 -580.884 2203 -542.884 2240 -542.884 2281 c 0
 -542.884 2314 -568.884 2336 -598.884 2336 c 0
 -638.884 2336 -678.884 2299 -678.884 2258 c 0
 -678.884 2229 -657.884 2203 -622.884 2203 c 0
EndSplineSet
Fore
Refer: 193 3658 N 1 0 0 1 -325 0 2
EndChar

StartChar: uni0E4B.left
Encoding: 63254 63254 263
Width: 0
VWidth: 2045
Flags: W
HStem: 2247 144<-346 -252 -82 12>
VStem: -372 410
DStem2: -273 2127 -129 2127 0.173648 0.984808<25.0053 121.824 293.156 388.989>
LayerCount: 2
Back
SplineSet
153.174 2274 m 1x40
 3.17383 2274 l 1x40
 -23.8262 2124 l 1
 -204.826 2124 l 1x80
 -177.826 2274 l 1
 -327.826 2274 l 1
 -295.826 2454 l 1
 -145.826 2454 l 1x40
 -119.826 2603 l 1
 61.1738 2603 l 1x80
 35.1738 2454 l 1
 185.174 2454 l 1
 153.174 2274 l 1x40
EndSplineSet
Fore
Refer: 194 3659 N 1 0 0 1 -325 0 2
EndChar

StartChar: uni0E4C.left
Encoding: 63255 63255 264
Width: 0
VWidth: 2045
Flags: W
HStem: 2138 106<-414.186 -282.594> 2371 124<-162 183.678> 2387 108<-406.063 -272.184>
VStem: -526 109<2247.12 2374.86> -271 111<2257.07 2370.63>
LayerCount: 2
Back
SplineSet
-467 1939 m 0xb8
 -413 1939 -360 1987 -360 2045 c 0
 -360 2089 -394 2118 -436 2118 c 0
 -490 2118 -542 2071 -542 2013 c 0
 -542 1970 -509 1939 -467 1939 c 0xb8
-679 1987 m 0
 -679 2128 -554 2252 -411 2252 c 2xb8
 59 2250 l 2
 123 2250 173 2269 209 2308 c 1
 300 2199 l 1
 221 2130 131 2096 32 2096 c 2
 -224 2098 l 1xd8
 -223 2087 -222 2077 -222 2066 c 0
 -222 1940 -343 1806 -491 1806 c 0
 -597 1806 -679 1879 -679 1987 c 0
EndSplineSet
Fore
Refer: 195 3660 N 1 0 0 1 -325 0 2
EndChar

StartChar: uni0E38.low
Encoding: 63256 63256 265
Width: 0
VWidth: 2045
Flags: W
HStem: -1069 133<-827.97 -737.357> -758 134<-811.062 -657.143>
VStem: -974 140<-929.378 -778.047> -652 138<-910.734 -763.566>
LayerCount: 2
Back
SplineSet
-824 -815 m 0
 -824 -762 -796 -621 -639 -621 c 0
 -584 -621 -509 -641 -509 -764 c 0
 -509 -785 -511 -809 -516 -836 c 2
 -558 -1072 l 1
 -689 -1072 l 1
 -658 -896 l 1
 -670 -907 -682 -912 -693 -912 c 0
 -777 -912 -824 -884 -824 -815 c 0
-690 -846 m 0
 -638 -846 -625 -781 -625 -750 c 0
 -625 -709 -647 -700 -664 -700 c 0
 -737 -700 -745 -770 -745 -795 c 0
 -745 -829 -727 -846 -690 -846 c 0
-384.335 -535 m 1
 -353.302 -359 l 1
 -365.183 -369.667 -376.79 -375 -388.123 -375 c 0
 -439.456 -375 -475.575 -364.333 -496.48 -343 c 0
 -517.385 -321.667 -523.959 -289 -516.2 -245 c 0
 -507.031 -193 -486.978 -153 -456.041 -125 c 0
 -425.888 -97.6667 -385.479 -84 -334.812 -84 c 0
 -282.145 -84 -245.378 -102.333 -224.51 -139 c 0
 -203.406 -174.333 -199.143 -227.667 -211.722 -299 c 2
 -253.335 -535 l 1
 -384.335 -535 l 1
-359.741 -163 m 0
 -403.741 -163 -430.032 -187.333 -438.613 -236 c 0
 -447.194 -284.667 -429.485 -309 -385.485 -309 c 0
 -352.152 -309 -331.253 -285 -322.789 -237 c 0
 -318.675 -213.667 -319.835 -195.667 -326.268 -183 c 0
 -333.25 -169.667 -344.408 -163 -359.741 -163 c 0
EndSplineSet
Fore
Refer: 179 3640 N 1 0 0 1 -305 -537 2
EndChar

StartChar: uni0E39.low
Encoding: 63257 63257 266
Width: 0
VWidth: 2045
Flags: W
HStem: -1315 156<-955 -792> -1072 133<-1211.43 -1120.05> -761 134<-1196.87 -1039.92>
VStem: -1355 138<-931.448 -783.901> -1035 138<-916.282 -768.132>
DStem2: -819.507 -1315 -640 -1315 0.173648 0.984808<158.407 700.617>
LayerCount: 2
Back
SplineSet
-1100 -809 m 0
 -1100 -722 -1027 -621 -917 -621 c 0
 -837 -621 -785 -655 -785 -758 c 0
 -785 -781 -788 -807 -793 -836 c 2
 -817 -972 l 1
 -674 -972 l 1
 -615 -634 l 1
 -481 -634 l 1
 -558 -1072 l 1
 -966 -1072 l 1
 -935 -896 l 1
 -951 -913 -973 -913 -1005 -913 c 0
 -1062 -913 -1100 -870 -1100 -809 c 0
-978 -845 m 0
 -914 -845 -903 -771 -903 -744 c 0
 -903 -719 -913 -700 -943 -700 c 0
 -987 -700 -1023 -740 -1023 -798 c 0
 -1023 -829 -1008 -845 -978 -845 c 0
-310.104 -97 m 1
 -176.104 -97 l 1
 -253.335 -535 l 1
 -661.335 -535 l 1
 -630.302 -359 l 1
 -636.143 -365.667 -643.241 -370 -651.594 -372 c 0
 -659.947 -374 -667.123 -375 -673.123 -375 c 2
 -677.24 -375.667 -686.299 -376 -700.299 -376 c 0
 -732.299 -376 -757.732 -363.333 -776.599 -338 c 0
 -794.014 -312 -799.548 -281 -793.2 -245 c 0
 -784.854 -197.667 -763.762 -159.333 -729.923 -130 c 0
 -695.849 -99.3333 -656.812 -84 -612.812 -84 c 0
 -552.145 -84 -513.064 -104.333 -495.567 -145 c 0
 -478.778 -178.333 -476.497 -229.667 -488.722 -299 c 2
 -512.702 -435 l 1
 -369.702 -435 l 1
 -310.104 -97 l 1
-638.741 -163 m 0
 -656.074 -163 -672.642 -170 -688.444 -184 c 0
 -702.913 -198 -711.969 -215.333 -715.613 -236 c 0
 -724.077 -284 -709.976 -308 -673.309 -308 c 0
 -653.309 -308 -637.074 -301 -624.605 -287 c 0
 -612.921 -273.667 -605.081 -255.667 -601.084 -233 c 0
 -597.087 -210.333 -598.031 -193 -603.915 -181 c 0
 -611.132 -169 -622.741 -163 -638.741 -163 c 0
EndSplineSet
Fore
Refer: 180 3641 N 1 0 0 1 -352 -540 2
EndChar

StartChar: uni0E3A.low
Encoding: 63258 63258 267
Width: 0
VWidth: 2045
Flags: W
HStem: -977 356<-793.693 -600.328>
VStem: -879 366<-887.719 -705.932>
LayerCount: 2
Back
SplineSet
-725 -757 m 0
 -725 -664 -639 -597 -565 -597 c 0
 -490 -597 -453 -657 -453 -712 c 0
 -453 -801 -545 -866 -613 -866 c 0
 -675 -866 -725 -823 -725 -757 c 0
-260.58 -60 m 0
 -223.913 -60 -195.264 -73.3333 -174.633 -100 c 0
 -152.472 -129.333 -144.389 -161 -150.384 -195 c 0
 -156.967 -232.333 -176.217 -264 -208.135 -290 c 0
 -242.72 -316 -276.012 -329 -308.012 -329 c 0
 -343.345 -329 -372.72 -316 -396.135 -290 c 0
 -417.433 -263.333 -424.849 -231.667 -418.384 -195 c 0
 -411.801 -157.667 -393.218 -126 -362.633 -100 c 0
 -329.931 -73.3333 -295.913 -60 -260.58 -60 c 0
EndSplineSet
Fore
Refer: 181 3642 N 1 0 0 1 -279 -539 2
EndChar

StartChar: uniF71B
Encoding: 63259 63259 268
Width: 998
VWidth: 2045
Flags: W
HStem: 1064 20G<402.484 1020>
DStem2: 226 60 840 60 0.173648 0.984808<106.62 1039.7>
LayerCount: 2
Fore
SplineSet
1020 1084 m 1
 840 60 l 1
 226 60 l 1
 406 1084 l 1
 1020 1084 l 1
EndSplineSet
EndChar

StartChar: uniF71C
Encoding: 63260 63260 269
Width: 698
VWidth: 2045
Flags: W
HStem: -423 269
VStem: 32 426
LayerCount: 2
Fore
SplineSet
32 -423 m 1
 217 -154 l 1
 458 -154 l 1
 169 -423 l 1
 32 -423 l 1
EndSplineSet
EndChar

StartChar: uniF71D
Encoding: 63261 63261 270
Width: 798
VWidth: 2045
Flags: W
HStem: -236 211<179 223 509 574> -127 102<243 509>
VStem: 141 471
DStem2: 141 -236 223 -236 0.173648 0.984808<14.2392 125.056>
LayerCount: 2
Fore
SplineSet
574 -236 m 1xa0
 489 -236 l 1xa0
 509 -127 l 1
 243 -127 l 1x60
 223 -236 l 1
 141 -236 l 1
 179 -25 l 1xa0
 612 -25 l 1x60
 574 -236 l 1xa0
EndSplineSet
EndChar

StartChar: zerowidthnonjoiner
Encoding: 8204 8204 271
Width: 0
Flags: W
LayerCount: 2
Back
SplineSet
263.285 1289 m 1
 -12.4902 -275 l 1
 -84.4902 -275 l 1
 191.285 1289 l 1
 263.285 1289 l 1
EndSplineSet
EndChar

StartChar: uni0E47.high
Encoding: 63263 63263 275
Width: 0
VWidth: 2045
Flags: W
HStem: 2084 116<-215.5 -61.7332> 2168 130<-409.011 -292.442> 2272 116<-132.726 -61.6084> 2397 121<-453.349 50.9389>
VStem: -614 133<2232.19 2366.3> -60 119<2201.34 2270.93>
AnchorPoint: "AboveMark" -208 2560 basemark 0
AnchorPoint: "AboveMark" -294 2070 mark 0
LayerCount: 2
Fore
SplineSet
-614 2250 m 0x5c
 -614 2453 -430 2518 -315 2518 c 0
 -265 2518 -220 2509 -140 2509 c 0
 -1 2509 53 2543 84 2612 c 1
 178 2551 l 1
 126 2440 25 2389 -143 2388 c 0x3c
 -236 2388 -272 2397 -325 2397 c 0
 -442 2397 -481 2342 -481 2268 c 0
 -481 2250 -476 2239 -468 2232 c 1
 -451 2280 -411 2298 -379 2298 c 0x5c
 -311 2298 -282 2249 -251 2232 c 1
 -235 2322 -154 2388 -70 2388 c 0
 3 2388 59 2337 59 2263 c 0
 59 2177 -11 2084 -139 2084 c 0xbc
 -292 2084 -324 2168 -380 2168 c 0
 -398 2168 -403 2164 -408 2133 c 0
 -410 2119 -412 2098 -414 2082 c 1
 -572 2100 -614 2173 -614 2250 c 0x5c
-103 2200 m 0xbc
 -80 2200 -60 2219 -60 2242 c 0
 -60 2259 -73 2272 -90 2272 c 0
 -110 2272 -134 2255 -134 2229 c 0
 -134 2212 -122 2200 -103 2200 c 0xbc
EndSplineSet
EndChar

StartChar: ff
Encoding: 64256 64256 276
Width: 1138
Flags: W
HStem: 0 21G<177 360.523 746 929.523> 914 148<206 338 544 907 1113 1266> 1367 148<648.908 1012.29 1200.64 1449.93>
DStem2: 177 0 357 0 0.173648 0.984808<31.2567 928.072 1109.59 1368.28> 746 0 926 0 0.173648 0.984808<31.2567 928.072 1109.59 1369.78>
LayerCount: 2
Fore
SplineSet
1303 1367 m 3
 1225 1367 1158 1308 1131 1160 c 2
 1113 1062 l 1
 1292 1062 l 1
 1266 914 l 1
 1087 914 l 1
 926 0 l 1
 746 0 l 1
 907 914 l 1
 518 914 l 1
 357 0 l 1
 177 0 l 1
 338 914 l 1
 180 914 l 1
 206 1062 l 1
 364 1062 l 1
 384 1175 l 2
 432 1447 622 1515 876 1515 c 3
 922 1515 1056 1508 1120 1456 c 1
 1187 1500 1261 1515 1323 1515 c 3
 1374 1515 1423 1506 1471 1488 c 1
 1445 1340 l 1
 1389 1360 1349 1367 1303 1367 c 3
856 1367 m 3
 656 1367 589 1308 562 1160 c 2
 544 1062 l 1
 933 1062 l 1
 953 1175 l 2
 965 1244 987 1301 1014 1346 c 1
 952 1365 884 1367 856 1367 c 3
EndSplineSet
LCarets2: 1 0 
Ligature2: "'liga' Standard Ligatures lookup 0" f f
EndChar

